<?xml version="1.0" encoding="UTF-8" standalone="no"?>
<svg xmlns="http://www.w3.org/2000/svg"
     xmlns:xlink="http://www.w3.org/1999/xlink"
     width="576px" height="433px" viewBox="0 0 576 433">
<title>glps_renderer figure</title>
<desc>
Creator: GL2PS 1.3.8, (C) 1999-2012 C. Geuzaine
For: Octave
CreationDate: Sun May 19 00:45:36 2019
</desc>
<defs>
</defs>
<g shape-rendering="crispEdges">
<polygon fill="#ffffff" points="74.88,384.48 521.28,384.48 74.88,32.4"/>
<polygon fill="#ffffff" points="521.28,384.48 521.28,32.4 74.88,32.4"/>
<polygon fill="#ffffff" points="388.903,77.3261 518.534,77.3261 388.903,35.1458"/>
<polygon fill="#ffffff" points="518.534,77.3261 518.534,35.1458 388.903,35.1458"/>
<polyline fill="none" stroke="#000000" stroke-width="0.5" stroke-dasharray="16,0" points="74.88,384.48 521.28,384.48"/>
<polyline fill="none" stroke="#000000" stroke-width="0.5" stroke-dasharray="16,0" points="74.88,32.4 521.28,32.4"/>
<polyline fill="none" stroke="#000000" stroke-width="0.5" stroke-dasharray="16,0" points="74.88,384.48 74.88,32.4"/>
<polyline fill="none" stroke="#000000" stroke-width="0.5" stroke-dasharray="16,0" points="521.28,384.48 521.28,32.4"/>
<polyline fill="none" stroke="#000000" stroke-width="0.5" stroke-dasharray="0,3,1,3,1,3,1,3,1,0" points="74.88,384.48 74.88,32.4"/>
<polyline fill="none" stroke="#000000" stroke-width="0.5" stroke-dasharray="0,3,1,3,1,3,1,3,1,0" points="134.4,384.48 134.4,32.4"/>
<polyline fill="none" stroke="#000000" stroke-width="0.5" stroke-dasharray="0,3,1,3,1,3,1,3,1,0" points="193.92,384.48 193.92,32.4"/>
<polyline fill="none" stroke="#000000" stroke-width="0.5" stroke-dasharray="0,3,1,3,1,3,1,3,1,0" points="253.44,384.48 253.44,32.4"/>
<polyline fill="none" stroke="#000000" stroke-width="0.5" stroke-dasharray="0,3,1,3,1,3,1,3,1,0" points="312.96,384.48 312.96,32.4"/>
<polyline fill="none" stroke="#000000" stroke-width="0.5" stroke-dasharray="0,3,1,3,1,3,1,3,1,0" points="372.48,384.48 372.48,32.4"/>
<polyline fill="none" stroke="#000000" stroke-width="0.5" stroke-dasharray="0,3,1,3,1,3,1,3,1,0" points="432,384.48 432,32.4"/>
<polyline fill="none" stroke="#000000" stroke-width="0.5" stroke-dasharray="0,3,1,3,1,3,1,3,1,0" points="491.52,384.48 491.52,32.4"/>
<polyline fill="none" stroke="#000000" stroke-width="0.5" stroke-dasharray="16,0" points="74.88,384.48 74.88,380.015"/>
<polyline fill="none" stroke="#000000" stroke-width="0.5" stroke-dasharray="16,0" points="74.88,32.4 74.88,36.8651"/>
<polyline fill="none" stroke="#000000" stroke-width="0.5" stroke-dasharray="16,0" points="134.4,384.48 134.4,380.015"/>
<polyline fill="none" stroke="#000000" stroke-width="0.5" stroke-dasharray="16,0" points="134.4,32.4 134.4,36.8651"/>
<polyline fill="none" stroke="#000000" stroke-width="0.5" stroke-dasharray="16,0" points="193.92,384.48 193.92,380.015"/>
<polyline fill="none" stroke="#000000" stroke-width="0.5" stroke-dasharray="16,0" points="193.92,32.4 193.92,36.8651"/>
<polyline fill="none" stroke="#000000" stroke-width="0.5" stroke-dasharray="16,0" points="253.44,384.48 253.44,380.015"/>
<polyline fill="none" stroke="#000000" stroke-width="0.5" stroke-dasharray="16,0" points="253.44,32.4 253.44,36.8651"/>
<polyline fill="none" stroke="#000000" stroke-width="0.5" stroke-dasharray="16,0" points="312.96,384.48 312.96,380.015"/>
<polyline fill="none" stroke="#000000" stroke-width="0.5" stroke-dasharray="16,0" points="312.96,32.4 312.96,36.8651"/>
<polyline fill="none" stroke="#000000" stroke-width="0.5" stroke-dasharray="16,0" points="372.48,384.48 372.48,380.015"/>
<polyline fill="none" stroke="#000000" stroke-width="0.5" stroke-dasharray="16,0" points="372.48,32.4 372.48,36.8651"/>
<polyline fill="none" stroke="#000000" stroke-width="0.5" stroke-dasharray="16,0" points="432,384.48 432,380.015"/>
<polyline fill="none" stroke="#000000" stroke-width="0.5" stroke-dasharray="16,0" points="432,32.4 432,36.8651"/>
<polyline fill="none" stroke="#000000" stroke-width="0.5" stroke-dasharray="16,0" points="491.52,384.48 491.52,380.015"/>
<polyline fill="none" stroke="#000000" stroke-width="0.5" stroke-dasharray="16,0" points="491.52,32.4 491.52,36.8651"/>
<text fill="#000000" x="74.88" y="389.481" font-size="10" text-anchor="middle" baseline-shift="-10" font-family="Helvetica">0</text>
<text fill="#000000" x="134.4" y="389.481" font-size="10" text-anchor="middle" baseline-shift="-10" font-family="Helvetica">200</text>
<text fill="#000000" x="193.92" y="389.481" font-size="10" text-anchor="middle" baseline-shift="-10" font-family="Helvetica">400</text>
<text fill="#000000" x="253.44" y="389.481" font-size="10" text-anchor="middle" baseline-shift="-10" font-family="Helvetica">600</text>
<text fill="#000000" x="312.96" y="389.481" font-size="10" text-anchor="middle" baseline-shift="-10" font-family="Helvetica">800</text>
<text fill="#000000" x="372.48" y="389.481" font-size="10" text-anchor="middle" baseline-shift="-10" font-family="Helvetica">1000</text>
<text fill="#000000" x="432" y="389.481" font-size="10" text-anchor="middle" baseline-shift="-10" font-family="Helvetica">1200</text>
<text fill="#000000" x="491.52" y="389.481" font-size="10" text-anchor="middle" baseline-shift="-10" font-family="Helvetica">1400</text>
<polyline fill="none" stroke="#000000" stroke-width="0.5" stroke-dasharray="0,3,1,3,1,3,1,3,1,0" points="74.88,384.48 521.28,384.48"/>
<polyline fill="none" stroke="#000000" stroke-width="0.5" stroke-dasharray="0,3,1,3,1,3,1,3,1,0" points="74.88,314.064 521.28,314.064"/>
<polyline fill="none" stroke="#000000" stroke-width="0.5" stroke-dasharray="0,3,1,3,1,3,1,3,1,0" points="74.88,243.648 521.28,243.648"/>
<polyline fill="none" stroke="#000000" stroke-width="0.5" stroke-dasharray="0,3,1,3,1,3,1,3,1,0" points="74.88,173.232 521.28,173.232"/>
<polyline fill="none" stroke="#000000" stroke-width="0.5" stroke-dasharray="0,3,1,3,1,3,1,3,1,0" points="74.88,102.816 521.28,102.816"/>
<polyline fill="none" stroke="#000000" stroke-width="0.5" stroke-dasharray="0,3,1,3,1,3,1,3,1,0" points="74.88,32.4 521.28,32.4"/>
<polyline fill="none" stroke="#000000" stroke-width="0.5" stroke-dasharray="16,0" points="74.88,384.48 79.348,384.48"/>
<polyline fill="none" stroke="#000000" stroke-width="0.5" stroke-dasharray="16,0" points="521.28,384.48 516.812,384.48"/>
<polyline fill="none" stroke="#000000" stroke-width="0.5" stroke-dasharray="16,0" points="74.88,314.064 79.348,314.064"/>
<polyline fill="none" stroke="#000000" stroke-width="0.5" stroke-dasharray="16,0" points="521.28,314.064 516.812,314.064"/>
<polyline fill="none" stroke="#000000" stroke-width="0.5" stroke-dasharray="16,0" points="74.88,243.648 79.348,243.648"/>
<polyline fill="none" stroke="#000000" stroke-width="0.5" stroke-dasharray="16,0" points="521.28,243.648 516.812,243.648"/>
<polyline fill="none" stroke="#000000" stroke-width="0.5" stroke-dasharray="16,0" points="74.88,173.232 79.348,173.232"/>
<polyline fill="none" stroke="#000000" stroke-width="0.5" stroke-dasharray="16,0" points="521.28,173.232 516.812,173.232"/>
<polyline fill="none" stroke="#000000" stroke-width="0.5" stroke-dasharray="16,0" points="74.88,102.816 79.348,102.816"/>
<polyline fill="none" stroke="#000000" stroke-width="0.5" stroke-dasharray="16,0" points="521.28,102.816 516.812,102.816"/>
<polyline fill="none" stroke="#000000" stroke-width="0.5" stroke-dasharray="16,0" points="74.88,32.4 79.348,32.4"/>
<polyline fill="none" stroke="#000000" stroke-width="0.5" stroke-dasharray="16,0" points="521.28,32.4 516.812,32.4"/>
<text fill="#000000" x="69.8755" y="384.48" font-size="10" text-anchor="end" baseline-shift="-5" font-family="Helvetica">0</text>
<text fill="#000000" x="69.8755" y="314.064" font-size="10" text-anchor="end" baseline-shift="-5" font-family="Helvetica">20</text>
<text fill="#000000" x="69.8755" y="243.648" font-size="10" text-anchor="end" baseline-shift="-5" font-family="Helvetica">40</text>
<text fill="#000000" x="69.8755" y="173.232" font-size="10" text-anchor="end" baseline-shift="-5" font-family="Helvetica">60</text>
<text fill="#000000" x="69.8755" y="102.816" font-size="10" text-anchor="end" baseline-shift="-5" font-family="Helvetica">80</text>
<text fill="#000000" x="69.8755" y="32.4" font-size="10" text-anchor="end" baseline-shift="-5" font-family="Helvetica">100</text>
<text fill="#000000" x="298.08" y="400.481" font-size="12" text-anchor="middle" baseline-shift="-12" font-family="Helvetica">x( No. of rounds)</text>
<text fill="#000000" x="47.8755" y="208.44" font-size="12" transform="rotate(-90, 47.8755, 208.44)" text-anchor="middle" baseline-shift="0" font-family="Helvetica">y (Alive nodes)</text>
<polyline fill="none" stroke="#0000ff" stroke-width="0.5" stroke-dasharray="0,4,4,4,4,0" points="74.88,384.48 75.1776,32.4 75.4752,32.4 75.7728,32.4 76.0704,32.4 76.368,32.4 76.6656,32.4 76.9632,32.4 77.2608,32.4 77.5584,32.4 77.856,32.4 78.1536,32.4 78.4512,32.4 78.7488,32.4 79.0464,32.4 79.344,32.4 79.6416,32.4 79.9392,32.4 80.2368,32.4 80.5344,32.4 80.832,32.4 81.1296,32.4 81.4272,32.4 81.7248,32.4 82.0224,32.4 82.32,32.4 82.6176,32.4 82.9152,32.4 83.2128,32.4 83.5104,32.4 83.808,32.4 84.1056,32.4 84.4032,32.4 84.7008,32.4 84.9984,32.4 85.296,32.4 85.5936,32.4 85.8912,32.4 86.1888,32.4 86.4864,32.4 86.784,32.4 87.0816,32.4 87.3792,32.4 87.6768,32.4 87.9744,32.4 88.272,32.4 88.5696,32.4 88.8672,32.4 89.1648,32.4 89.4624,32.4 89.76,32.4 90.0576,32.4 90.3552,32.4 90.6528,32.4 90.9504,32.4 91.248,32.4 91.5456,32.4 91.8432,32.4 92.1408,32.4 92.4384,32.4 92.736,32.4 93.0336,32.4 93.3312,32.4 93.6288,32.4 93.9264,32.4 94.224,32.4 94.5216,32.4 94.8192,32.4 95.1168,32.4 95.4144,32.4 95.712,32.4 96.0096,32.4 96.3072,32.4 96.6048,32.4 96.9024,32.4 97.2,32.4 97.4976,32.4 97.7952,32.4 98.0928,32.4 98.3904,32.4 98.688,32.4 98.9856,32.4 99.2832,32.4 99.5808,32.4 99.8784,32.4 100.176,32.4 100.474,32.4 100.771,32.4 101.069,32.4 101.366,32.4 101.664,32.4 101.962,32.4 102.259,32.4 102.557,32.4 102.854,32.4 103.152,32.4 103.45,32.4 103.747,32.4 104.045,32.4 104.342,32.4 104.64,32.4 104.938,32.4 105.235,32.4 105.533,32.4 105.83,32.4 106.128,32.4 106.426,32.4 106.723,32.4 107.021,32.4 107.318,32.4 107.616,32.4 107.914,32.4 108.211,32.4 108.509,32.4 108.806,32.4 109.104,32.4 109.402,32.4 109.699,32.4 109.997,32.4 110.294,32.4 110.592,32.4 110.89,32.4 111.187,32.4 111.485,32.4 111.782,32.4 112.08,35.9208 112.378,35.9208 112.675,35.9208 112.973,35.9208 113.27,35.9208 113.568,35.9208 113.866,35.9208 114.163,35.9208 114.461,35.9208 114.758,35.9208 115.056,35.9208 115.354,39.4416 115.651,39.4416 115.949,39.4416 116.246,39.4416 116.544,39.4416 116.842,39.4416 117.139,39.4416 117.437,39.4416 117.734,39.4416 118.032,39.4416 118.33,42.9624 118.627,42.9624 118.925,42.9624 119.222,42.9624 119.52,42.9624 119.818,42.9624 120.115,42.9624 120.413,42.9624 120.71,42.9624 121.008,42.9624 121.306,42.9624 121.603,42.9624 121.901,42.9624 122.198,50.004 122.496,50.004 122.794,50.004 123.091,50.004 123.389,50.004 123.686,50.004 123.984,50.004 124.282,50.004 124.579,50.004 124.877,50.004 125.174,50.004 125.472,50.004 125.77,50.004 126.067,50.004 126.365,50.004 126.662,50.004 126.96,57.0456 127.258,57.0456 127.555,57.0456 127.853,57.0456 128.15,57.0456 128.448,57.0456 128.746,60.5664 129.043,60.5664 129.341,60.5664 129.638,60.5664 129.936,64.0872 130.234,64.0872 130.531,64.0872 130.829,64.0872 131.126,64.0872 131.424,64.0872 131.722,64.0872 132.019,67.608 132.317,67.608 132.614,67.608 132.912,67.608 133.21,67.608 133.507,78.1704 133.805,78.1704 134.102,78.1704 134.4,78.1704 134.698,78.1704 134.995,81.6912 135.293,81.6912 135.59,81.6912 135.888,81.6912 136.186,81.6912 136.483,81.6912 136.781,81.6912 137.078,81.6912 137.376,81.6912 137.674,81.6912 137.971,81.6912 138.269,85.212 138.566,85.212 138.864,85.212 139.162,85.212 139.459,85.212 139.757,85.212 140.054,85.212 140.352,85.212 140.65,88.7328 140.947,88.7328 141.245,88.7328 141.542,88.7328 141.84,88.7328 142.138,88.7328 142.435,88.7328 142.733,92.2536 143.03,92.2536 143.328,92.2536 143.626,92.2536 143.923,92.2536 144.221,92.2536 144.518,95.7744 144.816,95.7744 145.114,95.7744 145.411,95.7744 145.709,95.7744 146.006,95.7744 146.304,95.7744 146.602,95.7744 146.899,95.7744 147.197,95.7744 147.494,95.7744 147.792,95.7744 148.09,95.7744 148.387,95.7744 148.685,95.7744 148.982,95.7744 149.28,95.7744 149.578,95.7744 149.875,95.7744 150.173,95.7744 150.47,95.7744 150.768,95.7744 151.066,95.7744 151.363,99.2952 151.661,99.2952 151.958,102.816 152.256,102.816 152.554,102.816 152.851,102.816 153.149,106.337 153.446,109.858 153.744,109.858 154.042,109.858 154.339,109.858 154.637,109.858 154.934,109.858 155.232,116.899 155.53,116.899 155.827,116.899 156.125,116.899 156.422,116.899 156.72,116.899 157.018,116.899 157.315,116.899 157.613,120.42 157.91,123.941 158.208,127.462 158.506,134.503 158.803,141.545 159.101,141.545 159.398,145.066 159.696,148.586 159.994,148.586 160.291,148.586 160.589,148.586 160.886,148.586 161.184,152.107 161.482,155.628 161.779,155.628 162.077,155.628 162.374,155.628 162.672,155.628 162.97,155.628 163.267,155.628 163.565,159.149 163.862,159.149 164.16,159.149 164.458,159.149 164.755,159.149 165.053,159.149 165.35,159.149 165.648,159.149 165.946,159.149 166.243,159.149 166.541,159.149 166.838,162.67 167.136,162.67 167.434,162.67 167.731,162.67 168.029,162.67 168.326,166.19 168.624,166.19 168.922,169.711 169.219,173.232 169.517,173.232 169.814,173.232 170.112,173.232 170.41,173.232 170.707,173.232 171.005,173.232 171.302,176.753 171.6,180.274 171.898,183.794 172.195,187.315 172.493,190.836 172.79,190.836 173.088,190.836 173.386,190.836 173.683,190.836 173.981,190.836 174.278,190.836 174.576,190.836 174.874,190.836 175.171,190.836 175.469,190.836 175.766,190.836 176.064,190.836 176.362,190.836 176.659,190.836 176.957,190.836 177.254,197.878 177.552,197.878 177.85,197.878 178.147,197.878 178.445,197.878 178.742,197.878 179.04,197.878 179.338,197.878 179.635,197.878 179.933,197.878 180.23,197.878 180.528,197.878 180.826,197.878 181.123,197.878 181.421,197.878 181.718,201.398 182.016,201.398 182.314,201.398 182.611,201.398 182.909,201.398 183.206,201.398 183.504,201.398 183.802,204.919 184.099,211.961 184.397,211.961 184.694,211.961 184.992,211.961 185.29,211.961 185.587,211.961 185.885,211.961 186.182,211.961 186.48,211.961 186.778,211.961 187.075,215.482 187.373,215.482 187.67,215.482 187.968,215.482 188.266,215.482 188.563,215.482 188.861,215.482 189.158,215.482 189.456,215.482 189.754,215.482 190.051,215.482 190.349,215.482 190.646,215.482 190.944,215.482 191.242,215.482 191.539,215.482 191.837,219.002 192.134,219.002 192.432,219.002 192.73,219.002 193.027,219.002 193.325,219.002 193.622,222.523 193.92,222.523 194.218,222.523 194.515,222.523 194.813,222.523 195.11,222.523 195.408,222.523 195.706,222.523 196.003,222.523 196.301,222.523 196.598,222.523 196.896,222.523 197.194,222.523 197.491,222.523 197.789,222.523 198.086,226.044 198.384,226.044 198.682,226.044 198.979,226.044 199.277,226.044 199.574,226.044 199.872,226.044 200.17,226.044 200.467,226.044 200.765,226.044 201.062,229.565 201.36,229.565 201.658,229.565 201.955,229.565 202.253,229.565 202.55,229.565 202.848,229.565 203.146,233.086 203.443,233.086 203.741,233.086 204.038,233.086 204.336,233.086 204.634,240.127 204.931,240.127 205.229,240.127 205.526,240.127 205.824,240.127 206.122,240.127 206.419,240.127 206.717,240.127 207.014,240.127 207.312,240.127 207.61,240.127 207.907,240.127 208.205,240.127 208.502,240.127 208.8,240.127 209.098,240.127 209.395,240.127 209.693,240.127 209.99,240.127 210.288,243.648 210.586,247.169 210.883,250.69 211.181,250.69 211.478,250.69 211.776,250.69 212.074,250.69 212.371,250.69 212.669,250.69 212.966,250.69 213.264,250.69 213.562,250.69 213.859,250.69 214.157,254.21 214.454,254.21 214.752,254.21 215.05,254.21 215.347,254.21 215.645,257.731 215.942,257.731 216.24,257.731 216.538,257.731 216.835,257.731 217.133,261.252 217.43,261.252 217.728,261.252 218.026,261.252 218.323,264.773 218.621,264.773 218.918,268.294 219.216,268.294 219.514,268.294 219.811,268.294 220.109,268.294 220.406,268.294 220.704,268.294 221.002,268.294 221.299,268.294 221.597,268.294 221.894,268.294 222.192,268.294 222.49,268.294 222.787,271.814 223.085,271.814 223.382,271.814 223.68,271.814 223.978,271.814 224.275,271.814 224.573,275.335 224.87,275.335 225.168,275.335 225.466,275.335 225.763,275.335 226.061,275.335 226.358,275.335 226.656,278.856 226.954,282.377 227.251,282.377 227.549,282.377 227.846,282.377 228.144,282.377 228.442,282.377 228.739,282.377 229.037,282.377 229.334,282.377 229.632,285.898 229.93,285.898 230.227,285.898 230.525,289.418 230.822,289.418 231.12,289.418 231.418,289.418 231.715,289.418 232.013,289.418 232.31,289.418 232.608,292.939 232.906,292.939 233.203,292.939 233.501,292.939 233.798,292.939 234.096,292.939 234.394,292.939 234.691,296.46 234.989,296.46 235.286,296.46 235.584,299.981 235.882,299.981 236.179,299.981 236.477,299.981 236.774,299.981 237.072,299.981 237.37,299.981 237.667,299.981 237.965,299.981 238.262,299.981 238.56,303.502 238.858,307.022 239.155,307.022 239.453,307.022 239.75,307.022 240.048,307.022 240.346,310.543 240.643,310.543 240.941,310.543 241.238,310.543 241.536,310.543 241.834,310.543 242.131,310.543 242.429,310.543 242.726,310.543 243.024,314.064 243.322,314.064 243.619,314.064 243.917,314.064 244.214,317.585 244.512,317.585 244.81,317.585 245.107,317.585 245.405,317.585 245.702,321.106 246,321.106 246.298,321.106 246.595,324.626 246.893,324.626 247.19,324.626 247.488,324.626 247.786,324.626 248.083,324.626 248.381,324.626 248.678,324.626 248.976,328.147 249.274,331.668 249.571,335.189 249.869,335.189 250.166,335.189 250.464,342.23 250.762,349.272 251.059,352.793 251.357,352.793 251.654,356.314 251.952,359.834 252.25,359.834 252.547,359.834 252.845,363.355 253.142,366.876 253.44,370.397 253.738,370.397 254.035,370.397 254.333,370.397 254.63,370.397 254.928,370.397 255.226,373.918 255.523,373.918 255.821,377.438 256.118,377.438 256.416,377.438 256.714,377.438 257.011,377.438 257.309,377.438 257.606,377.438 257.904,377.438 258.202,377.438 258.499,377.438 258.797,377.438 259.094,377.438 259.392,377.438 259.69,377.438 259.987,377.438 260.285,377.438 260.582,377.438 260.88,377.438 261.178,377.438 261.475,377.438 261.773,377.438 262.07,377.438 262.368,377.438 262.666,377.438 262.963,377.438 263.261,377.438 263.558,377.438 263.856,377.438 264.154,377.438 264.451,380.959 264.749,380.959 265.046,380.959 265.344,380.959 265.642,380.959 265.939,380.959 266.237,380.959 266.534,380.959 266.832,380.959 267.13,380.959 267.427,380.959 267.725,380.959 268.022,380.959 268.32,380.959 268.618,380.959 268.915,380.959 269.213,380.959 269.51,380.959 269.808,380.959 270.106,380.959 270.403,380.959 270.701,380.959 270.998,380.959 271.296,380.959 271.594,380.959 271.891,380.959 272.189,380.959 272.486,380.959 272.784,384.48 273.082,384.48 273.379,384.48 273.677,384.48 273.974,384.48 274.272,384.48 274.57,384.48 274.867,384.48 275.165,384.48 275.462,384.48 275.76,384.48 276.058,384.48 276.355,384.48 276.653,384.48 276.95,384.48 277.248,384.48 277.546,384.48 277.843,384.48 278.141,384.48 278.438,384.48 278.736,384.48 279.034,384.48 279.331,384.48 279.629,384.48 279.926,384.48 280.224,384.48 280.522,384.48 280.819,384.48 281.117,384.48 281.414,384.48 281.712,384.48 282.01,384.48 282.307,384.48 282.605,384.48 282.902,384.48 283.2,384.48 283.498,384.48 283.795,384.48 284.093,384.48 284.39,384.48 284.688,384.48 284.986,384.48 285.283,384.48 285.581,384.48 285.878,384.48 286.176,384.48 286.474,384.48 286.771,384.48 287.069,384.48 287.366,384.48 287.664,384.48 287.962,384.48 288.259,384.48 288.557,384.48 288.854,384.48 289.152,384.48 289.45,384.48 289.747,384.48 290.045,384.48 290.342,384.48 290.64,384.48 290.938,384.48 291.235,384.48 291.533,384.48 291.83,384.48 292.128,384.48 292.426,384.48 292.723,384.48 293.021,384.48 293.318,384.48 293.616,384.48 293.914,384.48 294.211,384.48 294.509,384.48 294.806,384.48 295.104,384.48 295.402,384.48 295.699,384.48 295.997,384.48 296.294,384.48 296.592,384.48 296.89,384.48 297.187,384.48 297.485,384.48 297.782,384.48 298.08,384.48 298.378,384.48 298.675,384.48 298.973,384.48 299.27,384.48 299.568,384.48 299.866,384.48 300.163,384.48 300.461,384.48 300.758,384.48 301.056,384.48 301.354,384.48 301.651,384.48 301.949,384.48 302.246,384.48 302.544,384.48 302.842,384.48 303.139,384.48 303.437,384.48 303.734,384.48 304.032,384.48 304.33,384.48 304.627,384.48 304.925,384.48 305.222,384.48 305.52,384.48 305.818,384.48 306.115,384.48 306.413,384.48 306.71,384.48 307.008,384.48 307.306,384.48 307.603,384.48 307.901,384.48 308.198,384.48 308.496,384.48 308.794,384.48 309.091,384.48 309.389,384.48 309.686,384.48 309.984,384.48 310.282,384.48 310.579,384.48 310.877,384.48 311.174,384.48 311.472,384.48 311.77,384.48 312.067,384.48 312.365,384.48 312.662,384.48 312.96,384.48 313.258,384.48 313.555,384.48 313.853,384.48 314.15,384.48 314.448,384.48 314.746,384.48 315.043,384.48 315.341,384.48 315.638,384.48 315.936,384.48 316.234,384.48 316.531,384.48 316.829,384.48 317.126,384.48 317.424,384.48 317.722,384.48 318.019,384.48 318.317,384.48 318.614,384.48 318.912,384.48 319.21,384.48 319.507,384.48 319.805,384.48 320.102,384.48 320.4,384.48 320.698,384.48 320.995,384.48 321.293,384.48 321.59,384.48 321.888,384.48 322.186,384.48 322.483,384.48 322.781,384.48 323.078,384.48 323.376,384.48 323.674,384.48 323.971,384.48 324.269,384.48 324.566,384.48 324.864,384.48 325.162,384.48 325.459,384.48 325.757,384.48 326.054,384.48 326.352,384.48 326.65,384.48 326.947,384.48 327.245,384.48 327.542,384.48 327.84,384.48 328.138,384.48 328.435,384.48 328.733,384.48 329.03,384.48 329.328,384.48 329.626,384.48 329.923,384.48 330.221,384.48 330.518,384.48 330.816,384.48 331.114,384.48 331.411,384.48 331.709,384.48 332.006,384.48 332.304,384.48 332.602,384.48 332.899,384.48 333.197,384.48 333.494,384.48 333.792,384.48 334.09,384.48 334.387,384.48 334.685,384.48 334.982,384.48 335.28,384.48 335.578,384.48 335.875,384.48 336.173,384.48 336.47,384.48 336.768,384.48 337.066,384.48 337.363,384.48 337.661,384.48 337.958,384.48 338.256,384.48 338.554,384.48 338.851,384.48 339.149,384.48 339.446,384.48 339.744,384.48 340.042,384.48 340.339,384.48 340.637,384.48 340.934,384.48 341.232,384.48 341.53,384.48 341.827,384.48 342.125,384.48 342.422,384.48 342.72,384.48 343.018,384.48 343.315,384.48 343.613,384.48 343.91,384.48 344.208,384.48 344.506,384.48 344.803,384.48 345.101,384.48 345.398,384.48 345.696,384.48 345.994,384.48 346.291,384.48 346.589,384.48 346.886,384.48 347.184,384.48 347.482,384.48 347.779,384.48 348.077,384.48 348.374,384.48 348.672,384.48 348.97,384.48 349.267,384.48 349.565,384.48 349.862,384.48 350.16,384.48 350.458,384.48 350.755,384.48 351.053,384.48 351.35,384.48 351.648,384.48 351.946,384.48 352.243,384.48 352.541,384.48 352.838,384.48 353.136,384.48 353.434,384.48 353.731,384.48 354.029,384.48 354.326,384.48 354.624,384.48 354.922,384.48 355.219,384.48 355.517,384.48 355.814,384.48 356.112,384.48 356.41,384.48 356.707,384.48 357.005,384.48 357.302,384.48 357.6,384.48 357.898,384.48 358.195,384.48 358.493,384.48 358.79,384.48 359.088,384.48 359.386,384.48 359.683,384.48 359.981,384.48 360.278,384.48 360.576,384.48 360.874,384.48 361.171,384.48 361.469,384.48 361.766,384.48 362.064,384.48 362.362,384.48 362.659,384.48 362.957,384.48 363.254,384.48 363.552,384.48 363.85,384.48 364.147,384.48 364.445,384.48 364.742,384.48 365.04,384.48 365.338,384.48 365.635,384.48 365.933,384.48 366.23,384.48 366.528,384.48 366.826,384.48 367.123,384.48 367.421,384.48 367.718,384.48 368.016,384.48 368.314,384.48 368.611,384.48 368.909,384.48 369.206,384.48 369.504,384.48 369.802,384.48 370.099,384.48 370.397,384.48 370.694,384.48 370.992,384.48 371.29,384.48 371.587,384.48 371.885,384.48 372.182,384.48 372.48,384.48 372.778,384.48 373.075,384.48 373.373,384.48 373.67,384.48 373.968,384.48 374.266,384.48 374.563,384.48 374.861,384.48 375.158,384.48 375.456,384.48 375.754,384.48 376.051,384.48 376.349,384.48 376.646,384.48 376.944,384.48 377.242,384.48 377.539,384.48 377.837,384.48 378.134,384.48 378.432,384.48 378.73,384.48 379.027,384.48 379.325,384.48 379.622,384.48 379.92,384.48 380.218,384.48 380.515,384.48 380.813,384.48 381.11,384.48 381.408,384.48 381.706,384.48 382.003,384.48 382.301,384.48 382.598,384.48 382.896,384.48 383.194,384.48 383.491,384.48 383.789,384.48 384.086,384.48 384.384,384.48 384.682,384.48 384.979,384.48 385.277,384.48 385.574,384.48 385.872,384.48 386.17,384.48 386.467,384.48 386.765,384.48 387.062,384.48 387.36,384.48 387.658,384.48 387.955,384.48 388.253,384.48 388.55,384.48 388.848,384.48 389.146,384.48 389.443,384.48 389.741,384.48 390.038,384.48 390.336,384.48 390.634,384.48 390.931,384.48 391.229,384.48 391.526,384.48 391.824,384.48 392.122,384.48 392.419,384.48 392.717,384.48 393.014,384.48 393.312,384.48 393.61,384.48 393.907,384.48 394.205,384.48 394.502,384.48 394.8,384.48 395.098,384.48 395.395,384.48 395.693,384.48 395.99,384.48 396.288,384.48 396.586,384.48 396.883,384.48 397.181,384.48 397.478,384.48 397.776,384.48 398.074,384.48 398.371,384.48 398.669,384.48 398.966,384.48 399.264,384.48 399.562,384.48 399.859,384.48 400.157,384.48 400.454,384.48 400.752,384.48 401.05,384.48 401.347,384.48 401.645,384.48 401.942,384.48 402.24,384.48 402.538,384.48 402.835,384.48 403.133,384.48 403.43,384.48 403.728,384.48 404.026,384.48 404.323,384.48 404.621,384.48 404.918,384.48 405.216,384.48 405.514,384.48 405.811,384.48 406.109,384.48 406.406,384.48 406.704,384.48 407.002,384.48 407.299,384.48 407.597,384.48 407.894,384.48 408.192,384.48 408.49,384.48 408.787,384.48 409.085,384.48 409.382,384.48 409.68,384.48 409.978,384.48 410.275,384.48 410.573,384.48 410.87,384.48 411.168,384.48 411.466,384.48 411.763,384.48 412.061,384.48 412.358,384.48 412.656,384.48 412.954,384.48 413.251,384.48 413.549,384.48 413.846,384.48 414.144,384.48 414.442,384.48 414.739,384.48 415.037,384.48 415.334,384.48 415.632,384.48 415.93,384.48 416.227,384.48 416.525,384.48 416.822,384.48 417.12,384.48 417.418,384.48 417.715,384.48 418.013,384.48 418.31,384.48 418.608,384.48 418.906,384.48 419.203,384.48 419.501,384.48 419.798,384.48 420.096,384.48 420.394,384.48 420.691,384.48 420.989,384.48 421.286,384.48 421.584,384.48 421.882,384.48 422.179,384.48 422.477,384.48 422.774,384.48 423.072,384.48 423.37,384.48 423.667,384.48 423.965,384.48 424.262,384.48 424.56,384.48 424.858,384.48 425.155,384.48 425.453,384.48 425.75,384.48 426.048,384.48 426.346,384.48 426.643,384.48 426.941,384.48 427.238,384.48 427.536,384.48 427.834,384.48 428.131,384.48 428.429,384.48 428.726,384.48 429.024,384.48 429.322,384.48 429.619,384.48 429.917,384.48 430.214,384.48 430.512,384.48 430.81,384.48 431.107,384.48 431.405,384.48 431.702,384.48 432,384.48 432.298,384.48 432.595,384.48 432.893,384.48 433.19,384.48 433.488,384.48 433.786,384.48 434.083,384.48 434.381,384.48 434.678,384.48 434.976,384.48 435.274,384.48 435.571,384.48 435.869,384.48 436.166,384.48 436.464,384.48 436.762,384.48 437.059,384.48 437.357,384.48 437.654,384.48 437.952,384.48 438.25,384.48 438.547,384.48 438.845,384.48 439.142,384.48 439.44,384.48 439.738,384.48 440.035,384.48 440.333,384.48 440.63,384.48 440.928,384.48 441.226,384.48 441.523,384.48 441.821,384.48 442.118,384.48 442.416,384.48 442.714,384.48 443.011,384.48 443.309,384.48 443.606,384.48 443.904,384.48 444.202,384.48 444.499,384.48 444.797,384.48 445.094,384.48 445.392,384.48 445.69,384.48 445.987,384.48 446.285,384.48 446.582,384.48 446.88,384.48 447.178,384.48 447.475,384.48 447.773,384.48 448.07,384.48 448.368,384.48 448.666,384.48 448.963,384.48 449.261,384.48 449.558,384.48 449.856,384.48 450.154,384.48 450.451,384.48 450.749,384.48 451.046,384.48 451.344,384.48 451.642,384.48 451.939,384.48 452.237,384.48 452.534,384.48 452.832,384.48 453.13,384.48 453.427,384.48 453.725,384.48 454.022,384.48 454.32,384.48 454.618,384.48 454.915,384.48 455.213,384.48 455.51,384.48 455.808,384.48 456.106,384.48 456.403,384.48 456.701,384.48 456.998,384.48 457.296,384.48 457.594,384.48 457.891,384.48 458.189,384.48 458.486,384.48 458.784,384.48 459.082,384.48 459.379,384.48 459.677,384.48 459.974,384.48 460.272,384.48 460.57,384.48 460.867,384.48 461.165,384.48 461.462,384.48 461.76,384.48 462.058,384.48 462.355,384.48 462.653,384.48 462.95,384.48 463.248,384.48 463.546,384.48 463.843,384.48 464.141,384.48 464.438,384.48 464.736,384.48 465.034,384.48 465.331,384.48 465.629,384.48 465.926,384.48 466.224,384.48 466.522,384.48 466.819,384.48 467.117,384.48 467.414,384.48 467.712,384.48 468.01,384.48 468.307,384.48 468.605,384.48 468.902,384.48 469.2,384.48 469.498,384.48 469.795,384.48 470.093,384.48 470.39,384.48 470.688,384.48 470.986,384.48 471.283,384.48 471.581,384.48 471.878,384.48 472.176,384.48 472.474,384.48 472.771,384.48 473.069,384.48 473.366,384.48 473.664,384.48 473.962,384.48 474.259,384.48 474.557,384.48 474.854,384.48 475.152,384.48 475.45,384.48 475.747,384.48 476.045,384.48 476.342,384.48 476.64,384.48 476.938,384.48 477.235,384.48 477.533,384.48 477.83,384.48 478.128,384.48 478.426,384.48 478.723,384.48 479.021,384.48 479.318,384.48 479.616,384.48 479.914,384.48 480.211,384.48 480.509,384.48 480.806,384.48 481.104,384.48 481.402,384.48 481.699,384.48 481.997,384.48 482.294,384.48 482.592,384.48 482.89,384.48 483.187,384.48 483.485,384.48 483.782,384.48 484.08,384.48 484.378,384.48 484.675,384.48 484.973,384.48 485.27,384.48 485.568,384.48 485.866,384.48 486.163,384.48 486.461,384.48 486.758,384.48 487.056,384.48 487.354,384.48 487.651,384.48 487.949,384.48 488.246,384.48 488.544,384.48 488.842,384.48 489.139,384.48 489.437,384.48 489.734,384.48 490.032,384.48 490.33,384.48 490.627,384.48 490.925,384.48 491.222,384.48 491.52,384.48 491.818,384.48 492.115,384.48 492.413,384.48 492.71,384.48 493.008,384.48 493.306,384.48 493.603,384.48 493.901,384.48 494.198,384.48 494.496,384.48 494.794,384.48 495.091,384.48 495.389,384.48 495.686,384.48 495.984,384.48 496.282,384.48 496.579,384.48 496.877,384.48 497.174,384.48 497.472,384.48 497.77,384.48 498.067,384.48 498.365,384.48 498.662,384.48 498.96,384.48 499.258,384.48 499.555,384.48 499.853,384.48 500.15,384.48 500.448,384.48 500.746,384.48 501.043,384.48 501.341,384.48 501.638,384.48 501.936,384.48 502.234,384.48 502.531,384.48 502.829,384.48 503.126,384.48 503.424,384.48 503.722,384.48 504.019,384.48 504.317,384.48 504.614,384.48 504.912,384.48 505.21,384.48 505.507,384.48 505.805,384.48 506.102,384.48 506.4,384.48 506.698,384.48 506.995,384.48 507.293,384.48 507.59,384.48 507.888,384.48 508.186,384.48 508.483,384.48 508.781,384.48 509.078,384.48 509.376,384.48 509.674,384.48 509.971,384.48 510.269,384.48 510.566,384.48 510.864,384.48 511.162,384.48 511.459,384.48 511.757,384.48 512.054,384.48 512.352,384.48 512.65,384.48 512.947,384.48 513.245,384.48 513.542,384.48 513.84,384.48 514.138,384.48 514.435,384.48 514.733,384.48 515.03,384.48 515.328,384.48 515.626,384.48 515.923,384.48 516.221,384.48 516.518,384.48 516.816,384.48 517.114,384.48 517.411,384.48 517.709,384.48 518.006,384.48 518.304,384.48 518.602,384.48 518.899,384.48 519.197,384.48 519.494,384.48 519.792,384.48 520.09,384.48 520.387,384.48 520.685,384.48 520.982,384.48 521.28,384.48"/>
<polyline fill="none" stroke="#007f00" stroke-width="0.5" stroke-dasharray="0,4,4,4,4,0" points="74.88,384.48 75.1776,32.4 75.4752,32.4 75.7728,32.4 76.0704,32.4 76.368,32.4 76.6656,32.4 76.9632,32.4 77.2608,32.4 77.5584,32.4 77.856,32.4 78.1536,32.4 78.4512,32.4 78.7488,32.4 79.0464,32.4 79.344,32.4 79.6416,32.4 79.9392,32.4 80.2368,32.4 80.5344,32.4 80.832,32.4 81.1296,32.4 81.4272,32.4 81.7248,32.4 82.0224,32.4 82.32,32.4 82.6176,32.4 82.9152,32.4 83.2128,32.4 83.5104,32.4 83.808,32.4 84.1056,32.4 84.4032,32.4 84.7008,32.4 84.9984,32.4 85.296,32.4 85.5936,32.4 85.8912,32.4 86.1888,32.4 86.4864,32.4 86.784,32.4 87.0816,32.4 87.3792,32.4 87.6768,32.4 87.9744,32.4 88.272,32.4 88.5696,32.4 88.8672,32.4 89.1648,32.4 89.4624,32.4 89.76,32.4 90.0576,32.4 90.3552,32.4 90.6528,32.4 90.9504,32.4 91.248,32.4 91.5456,32.4 91.8432,32.4 92.1408,32.4 92.4384,32.4 92.736,32.4 93.0336,32.4 93.3312,32.4 93.6288,32.4 93.9264,32.4 94.224,32.4 94.5216,32.4 94.8192,32.4 95.1168,32.4 95.4144,32.4 95.712,32.4 96.0096,32.4 96.3072,32.4 96.6048,32.4 96.9024,32.4 97.2,32.4 97.4976,32.4 97.7952,32.4 98.0928,32.4 98.3904,32.4 98.688,32.4 98.9856,32.4 99.2832,32.4 99.5808,32.4 99.8784,32.4 100.176,32.4 100.474,32.4 100.771,32.4 101.069,32.4 101.366,32.4 101.664,32.4 101.962,32.4 102.259,32.4 102.557,32.4 102.854,32.4 103.152,32.4 103.45,32.4 103.747,32.4 104.045,32.4 104.342,32.4 104.64,32.4 104.938,32.4 105.235,32.4 105.533,32.4 105.83,32.4 106.128,32.4 106.426,32.4 106.723,32.4 107.021,32.4 107.318,32.4 107.616,32.4 107.914,32.4 108.211,32.4 108.509,32.4 108.806,32.4 109.104,32.4 109.402,32.4 109.699,32.4 109.997,32.4 110.294,32.4 110.592,32.4 110.89,32.4 111.187,32.4 111.485,32.4 111.782,32.4 112.08,32.4 112.378,32.4 112.675,32.4 112.973,32.4 113.27,32.4 113.568,32.4 113.866,32.4 114.163,32.4 114.461,35.9208 114.758,35.9208 115.056,35.9208 115.354,35.9208 115.651,35.9208 115.949,35.9208 116.246,35.9208 116.544,35.9208 116.842,35.9208 117.139,39.4416 117.437,39.4416 117.734,39.4416 118.032,39.4416 118.33,39.4416 118.627,39.4416 118.925,39.4416 119.222,39.4416 119.52,39.4416 119.818,39.4416 120.115,39.4416 120.413,39.4416 120.71,39.4416 121.008,39.4416 121.306,39.4416 121.603,39.4416 121.901,39.4416 122.198,42.9624 122.496,42.9624 122.794,42.9624 123.091,42.9624 123.389,42.9624 123.686,42.9624 123.984,42.9624 124.282,42.9624 124.579,42.9624 124.877,42.9624 125.174,42.9624 125.472,42.9624 125.77,42.9624 126.067,42.9624 126.365,46.4832 126.662,46.4832 126.96,46.4832 127.258,50.004 127.555,50.004 127.853,50.004 128.15,50.004 128.448,50.004 128.746,53.5248 129.043,53.5248 129.341,53.5248 129.638,53.5248 129.936,53.5248 130.234,53.5248 130.531,53.5248 130.829,53.5248 131.126,53.5248 131.424,53.5248 131.722,53.5248 132.019,57.0456 132.317,57.0456 132.614,57.0456 132.912,57.0456 133.21,57.0456 133.507,60.5664 133.805,60.5664 134.102,64.0872 134.4,64.0872 134.698,64.0872 134.995,67.608 135.293,67.608 135.59,67.608 135.888,67.608 136.186,67.608 136.483,71.1288 136.781,71.1288 137.078,71.1288 137.376,71.1288 137.674,71.1288 137.971,71.1288 138.269,71.1288 138.566,71.1288 138.864,71.1288 139.162,74.6496 139.459,74.6496 139.757,74.6496 140.054,74.6496 140.352,74.6496 140.65,74.6496 140.947,74.6496 141.245,74.6496 141.542,74.6496 141.84,74.6496 142.138,74.6496 142.435,74.6496 142.733,74.6496 143.03,78.1704 143.328,78.1704 143.626,78.1704 143.923,78.1704 144.221,78.1704 144.518,78.1704 144.816,85.212 145.114,85.212 145.411,85.212 145.709,85.212 146.006,85.212 146.304,85.212 146.602,85.212 146.899,85.212 147.197,85.212 147.494,85.212 147.792,85.212 148.09,85.212 148.387,85.212 148.685,85.212 148.982,85.212 149.28,85.212 149.578,85.212 149.875,85.212 150.173,85.212 150.47,88.7328 150.768,88.7328 151.066,92.2536 151.363,92.2536 151.661,92.2536 151.958,92.2536 152.256,92.2536 152.554,92.2536 152.851,92.2536 153.149,95.7744 153.446,95.7744 153.744,99.2952 154.042,102.816 154.339,106.337 154.637,106.337 154.934,106.337 155.232,106.337 155.53,106.337 155.827,106.337 156.125,106.337 156.422,106.337 156.72,109.858 157.018,109.858 157.315,109.858 157.613,113.378 157.91,113.378 158.208,116.899 158.506,116.899 158.803,116.899 159.101,120.42 159.398,127.462 159.696,127.462 159.994,127.462 160.291,127.462 160.589,127.462 160.886,127.462 161.184,127.462 161.482,130.982 161.779,130.982 162.077,130.982 162.374,130.982 162.672,130.982 162.97,130.982 163.267,134.503 163.565,134.503 163.862,134.503 164.16,134.503 164.458,134.503 164.755,134.503 165.053,134.503 165.35,134.503 165.648,134.503 165.946,134.503 166.243,134.503 166.541,134.503 166.838,134.503 167.136,134.503 167.434,138.024 167.731,141.545 168.029,145.066 168.326,148.586 168.624,148.586 168.922,148.586 169.219,148.586 169.517,148.586 169.814,148.586 170.112,148.586 170.41,148.586 170.707,148.586 171.005,148.586 171.302,148.586 171.6,148.586 171.898,148.586 172.195,148.586 172.493,148.586 172.79,148.586 173.088,148.586 173.386,152.107 173.683,152.107 173.981,152.107 174.278,152.107 174.576,155.628 174.874,159.149 175.171,162.67 175.469,162.67 175.766,162.67 176.064,162.67 176.362,162.67 176.659,162.67 176.957,162.67 177.254,162.67 177.552,162.67 177.85,162.67 178.147,162.67 178.445,166.19 178.742,166.19 179.04,166.19 179.338,166.19 179.635,166.19 179.933,169.711 180.23,169.711 180.528,169.711 180.826,169.711 181.123,169.711 181.421,169.711 181.718,169.711 182.016,169.711 182.314,169.711 182.611,169.711 182.909,169.711 183.206,169.711 183.504,169.711 183.802,169.711 184.099,169.711 184.397,169.711 184.694,173.232 184.992,173.232 185.29,176.753 185.587,176.753 185.885,176.753 186.182,176.753 186.48,180.274 186.778,180.274 187.075,180.274 187.373,183.794 187.67,187.315 187.968,187.315 188.266,187.315 188.563,187.315 188.861,187.315 189.158,187.315 189.456,187.315 189.754,187.315 190.051,187.315 190.349,187.315 190.646,194.357 190.944,194.357 191.242,194.357 191.539,194.357 191.837,194.357 192.134,194.357 192.432,194.357 192.73,194.357 193.027,194.357 193.325,194.357 193.622,194.357 193.92,194.357 194.218,197.878 194.515,197.878 194.813,201.398 195.11,201.398 195.408,204.919 195.706,204.919 196.003,208.44 196.301,208.44 196.598,208.44 196.896,208.44 197.194,208.44 197.491,215.482 197.789,215.482 198.086,215.482 198.384,215.482 198.682,215.482 198.979,215.482 199.277,215.482 199.574,215.482 199.872,215.482 200.17,215.482 200.467,215.482 200.765,219.002 201.062,219.002 201.36,219.002 201.658,219.002 201.955,219.002 202.253,219.002 202.55,219.002 202.848,222.523 203.146,226.044 203.443,226.044 203.741,226.044 204.038,233.086 204.336,236.606 204.634,240.127 204.931,240.127 205.229,240.127 205.526,240.127 205.824,243.648 206.122,250.69 206.419,250.69 206.717,250.69 207.014,250.69 207.312,250.69 207.61,254.21 207.907,257.731 208.205,257.731 208.502,261.252 208.8,261.252 209.098,261.252 209.395,268.294 209.693,275.335 209.99,275.335 210.288,278.856 210.586,278.856 210.883,282.377 211.181,285.898 211.478,285.898 211.776,289.418 212.074,296.46 212.371,299.981 212.669,299.981 212.966,303.502 213.264,303.502 213.562,307.022 213.859,307.022 214.157,314.064 214.454,314.064 214.752,314.064 215.05,314.064 215.347,314.064 215.645,314.064 215.942,314.064 216.24,314.064 216.538,314.064 216.835,317.585 217.133,317.585 217.43,321.106 217.728,321.106 218.026,321.106 218.323,321.106 218.621,324.626 218.918,324.626 219.216,324.626 219.514,324.626 219.811,328.147 220.109,328.147 220.406,328.147 220.704,328.147 221.002,328.147 221.299,328.147 221.597,328.147 221.894,328.147 222.192,328.147 222.49,331.668 222.787,331.668 223.085,331.668 223.382,331.668 223.68,331.668 223.978,331.668 224.275,335.189 224.573,335.189 224.87,335.189 225.168,338.71 225.466,338.71 225.763,338.71 226.061,338.71 226.358,338.71 226.656,338.71 226.954,338.71 227.251,338.71 227.549,338.71 227.846,338.71 228.144,338.71 228.442,338.71 228.739,338.71 229.037,338.71 229.334,338.71 229.632,338.71 229.93,338.71 230.227,338.71 230.525,338.71 230.822,338.71 231.12,338.71 231.418,338.71 231.715,338.71 232.013,338.71 232.31,338.71 232.608,338.71 232.906,338.71 233.203,338.71 233.501,338.71 233.798,338.71 234.096,338.71 234.394,338.71 234.691,338.71 234.989,338.71 235.286,338.71 235.584,338.71 235.882,338.71 236.179,338.71 236.477,338.71 236.774,338.71 237.072,338.71 237.37,338.71 237.667,338.71 237.965,338.71 238.262,342.23 238.56,342.23 238.858,342.23 239.155,342.23 239.453,342.23 239.75,342.23 240.048,342.23 240.346,342.23 240.643,342.23 240.941,342.23 241.238,342.23 241.536,342.23 241.834,342.23 242.131,342.23 242.429,342.23 242.726,342.23 243.024,342.23 243.322,342.23 243.619,342.23 243.917,342.23 244.214,342.23 244.512,342.23 244.81,342.23 245.107,342.23 245.405,345.751 245.702,345.751 246,345.751 246.298,345.751 246.595,345.751 246.893,345.751 247.19,345.751 247.488,345.751 247.786,345.751 248.083,345.751 248.381,345.751 248.678,345.751 248.976,345.751 249.274,345.751 249.571,345.751 249.869,345.751 250.166,345.751 250.464,345.751 250.762,345.751 251.059,345.751 251.357,345.751 251.654,345.751 251.952,345.751 252.25,345.751 252.547,345.751 252.845,345.751 253.142,345.751 253.44,345.751 253.738,345.751 254.035,345.751 254.333,345.751 254.63,345.751 254.928,345.751 255.226,345.751 255.523,345.751 255.821,345.751 256.118,345.751 256.416,345.751 256.714,345.751 257.011,345.751 257.309,345.751 257.606,345.751 257.904,345.751 258.202,345.751 258.499,345.751 258.797,345.751 259.094,345.751 259.392,345.751 259.69,345.751 259.987,345.751 260.285,345.751 260.582,345.751 260.88,345.751 261.178,345.751 261.475,345.751 261.773,345.751 262.07,345.751 262.368,345.751 262.666,345.751 262.963,345.751 263.261,345.751 263.558,345.751 263.856,345.751 264.154,345.751 264.451,345.751 264.749,345.751 265.046,345.751 265.344,345.751 265.642,345.751 265.939,345.751 266.237,345.751 266.534,345.751 266.832,345.751 267.13,345.751 267.427,345.751 267.725,345.751 268.022,345.751 268.32,345.751 268.618,345.751 268.915,345.751 269.213,345.751 269.51,345.751 269.808,345.751 270.106,345.751 270.403,345.751 270.701,345.751 270.998,345.751 271.296,345.751 271.594,345.751 271.891,345.751 272.189,345.751 272.486,345.751 272.784,345.751 273.082,345.751 273.379,345.751 273.677,345.751 273.974,345.751 274.272,345.751 274.57,345.751 274.867,345.751 275.165,345.751 275.462,345.751 275.76,345.751 276.058,345.751 276.355,345.751 276.653,345.751 276.95,345.751 277.248,345.751 277.546,345.751 277.843,345.751 278.141,345.751 278.438,345.751 278.736,345.751 279.034,345.751 279.331,345.751 279.629,345.751 279.926,345.751 280.224,345.751 280.522,345.751 280.819,345.751 281.117,345.751 281.414,345.751 281.712,345.751 282.01,345.751 282.307,345.751 282.605,345.751 282.902,345.751 283.2,345.751 283.498,345.751 283.795,345.751 284.093,345.751 284.39,345.751 284.688,345.751 284.986,345.751 285.283,345.751 285.581,345.751 285.878,345.751 286.176,345.751 286.474,345.751 286.771,345.751 287.069,345.751 287.366,345.751 287.664,345.751 287.962,345.751 288.259,345.751 288.557,345.751 288.854,345.751 289.152,345.751 289.45,345.751 289.747,345.751 290.045,345.751 290.342,345.751 290.64,345.751 290.938,345.751 291.235,345.751 291.533,345.751 291.83,345.751 292.128,345.751 292.426,345.751 292.723,345.751 293.021,345.751 293.318,345.751 293.616,345.751 293.914,345.751 294.211,345.751 294.509,345.751 294.806,345.751 295.104,345.751 295.402,345.751 295.699,345.751 295.997,345.751 296.294,345.751 296.592,345.751 296.89,345.751 297.187,345.751 297.485,345.751 297.782,345.751 298.08,345.751 298.378,345.751 298.675,345.751 298.973,345.751 299.27,345.751 299.568,345.751 299.866,345.751 300.163,345.751 300.461,345.751 300.758,345.751 301.056,345.751 301.354,345.751 301.651,345.751 301.949,345.751 302.246,345.751 302.544,345.751 302.842,345.751 303.139,345.751 303.437,345.751 303.734,345.751 304.032,345.751 304.33,345.751 304.627,345.751 304.925,345.751 305.222,345.751 305.52,345.751 305.818,345.751 306.115,345.751 306.413,345.751 306.71,345.751 307.008,345.751 307.306,345.751 307.603,345.751 307.901,345.751 308.198,345.751 308.496,345.751 308.794,345.751 309.091,345.751 309.389,345.751 309.686,345.751 309.984,345.751 310.282,345.751 310.579,345.751 310.877,345.751 311.174,345.751 311.472,345.751 311.77,345.751 312.067,345.751 312.365,345.751 312.662,345.751 312.96,345.751 313.258,345.751 313.555,345.751 313.853,345.751 314.15,345.751 314.448,345.751 314.746,345.751 315.043,345.751 315.341,345.751 315.638,345.751 315.936,345.751 316.234,345.751 316.531,345.751 316.829,345.751 317.126,345.751 317.424,345.751 317.722,345.751 318.019,345.751 318.317,345.751 318.614,345.751 318.912,345.751 319.21,345.751 319.507,345.751 319.805,345.751 320.102,345.751 320.4,345.751 320.698,345.751 320.995,345.751 321.293,345.751 321.59,345.751 321.888,345.751 322.186,345.751 322.483,345.751 322.781,345.751 323.078,345.751 323.376,345.751 323.674,345.751 323.971,345.751 324.269,345.751 324.566,345.751 324.864,345.751 325.162,345.751 325.459,345.751 325.757,345.751 326.054,345.751 326.352,345.751 326.65,345.751 326.947,345.751 327.245,345.751 327.542,345.751 327.84,345.751 328.138,345.751 328.435,345.751 328.733,345.751 329.03,345.751 329.328,345.751 329.626,345.751 329.923,345.751 330.221,345.751 330.518,345.751 330.816,345.751 331.114,345.751 331.411,345.751 331.709,345.751 332.006,345.751 332.304,345.751 332.602,345.751 332.899,345.751 333.197,345.751 333.494,345.751 333.792,345.751 334.09,345.751 334.387,345.751 334.685,345.751 334.982,345.751 335.28,345.751 335.578,345.751 335.875,345.751 336.173,345.751 336.47,345.751 336.768,345.751 337.066,345.751 337.363,345.751 337.661,345.751 337.958,345.751 338.256,345.751 338.554,345.751 338.851,345.751 339.149,345.751 339.446,345.751 339.744,345.751 340.042,345.751 340.339,345.751 340.637,345.751 340.934,345.751 341.232,345.751 341.53,345.751 341.827,345.751 342.125,345.751 342.422,345.751 342.72,345.751 343.018,345.751 343.315,345.751 343.613,345.751 343.91,345.751 344.208,345.751 344.506,345.751 344.803,345.751 345.101,345.751 345.398,345.751 345.696,345.751 345.994,345.751 346.291,345.751 346.589,345.751 346.886,345.751 347.184,345.751 347.482,345.751 347.779,345.751 348.077,345.751 348.374,345.751 348.672,345.751 348.97,345.751 349.267,345.751 349.565,345.751 349.862,345.751 350.16,345.751 350.458,345.751 350.755,345.751 351.053,345.751 351.35,345.751 351.648,345.751 351.946,345.751 352.243,345.751 352.541,345.751 352.838,345.751 353.136,345.751 353.434,345.751 353.731,345.751 354.029,345.751 354.326,345.751 354.624,345.751 354.922,345.751 355.219,345.751 355.517,345.751 355.814,345.751 356.112,345.751 356.41,345.751 356.707,345.751 357.005,345.751 357.302,345.751 357.6,345.751 357.898,345.751 358.195,345.751 358.493,345.751 358.79,345.751 359.088,345.751 359.386,345.751 359.683,345.751 359.981,345.751 360.278,345.751 360.576,345.751 360.874,345.751 361.171,345.751 361.469,345.751 361.766,345.751 362.064,345.751 362.362,345.751 362.659,345.751 362.957,345.751 363.254,345.751 363.552,345.751 363.85,345.751 364.147,345.751 364.445,345.751 364.742,345.751 365.04,345.751 365.338,345.751 365.635,345.751 365.933,345.751 366.23,345.751 366.528,345.751 366.826,345.751 367.123,345.751 367.421,345.751 367.718,345.751 368.016,345.751 368.314,345.751 368.611,345.751 368.909,345.751 369.206,345.751 369.504,345.751 369.802,345.751 370.099,345.751 370.397,345.751 370.694,345.751 370.992,345.751 371.29,345.751 371.587,345.751 371.885,345.751 372.182,345.751 372.48,345.751 372.778,345.751 373.075,345.751 373.373,345.751 373.67,345.751 373.968,345.751 374.266,345.751 374.563,345.751 374.861,345.751 375.158,345.751 375.456,345.751 375.754,345.751 376.051,345.751 376.349,345.751 376.646,345.751 376.944,345.751 377.242,345.751 377.539,345.751 377.837,345.751 378.134,349.272 378.432,349.272 378.73,349.272 379.027,349.272 379.325,349.272 379.622,349.272 379.92,349.272 380.218,349.272 380.515,349.272 380.813,349.272 381.11,349.272 381.408,349.272 381.706,349.272 382.003,349.272 382.301,349.272 382.598,349.272 382.896,349.272 383.194,349.272 383.491,349.272 383.789,349.272 384.086,349.272 384.384,349.272 384.682,349.272 384.979,349.272 385.277,349.272 385.574,349.272 385.872,349.272 386.17,349.272 386.467,349.272 386.765,349.272 387.062,349.272 387.36,349.272 387.658,349.272 387.955,349.272 388.253,349.272 388.55,349.272 388.848,349.272 389.146,349.272 389.443,349.272 389.741,349.272 390.038,349.272 390.336,349.272 390.634,349.272 390.931,349.272 391.229,349.272 391.526,349.272 391.824,349.272 392.122,349.272 392.419,349.272 392.717,349.272 393.014,349.272 393.312,349.272 393.61,349.272 393.907,349.272 394.205,349.272 394.502,349.272 394.8,349.272 395.098,349.272 395.395,349.272 395.693,349.272 395.99,349.272 396.288,349.272 396.586,349.272 396.883,349.272 397.181,349.272 397.478,349.272 397.776,349.272 398.074,349.272 398.371,349.272 398.669,349.272 398.966,349.272 399.264,349.272 399.562,349.272 399.859,349.272 400.157,349.272 400.454,349.272 400.752,349.272 401.05,349.272 401.347,349.272 401.645,349.272 401.942,349.272 402.24,349.272 402.538,349.272 402.835,349.272 403.133,349.272 403.43,349.272 403.728,349.272 404.026,349.272 404.323,349.272 404.621,349.272 404.918,349.272 405.216,349.272 405.514,349.272 405.811,349.272 406.109,349.272 406.406,349.272 406.704,349.272 407.002,349.272 407.299,349.272 407.597,349.272 407.894,349.272 408.192,349.272 408.49,349.272 408.787,349.272 409.085,349.272 409.382,349.272 409.68,349.272 409.978,349.272 410.275,349.272 410.573,349.272 410.87,349.272 411.168,349.272 411.466,349.272 411.763,349.272 412.061,349.272 412.358,349.272 412.656,349.272 412.954,349.272 413.251,349.272 413.549,349.272 413.846,349.272 414.144,349.272 414.442,349.272 414.739,349.272 415.037,349.272 415.334,349.272 415.632,349.272 415.93,349.272 416.227,349.272 416.525,349.272 416.822,349.272 417.12,349.272 417.418,349.272 417.715,349.272 418.013,349.272 418.31,349.272 418.608,349.272 418.906,349.272 419.203,349.272 419.501,349.272 419.798,349.272 420.096,349.272 420.394,349.272 420.691,349.272 420.989,349.272 421.286,349.272 421.584,349.272 421.882,349.272 422.179,349.272 422.477,349.272 422.774,349.272 423.072,349.272 423.37,349.272 423.667,352.793 423.965,352.793 424.262,352.793 424.56,352.793 424.858,352.793 425.155,352.793 425.453,352.793 425.75,352.793 426.048,352.793 426.346,352.793 426.643,352.793 426.941,352.793 427.238,352.793 427.536,352.793 427.834,352.793 428.131,352.793 428.429,352.793 428.726,352.793 429.024,352.793 429.322,352.793 429.619,352.793 429.917,352.793 430.214,352.793 430.512,352.793 430.81,352.793 431.107,352.793 431.405,352.793 431.702,352.793 432,352.793 432.298,352.793 432.595,352.793 432.893,352.793 433.19,352.793 433.488,352.793 433.786,352.793 434.083,352.793 434.381,352.793 434.678,352.793 434.976,352.793 435.274,352.793 435.571,352.793 435.869,352.793 436.166,352.793 436.464,352.793 436.762,352.793 437.059,352.793 437.357,352.793 437.654,352.793 437.952,352.793 438.25,352.793 438.547,352.793 438.845,352.793 439.142,352.793 439.44,352.793 439.738,352.793 440.035,352.793 440.333,352.793 440.63,352.793 440.928,352.793 441.226,352.793 441.523,352.793 441.821,352.793 442.118,352.793 442.416,352.793 442.714,352.793 443.011,352.793 443.309,352.793 443.606,352.793 443.904,352.793 444.202,352.793 444.499,352.793 444.797,352.793 445.094,352.793 445.392,352.793 445.69,352.793 445.987,352.793 446.285,352.793 446.582,352.793 446.88,352.793 447.178,352.793 447.475,352.793 447.773,352.793 448.07,352.793 448.368,352.793 448.666,352.793 448.963,352.793 449.261,352.793 449.558,352.793 449.856,352.793 450.154,352.793 450.451,352.793 450.749,352.793 451.046,352.793 451.344,352.793 451.642,352.793 451.939,352.793 452.237,352.793 452.534,352.793 452.832,352.793 453.13,352.793 453.427,352.793 453.725,352.793 454.022,352.793 454.32,352.793 454.618,352.793 454.915,352.793 455.213,352.793 455.51,352.793 455.808,352.793 456.106,352.793 456.403,352.793 456.701,352.793 456.998,352.793 457.296,352.793 457.594,352.793 457.891,352.793 458.189,352.793 458.486,352.793 458.784,352.793 459.082,352.793 459.379,352.793 459.677,352.793 459.974,352.793 460.272,352.793 460.57,352.793 460.867,352.793 461.165,352.793 461.462,352.793 461.76,352.793 462.058,352.793 462.355,352.793 462.653,352.793 462.95,352.793 463.248,352.793 463.546,352.793 463.843,352.793 464.141,352.793 464.438,352.793 464.736,352.793 465.034,352.793 465.331,352.793 465.629,352.793 465.926,352.793 466.224,352.793 466.522,352.793 466.819,352.793 467.117,352.793 467.414,352.793 467.712,352.793 468.01,352.793 468.307,352.793 468.605,352.793 468.902,352.793 469.2,352.793 469.498,352.793 469.795,352.793 470.093,352.793 470.39,352.793 470.688,352.793 470.986,352.793 471.283,352.793 471.581,352.793 471.878,352.793 472.176,352.793 472.474,352.793 472.771,352.793 473.069,352.793 473.366,352.793 473.664,352.793 473.962,352.793 474.259,352.793 474.557,352.793 474.854,352.793 475.152,352.793 475.45,352.793 475.747,352.793 476.045,352.793 476.342,352.793 476.64,352.793 476.938,352.793 477.235,352.793 477.533,352.793 477.83,352.793 478.128,352.793 478.426,352.793 478.723,352.793 479.021,352.793 479.318,352.793 479.616,352.793 479.914,352.793 480.211,352.793 480.509,352.793 480.806,352.793 481.104,352.793 481.402,352.793 481.699,352.793 481.997,352.793 482.294,352.793 482.592,352.793 482.89,352.793 483.187,352.793 483.485,352.793 483.782,352.793 484.08,352.793 484.378,352.793 484.675,352.793 484.973,352.793 485.27,352.793 485.568,352.793 485.866,352.793 486.163,352.793 486.461,352.793 486.758,352.793 487.056,352.793 487.354,352.793 487.651,352.793 487.949,352.793 488.246,352.793 488.544,352.793 488.842,356.314 489.139,356.314 489.437,356.314 489.734,356.314 490.032,356.314 490.33,356.314 490.627,356.314 490.925,356.314 491.222,356.314 491.52,356.314 491.818,356.314 492.115,356.314 492.413,356.314 492.71,356.314 493.008,356.314 493.306,356.314 493.603,356.314 493.901,356.314 494.198,356.314 494.496,356.314 494.794,356.314 495.091,356.314 495.389,356.314 495.686,359.834 495.984,359.834 496.282,359.834 496.579,359.834 496.877,359.834 497.174,359.834 497.472,359.834 497.77,359.834 498.067,359.834 498.365,359.834 498.662,359.834 498.96,359.834 499.258,359.834 499.555,359.834 499.853,359.834 500.15,359.834 500.448,359.834 500.746,359.834 501.043,359.834 501.341,359.834 501.638,359.834 501.936,359.834 502.234,359.834 502.531,359.834 502.829,359.834 503.126,359.834 503.424,359.834 503.722,359.834 504.019,359.834 504.317,359.834 504.614,359.834 504.912,359.834 505.21,359.834 505.507,359.834 505.805,359.834 506.102,359.834 506.4,359.834 506.698,359.834 506.995,359.834 507.293,359.834 507.59,359.834 507.888,359.834 508.186,359.834 508.483,359.834 508.781,359.834 509.078,359.834 509.376,359.834 509.674,359.834 509.971,359.834 510.269,359.834 510.566,359.834 510.864,359.834 511.162,359.834 511.459,359.834 511.757,359.834 512.054,359.834 512.352,359.834 512.65,359.834 512.947,359.834 513.245,359.834 513.542,359.834 513.84,359.834 514.138,359.834 514.435,359.834 514.733,359.834 515.03,359.834 515.328,359.834 515.626,359.834 515.923,359.834 516.221,359.834 516.518,359.834 516.816,359.834 517.114,359.834 517.411,359.834 517.709,359.834 518.006,359.834 518.304,359.834 518.602,359.834 518.899,359.834 519.197,359.834 519.494,359.834 519.792,359.834 520.09,359.834 520.387,359.834 520.685,359.834 520.982,359.834 521.28,359.834"/>
<polyline fill="none" stroke="#ff0000" stroke-width="0.5" points="74.88,32.4 75.1776,32.4 75.4752,32.4 75.7728,32.4 76.0704,32.4 76.368,32.4 76.6656,32.4 76.9632,32.4 77.2608,32.4 77.5584,32.4 77.856,32.4 78.1536,32.4 78.4512,32.4 78.7488,32.4 79.0464,32.4 79.344,32.4 79.6416,32.4 79.9392,32.4 80.2368,32.4 80.5344,32.4 80.832,32.4 81.1296,32.4 81.4272,32.4 81.7248,32.4 82.0224,32.4 82.32,32.4 82.6176,32.4 82.9152,32.4 83.2128,32.4 83.5104,32.4 83.808,32.4 84.1056,32.4 84.4032,32.4 84.7008,32.4 84.9984,32.4 85.296,32.4 85.5936,32.4 85.8912,32.4 86.1888,32.4 86.4864,32.4 86.784,32.4 87.0816,32.4 87.3792,32.4 87.6768,32.4 87.9744,32.4 88.272,32.4 88.5696,32.4 88.8672,32.4 89.1648,32.4 89.4624,32.4 89.76,32.4 90.0576,32.4 90.3552,32.4 90.6528,32.4 90.9504,32.4 91.248,32.4 91.5456,32.4 91.8432,32.4 92.1408,32.4 92.4384,32.4 92.736,32.4 93.0336,32.4 93.3312,32.4 93.6288,32.4 93.9264,32.4 94.224,32.4 94.5216,32.4 94.8192,32.4 95.1168,32.4 95.4144,32.4 95.712,32.4 96.0096,32.4 96.3072,32.4 96.6048,32.4 96.9024,32.4 97.2,32.4 97.4976,32.4 97.7952,32.4 98.0928,32.4 98.3904,32.4 98.688,32.4 98.9856,32.4 99.2832,32.4 99.5808,32.4 99.8784,32.4 100.176,32.4 100.474,32.4 100.771,32.4 101.069,32.4 101.366,32.4 101.664,32.4 101.962,32.4 102.259,32.4 102.557,32.4 102.854,32.4 103.152,32.4 103.45,32.4 103.747,32.4 104.045,32.4 104.342,32.4 104.64,32.4 104.938,32.4 105.235,32.4 105.533,32.4 105.83,32.4 106.128,32.4 106.426,32.4 106.723,32.4 107.021,32.4 107.318,32.4 107.616,32.4 107.914,32.4 108.211,32.4 108.509,32.4 108.806,32.4 109.104,32.4 109.402,32.4 109.699,32.4 109.997,32.4 110.294,32.4 110.592,32.4 110.89,32.4 111.187,32.4 111.485,32.4 111.782,32.4 112.08,32.4 112.378,32.4 112.675,32.4 112.973,32.4 113.27,32.4 113.568,32.4 113.866,32.4 114.163,32.4 114.461,32.4 114.758,32.4 115.056,32.4 115.354,32.4 115.651,32.4 115.949,32.4 116.246,32.4 116.544,32.4 116.842,32.4 117.139,32.4 117.437,32.4 117.734,32.4 118.032,32.4 118.33,32.4 118.627,32.4 118.925,32.4 119.222,32.4 119.52,32.4 119.818,32.4 120.115,32.4 120.413,32.4 120.71,32.4 121.008,32.4 121.306,32.4 121.603,32.4 121.901,32.4 122.198,32.4 122.496,32.4 122.794,32.4 123.091,32.4 123.389,32.4 123.686,32.4 123.984,32.4 124.282,32.4 124.579,32.4 124.877,32.4 125.174,32.4 125.472,32.4 125.77,32.4 126.067,32.4 126.365,32.4 126.662,32.4 126.96,32.4 127.258,32.4 127.555,32.4 127.853,32.4 128.15,32.4 128.448,32.4 128.746,32.4 129.043,32.4 129.341,32.4 129.638,32.4 129.936,32.4 130.234,32.4 130.531,32.4 130.829,32.4 131.126,32.4 131.424,32.4 131.722,32.4 132.019,32.4 132.317,32.4 132.614,32.4 132.912,32.4 133.21,32.4 133.507,32.4 133.805,32.4 134.102,32.4 134.4,32.4 134.698,32.4 134.995,32.4 135.293,32.4 135.59,32.4 135.888,32.4 136.186,32.4 136.483,32.4 136.781,32.4 137.078,32.4 137.376,32.4 137.674,32.4 137.971,32.4 138.269,32.4 138.566,32.4 138.864,32.4 139.162,32.4 139.459,32.4 139.757,32.4 140.054,32.4 140.352,32.4 140.65,32.4 140.947,32.4 141.245,32.4 141.542,32.4 141.84,32.4 142.138,32.4 142.435,32.4 142.733,32.4 143.03,32.4 143.328,32.4 143.626,32.4 143.923,32.4 144.221,32.4 144.518,32.4 144.816,32.4 145.114,32.4 145.411,32.4 145.709,32.4 146.006,32.4 146.304,32.4 146.602,32.4 146.899,32.4 147.197,32.4 147.494,32.4 147.792,32.4 148.09,32.4 148.387,32.4 148.685,32.4 148.982,32.4 149.28,32.4 149.578,32.4 149.875,32.4 150.173,32.4 150.47,32.4 150.768,32.4 151.066,32.4 151.363,32.4 151.661,32.4 151.958,32.4 152.256,32.4 152.554,32.4 152.851,32.4 153.149,32.4 153.446,32.4 153.744,32.4 154.042,32.4 154.339,32.4 154.637,32.4 154.934,32.4 155.232,32.4 155.53,32.4 155.827,32.4 156.125,32.4 156.422,32.4 156.72,32.4 157.018,32.4 157.315,32.4 157.613,32.4 157.91,32.4 158.208,32.4 158.506,32.4 158.803,32.4 159.101,32.4 159.398,32.4 159.696,32.4 159.994,32.4 160.291,32.4 160.589,32.4 160.886,32.4 161.184,32.4 161.482,32.4 161.779,32.4 162.077,32.4 162.374,32.4 162.672,32.4 162.97,32.4 163.267,32.4 163.565,32.4 163.862,32.4 164.16,32.4 164.458,32.4 164.755,32.4 165.053,32.4 165.35,32.4 165.648,32.4 165.946,32.4 166.243,32.4 166.541,32.4 166.838,32.4 167.136,32.4 167.434,32.4 167.731,32.4 168.029,32.4 168.326,32.4 168.624,32.4 168.922,32.4 169.219,32.4 169.517,32.4 169.814,32.4 170.112,32.4 170.41,32.4 170.707,32.4 171.005,32.4 171.302,32.4 171.6,32.4 171.898,32.4 172.195,32.4 172.493,32.4 172.79,32.4 173.088,32.4 173.386,32.4 173.683,32.4 173.981,32.4 174.278,32.4 174.576,32.4 174.874,32.4 175.171,32.4 175.469,32.4 175.766,32.4 176.064,32.4 176.362,32.4 176.659,32.4 176.957,32.4 177.254,32.4 177.552,32.4 177.85,32.4 178.147,32.4 178.445,32.4 178.742,32.4 179.04,32.4 179.338,32.4 179.635,32.4 179.933,32.4 180.23,32.4 180.528,32.4 180.826,32.4 181.123,32.4 181.421,32.4 181.718,32.4 182.016,32.4 182.314,32.4 182.611,32.4 182.909,32.4 183.206,32.4 183.504,32.4 183.802,32.4 184.099,32.4 184.397,32.4 184.694,32.4 184.992,32.4 185.29,32.4 185.587,32.4 185.885,32.4 186.182,32.4 186.48,32.4 186.778,32.4 187.075,32.4 187.373,32.4 187.67,32.4 187.968,32.4 188.266,32.4 188.563,32.4 188.861,32.4 189.158,32.4 189.456,32.4 189.754,32.4 190.051,32.4 190.349,32.4 190.646,32.4 190.944,32.4 191.242,32.4 191.539,32.4 191.837,32.4 192.134,32.4 192.432,32.4 192.73,32.4 193.027,32.4 193.325,32.4 193.622,32.4 193.92,32.4 194.218,32.4 194.515,32.4 194.813,32.4 195.11,32.4 195.408,32.4 195.706,32.4 196.003,32.4 196.301,32.4 196.598,32.4 196.896,32.4 197.194,32.4 197.491,32.4 197.789,32.4 198.086,32.4 198.384,32.4 198.682,32.4 198.979,32.4 199.277,32.4 199.574,32.4 199.872,32.4 200.17,32.4 200.467,32.4 200.765,32.4 201.062,32.4 201.36,32.4 201.658,32.4 201.955,32.4 202.253,32.4 202.55,32.4 202.848,32.4 203.146,32.4 203.443,32.4 203.741,32.4 204.038,32.4 204.336,32.4 204.634,32.4 204.931,32.4 205.229,32.4 205.526,32.4 205.824,32.4 206.122,32.4 206.419,32.4 206.717,32.4 207.014,32.4 207.312,32.4 207.61,32.4 207.907,32.4 208.205,32.4 208.502,32.4 208.8,32.4 209.098,32.4 209.395,32.4 209.693,32.4 209.99,32.4 210.288,32.4 210.586,32.4 210.883,32.4 211.181,32.4 211.478,32.4 211.776,32.4 212.074,32.4 212.371,32.4 212.669,32.4 212.966,32.4 213.264,32.4 213.562,32.4 213.859,32.4 214.157,32.4 214.454,32.4 214.752,32.4 215.05,32.4 215.347,32.4 215.645,32.4 215.942,32.4 216.24,32.4 216.538,32.4 216.835,32.4 217.133,32.4 217.43,32.4 217.728,32.4 218.026,32.4 218.323,32.4 218.621,32.4 218.918,32.4 219.216,32.4 219.514,32.4 219.811,32.4 220.109,32.4 220.406,32.4 220.704,32.4 221.002,32.4 221.299,32.4 221.597,32.4 221.894,32.4 222.192,32.4 222.49,32.4 222.787,32.4 223.085,32.4 223.382,32.4 223.68,32.4 223.978,32.4 224.275,32.4 224.573,32.4 224.87,32.4 225.168,32.4 225.466,32.4 225.763,32.4 226.061,32.4 226.358,32.4 226.656,32.4 226.954,32.4 227.251,32.4 227.549,32.4 227.846,32.4 228.144,32.4 228.442,32.4 228.739,32.4 229.037,32.4 229.334,32.4 229.632,32.4 229.93,32.4 230.227,32.4 230.525,32.4 230.822,32.4 231.12,32.4 231.418,32.4 231.715,32.4 232.013,32.4 232.31,32.4 232.608,32.4 232.906,32.4 233.203,32.4 233.501,32.4 233.798,32.4 234.096,32.4 234.394,32.4 234.691,32.4 234.989,32.4 235.286,32.4 235.584,32.4 235.882,32.4 236.179,32.4 236.477,32.4 236.774,32.4 237.072,32.4 237.37,32.4 237.667,32.4 237.965,32.4 238.262,32.4 238.56,32.4 238.858,32.4 239.155,32.4 239.453,32.4 239.75,32.4 240.048,32.4 240.346,32.4 240.643,32.4 240.941,32.4 241.238,32.4 241.536,32.4 241.834,32.4 242.131,32.4 242.429,32.4 242.726,32.4 243.024,32.4 243.322,32.4 243.619,32.4 243.917,32.4 244.214,32.4 244.512,32.4 244.81,32.4 245.107,32.4 245.405,32.4 245.702,32.4 246,32.4 246.298,32.4 246.595,32.4 246.893,32.4 247.19,32.4 247.488,32.4 247.786,32.4 248.083,32.4 248.381,32.4 248.678,32.4 248.976,32.4 249.274,32.4 249.571,32.4 249.869,32.4 250.166,32.4 250.464,32.4 250.762,32.4 251.059,32.4 251.357,32.4 251.654,32.4 251.952,32.4 252.25,32.4 252.547,32.4 252.845,32.4 253.142,32.4 253.44,32.4 253.738,32.4 254.035,32.4 254.333,32.4 254.63,32.4 254.928,32.4 255.226,32.4 255.523,32.4 255.821,32.4 256.118,32.4 256.416,32.4 256.714,32.4 257.011,32.4 257.309,32.4 257.606,32.4 257.904,32.4 258.202,32.4 258.499,32.4 258.797,32.4 259.094,32.4 259.392,32.4 259.69,32.4 259.987,32.4 260.285,32.4 260.582,32.4 260.88,32.4 261.178,32.4 261.475,32.4 261.773,32.4 262.07,32.4 262.368,32.4 262.666,32.4 262.963,32.4 263.261,32.4 263.558,32.4 263.856,32.4 264.154,32.4 264.451,32.4 264.749,32.4 265.046,32.4 265.344,32.4 265.642,32.4 265.939,32.4 266.237,32.4 266.534,32.4 266.832,32.4 267.13,32.4 267.427,32.4 267.725,32.4 268.022,32.4 268.32,32.4 268.618,32.4 268.915,32.4 269.213,32.4 269.51,32.4 269.808,32.4 270.106,32.4 270.403,32.4 270.701,32.4 270.998,32.4 271.296,32.4 271.594,32.4 271.891,32.4 272.189,32.4 272.486,32.4 272.784,32.4 273.082,32.4 273.379,32.4 273.677,32.4 273.974,32.4 274.272,35.9208 274.57,35.9208 274.867,35.9208 275.165,35.9208 275.462,35.9208 275.76,35.9208 276.058,35.9208 276.355,35.9208 276.653,35.9208 276.95,35.9208 277.248,35.9208 277.546,35.9208 277.843,35.9208 278.141,35.9208 278.438,35.9208 278.736,35.9208 279.034,35.9208 279.331,35.9208 279.629,35.9208 279.926,35.9208 280.224,35.9208 280.522,35.9208 280.819,35.9208 281.117,35.9208 281.414,35.9208 281.712,35.9208 282.01,35.9208 282.307,35.9208 282.605,35.9208 282.902,35.9208 283.2,35.9208 283.498,35.9208 283.795,35.9208 284.093,35.9208 284.39,35.9208 284.688,35.9208 284.986,35.9208 285.283,35.9208 285.581,35.9208 285.878,35.9208 286.176,35.9208 286.474,35.9208 286.771,35.9208 287.069,35.9208 287.366,35.9208 287.664,35.9208 287.962,35.9208 288.259,35.9208 288.557,35.9208 288.854,35.9208 289.152,35.9208 289.45,35.9208 289.747,35.9208 290.045,35.9208 290.342,35.9208 290.64,35.9208 290.938,35.9208 291.235,35.9208 291.533,35.9208 291.83,35.9208 292.128,35.9208 292.426,35.9208 292.723,35.9208 293.021,35.9208 293.318,35.9208 293.616,35.9208 293.914,35.9208 294.211,35.9208 294.509,35.9208 294.806,35.9208 295.104,35.9208 295.402,35.9208 295.699,35.9208 295.997,35.9208 296.294,35.9208 296.592,35.9208 296.89,35.9208 297.187,35.9208 297.485,35.9208 297.782,35.9208 298.08,35.9208 298.378,35.9208 298.675,35.9208 298.973,35.9208 299.27,35.9208 299.568,35.9208 299.866,35.9208 300.163,35.9208 300.461,35.9208 300.758,35.9208 301.056,35.9208 301.354,35.9208 301.651,35.9208 301.949,35.9208 302.246,35.9208 302.544,35.9208 302.842,39.4416 303.139,39.4416 303.437,39.4416 303.734,39.4416 304.032,39.4416 304.33,39.4416 304.627,39.4416 304.925,39.4416 305.222,39.4416 305.52,39.4416 305.818,39.4416 306.115,39.4416 306.413,39.4416 306.71,39.4416 307.008,39.4416 307.306,39.4416 307.603,39.4416 307.901,39.4416 308.198,39.4416 308.496,39.4416 308.794,39.4416 309.091,39.4416 309.389,39.4416 309.686,39.4416 309.984,39.4416 310.282,39.4416 310.579,39.4416 310.877,39.4416 311.174,39.4416 311.472,39.4416 311.77,39.4416 312.067,42.9624 312.365,42.9624 312.662,42.9624 312.96,42.9624 313.258,42.9624 313.555,42.9624 313.853,42.9624 314.15,42.9624 314.448,42.9624 314.746,42.9624 315.043,42.9624 315.341,42.9624 315.638,42.9624 315.936,42.9624 316.234,42.9624 316.531,42.9624 316.829,42.9624 317.126,42.9624 317.424,42.9624 317.722,42.9624 318.019,42.9624 318.317,42.9624 318.614,42.9624 318.912,42.9624 319.21,42.9624 319.507,42.9624 319.805,42.9624 320.102,42.9624 320.4,42.9624 320.698,42.9624 320.995,42.9624 321.293,42.9624 321.59,46.4832 321.888,46.4832 322.186,46.4832 322.483,46.4832 322.781,46.4832 323.078,46.4832 323.376,46.4832 323.674,46.4832 323.971,46.4832 324.269,46.4832 324.566,46.4832 324.864,46.4832 325.162,46.4832 325.459,46.4832 325.757,46.4832 326.054,46.4832 326.352,46.4832 326.65,46.4832 326.947,46.4832 327.245,50.004 327.542,50.004 327.84,50.004 328.138,50.004 328.435,53.5248 328.733,53.5248 329.03,53.5248 329.328,53.5248 329.626,53.5248 329.923,53.5248 330.221,53.5248 330.518,57.0456 330.816,57.0456 331.114,57.0456 331.411,57.0456 331.709,57.0456 332.006,57.0456 332.304,57.0456 332.602,57.0456 332.899,57.0456 333.197,57.0456 333.494,57.0456 333.792,57.0456 334.09,57.0456 334.387,57.0456 334.685,57.0456 334.982,57.0456 335.28,57.0456 335.578,57.0456 335.875,57.0456 336.173,57.0456 336.47,57.0456 336.768,57.0456 337.066,57.0456 337.363,57.0456 337.661,57.0456 337.958,57.0456 338.256,57.0456 338.554,57.0456 338.851,57.0456 339.149,57.0456 339.446,57.0456 339.744,57.0456 340.042,57.0456 340.339,57.0456 340.637,57.0456 340.934,57.0456 341.232,57.0456 341.53,57.0456 341.827,57.0456 342.125,57.0456 342.422,57.0456 342.72,57.0456 343.018,57.0456 343.315,57.0456 343.613,57.0456 343.91,57.0456 344.208,60.5664 344.506,60.5664 344.803,60.5664 345.101,60.5664 345.398,60.5664 345.696,64.0872 345.994,64.0872 346.291,64.0872 346.589,64.0872 346.886,64.0872 347.184,64.0872 347.482,64.0872 347.779,64.0872 348.077,64.0872 348.374,67.608 348.672,67.608 348.97,67.608 349.267,67.608 349.565,67.608 349.862,67.608 350.16,67.608 350.458,67.608 350.755,71.1288 351.053,71.1288 351.35,74.6496 351.648,74.6496 351.946,74.6496 352.243,74.6496 352.541,74.6496 352.838,74.6496 353.136,74.6496 353.434,74.6496 353.731,74.6496 354.029,74.6496 354.326,74.6496 354.624,74.6496 354.922,74.6496 355.219,74.6496 355.517,78.1704 355.814,78.1704 356.112,78.1704 356.41,78.1704 356.707,81.6912 357.005,81.6912 357.302,81.6912 357.6,81.6912 357.898,81.6912 358.195,81.6912 358.493,85.212 358.79,85.212 359.088,85.212 359.386,88.7328 359.683,88.7328 359.981,88.7328 360.278,88.7328 360.576,88.7328 360.874,88.7328 361.171,88.7328 361.469,88.7328 361.766,88.7328 362.064,88.7328 362.362,95.7744 362.659,95.7744 362.957,95.7744 363.254,95.7744 363.552,95.7744 363.85,95.7744 364.147,95.7744 364.445,95.7744 364.742,95.7744 365.04,99.2952 365.338,102.816 365.635,102.816 365.933,106.337 366.23,106.337 366.528,106.337 366.826,106.337 367.123,106.337 367.421,106.337 367.718,106.337 368.016,106.337 368.314,109.858 368.611,109.858 368.909,109.858 369.206,109.858 369.504,109.858 369.802,109.858 370.099,109.858 370.397,113.378 370.694,113.378 370.992,113.378 371.29,113.378 371.587,113.378 371.885,113.378 372.182,116.899 372.48,116.899 372.778,116.899 373.075,116.899 373.373,116.899 373.67,116.899 373.968,116.899 374.266,116.899 374.563,116.899 374.861,116.899 375.158,116.899 375.456,120.42 375.754,120.42 376.051,123.941 376.349,123.941 376.646,123.941 376.944,123.941 377.242,123.941 377.539,127.462 377.837,134.503 378.134,134.503 378.432,134.503 378.73,141.545 379.027,145.066 379.325,145.066 379.622,148.586 379.92,148.586 380.218,148.586 380.515,148.586 380.813,152.107 381.11,152.107 381.408,152.107 381.706,155.628 382.003,155.628 382.301,159.149 382.598,159.149 382.896,159.149 383.194,159.149 383.491,159.149 383.789,159.149 384.086,159.149 384.384,159.149 384.682,159.149 384.979,159.149 385.277,159.149 385.574,159.149 385.872,162.67 386.17,162.67 386.467,166.19 386.765,166.19 387.062,166.19 387.36,166.19 387.658,166.19 387.955,166.19 388.253,166.19 388.55,166.19 388.848,166.19 389.146,166.19 389.443,166.19 389.741,169.711 390.038,176.753 390.336,176.753 390.634,176.753 390.931,180.274 391.229,183.794 391.526,183.794 391.824,183.794 392.122,187.315 392.419,187.315 392.717,187.315 393.014,187.315 393.312,190.836 393.61,194.357 393.907,194.357 394.205,197.878 394.502,197.878 394.8,197.878 395.098,201.398 395.395,201.398 395.693,204.919 395.99,204.919 396.288,208.44 396.586,208.44 396.883,208.44 397.181,208.44 397.478,208.44 397.776,211.961 398.074,211.961 398.371,211.961 398.669,211.961 398.966,211.961 399.264,211.961 399.562,211.961 399.859,215.482 400.157,215.482 400.454,215.482 400.752,215.482 401.05,215.482 401.347,219.002 401.645,219.002 401.942,219.002 402.24,222.523 402.538,226.044 402.835,226.044 403.133,226.044 403.43,229.565 403.728,240.127 404.026,240.127 404.323,243.648 404.621,243.648 404.918,243.648 405.216,243.648 405.514,243.648 405.811,243.648 406.109,243.648 406.406,243.648 406.704,243.648 407.002,243.648 407.299,243.648 407.597,243.648 407.894,243.648 408.192,243.648 408.49,247.169 408.787,247.169 409.085,247.169 409.382,250.69 409.68,250.69 409.978,250.69 410.275,250.69 410.573,250.69 410.87,250.69 411.168,250.69 411.466,250.69 411.763,250.69 412.061,254.21 412.358,261.252 412.656,261.252 412.954,261.252 413.251,261.252 413.549,264.773 413.846,268.294 414.144,271.814 414.442,271.814 414.739,271.814 415.037,271.814 415.334,275.335 415.632,278.856 415.93,278.856 416.227,278.856 416.525,278.856 416.822,282.377 417.12,282.377 417.418,282.377 417.715,282.377 418.013,282.377 418.31,282.377 418.608,282.377 418.906,282.377 419.203,282.377 419.501,282.377 419.798,285.898 420.096,285.898 420.394,285.898 420.691,285.898 420.989,285.898 421.286,285.898 421.584,285.898 421.882,285.898 422.179,285.898 422.477,289.418 422.774,289.418 423.072,289.418 423.37,289.418 423.667,289.418 423.965,289.418 424.262,289.418 424.56,289.418 424.858,289.418 425.155,289.418 425.453,289.418 425.75,289.418 426.048,289.418 426.346,292.939 426.643,292.939 426.941,292.939 427.238,292.939 427.536,299.981 427.834,299.981 428.131,299.981 428.429,299.981 428.726,299.981 429.024,299.981 429.322,299.981 429.619,303.502 429.917,303.502 430.214,307.022 430.512,307.022 430.81,307.022 431.107,307.022 431.405,307.022 431.702,307.022 432,307.022 432.298,307.022 432.595,307.022 432.893,310.543 433.19,314.064 433.488,314.064 433.786,314.064 434.083,314.064 434.381,317.585 434.678,317.585 434.976,317.585 435.274,317.585 435.571,317.585 435.869,317.585 436.166,317.585 436.464,317.585 436.762,317.585 437.059,317.585 437.357,317.585 437.654,317.585 437.952,317.585 438.25,317.585 438.547,317.585 438.845,317.585 439.142,317.585 439.44,317.585 439.738,317.585 440.035,321.106 440.333,324.626 440.63,328.147 440.928,328.147 441.226,328.147 441.523,328.147 441.821,328.147 442.118,328.147 442.416,328.147 442.714,331.668 443.011,331.668 443.309,331.668 443.606,331.668 443.904,331.668 444.202,331.668 444.499,331.668 444.797,335.189 445.094,335.189 445.392,335.189 445.69,335.189 445.987,335.189 446.285,335.189 446.582,335.189 446.88,335.189 447.178,335.189 447.475,335.189 447.773,335.189 448.07,335.189 448.368,335.189 448.666,335.189 448.963,335.189 449.261,335.189 449.558,335.189 449.856,335.189 450.154,335.189 450.451,335.189 450.749,335.189 451.046,335.189 451.344,338.71 451.642,338.71 451.939,338.71 452.237,338.71 452.534,338.71 452.832,338.71 453.13,338.71 453.427,338.71 453.725,338.71 454.022,338.71 454.32,338.71 454.618,338.71 454.915,338.71 455.213,338.71 455.51,338.71 455.808,338.71 456.106,338.71 456.403,338.71 456.701,338.71 456.998,338.71 457.296,338.71 457.594,338.71 457.891,338.71 458.189,342.23 458.486,342.23 458.784,342.23 459.082,342.23 459.379,342.23 459.677,345.751 459.974,345.751 460.272,345.751 460.57,345.751 460.867,345.751 461.165,345.751 461.462,345.751 461.76,349.272 462.058,349.272 462.355,352.793 462.653,352.793 462.95,352.793 463.248,352.793 463.546,352.793 463.843,352.793 464.141,352.793 464.438,352.793 464.736,352.793 465.034,352.793 465.331,352.793 465.629,352.793 465.926,352.793 466.224,352.793 466.522,352.793 466.819,352.793 467.117,352.793 467.414,352.793 467.712,352.793 468.01,352.793 468.307,352.793 468.605,352.793 468.902,352.793 469.2,352.793 469.498,352.793 469.795,352.793 470.093,352.793 470.39,352.793 470.688,352.793 470.986,352.793 471.283,352.793 471.581,352.793 471.878,352.793 472.176,352.793 472.474,352.793 472.771,352.793 473.069,352.793 473.366,352.793 473.664,352.793 473.962,356.314 474.259,359.834 474.557,359.834 474.854,359.834 475.152,359.834 475.45,359.834 475.747,359.834 476.045,359.834 476.342,359.834 476.64,359.834 476.938,359.834 477.235,359.834 477.533,359.834 477.83,359.834 478.128,359.834 478.426,359.834 478.723,359.834 479.021,363.355 479.318,363.355 479.616,363.355 479.914,363.355 480.211,363.355 480.509,363.355 480.806,363.355 481.104,366.876 481.402,366.876 481.699,366.876 481.997,366.876 482.294,366.876 482.592,366.876 482.89,366.876 483.187,366.876 483.485,366.876 483.782,366.876 484.08,366.876 484.378,366.876 484.675,366.876 484.973,366.876 485.27,366.876 485.568,366.876 485.866,366.876 486.163,366.876 486.461,366.876 486.758,366.876 487.056,366.876 487.354,366.876 487.651,366.876 487.949,366.876 488.246,366.876 488.544,366.876 488.842,366.876 489.139,366.876 489.437,366.876 489.734,366.876 490.032,366.876 490.33,366.876 490.627,366.876 490.925,366.876 491.222,366.876 491.52,366.876 491.818,366.876 492.115,366.876 492.413,366.876 492.71,366.876 493.008,366.876 493.306,366.876 493.603,366.876 493.901,366.876 494.198,366.876 494.496,366.876 494.794,366.876 495.091,370.397 495.389,373.918 495.686,373.918 495.984,373.918 496.282,373.918 496.579,373.918 496.877,373.918 497.174,373.918 497.472,373.918 497.77,373.918 498.067,373.918 498.365,373.918 498.662,373.918 498.96,373.918 499.258,373.918 499.555,373.918 499.853,373.918 500.15,373.918 500.448,373.918 500.746,373.918 501.043,373.918 501.341,373.918 501.638,373.918 501.936,373.918 502.234,373.918 502.531,373.918 502.829,373.918 503.126,373.918 503.424,373.918 503.722,373.918 504.019,373.918 504.317,373.918 504.614,373.918 504.912,373.918 505.21,373.918 505.507,373.918 505.805,373.918 506.102,373.918 506.4,373.918 506.698,373.918 506.995,373.918 507.293,373.918 507.59,373.918 507.888,373.918 508.186,373.918 508.483,373.918 508.781,373.918 509.078,373.918 509.376,373.918 509.674,373.918 509.971,373.918 510.269,373.918 510.566,373.918 510.864,373.918 511.162,373.918 511.459,373.918 511.757,373.918 512.054,373.918 512.352,373.918 512.65,373.918 512.947,373.918 513.245,373.918 513.542,373.918 513.84,373.918 514.138,373.918 514.435,373.918 514.733,373.918 515.03,373.918 515.328,373.918 515.626,373.918 515.923,373.918 516.221,373.918 516.518,373.918 516.816,373.918 517.114,377.438 517.411,377.438 517.709,377.438 518.006,377.438 518.304,377.438 518.602,377.438 518.899,377.438 519.197,377.438 519.494,377.438 519.792,377.438 520.09,377.438 520.387,377.438 520.685,377.438 520.982,377.438 521.28,377.438"/>
<polyline fill="none" stroke="#000000" stroke-width="0.5" stroke-dasharray="16,0" points="388.903,77.3261 518.534,77.3261"/>
<polyline fill="none" stroke="#000000" stroke-width="0.5" stroke-dasharray="16,0" points="388.903,35.1458 518.534,35.1458"/>
<polyline fill="none" stroke="#000000" stroke-width="0.5" stroke-dasharray="16,0" points="388.903,77.3261 388.903,35.1458"/>
<polyline fill="none" stroke="#000000" stroke-width="0.5" stroke-dasharray="16,0" points="518.534,77.3261 518.534,35.1458"/>
<text fill="#000000" x="414.988" y="42.1758" font-size="10" text-anchor="start" baseline-shift="-5" font-family="Helvetica">With sinkhole attack</text>
<text fill="#000000" x="414.988" y="56.236" font-size="10" text-anchor="start" baseline-shift="-5" font-family="Helvetica">Withblackhole attack</text>
<text fill="#000000" x="414.988" y="70.2961" font-size="10" text-anchor="start" baseline-shift="-5" font-family="Helvetica">Without Attack</text>
<polyline fill="none" stroke="#0000ff" stroke-width="0.5" stroke-dasharray="0,4,4,4,4,0" points="391.649,42.1758 412.243,42.1758"/>
<polyline fill="none" stroke="#007f00" stroke-width="0.5" stroke-dasharray="0,4,4,4,4,0" points="391.649,56.236 412.243,56.236"/>
<polyline fill="none" stroke="#ff0000" stroke-width="0.5" points="391.649,70.296 412.243,70.296"/>
<text fill="#000000" x="298.08" y="22.4" font-size="12" text-anchor="middle" baseline-shift="0" font-family="Helvetica">Nodes alive during rounds</text>
</g>
</svg>
