<?xml version="1.0" encoding="UTF-8" standalone="no"?>
<svg xmlns="http://www.w3.org/2000/svg"
     xmlns:xlink="http://www.w3.org/1999/xlink"
     width="576px" height="433px" viewBox="0 0 576 433">
<title>glps_renderer figure</title>
<desc>
Creator: GL2PS 1.3.8, (C) 1999-2012 C. Geuzaine
For: Octave
CreationDate: Sun May 19 00:49:09 2019
</desc>
<defs>
</defs>
<g shape-rendering="crispEdges">
<polygon fill="#ffffff" points="74.88,384.48 521.28,384.48 74.88,32.4"/>
<polygon fill="#ffffff" points="521.28,384.48 521.28,32.4 74.88,32.4"/>
<polygon fill="#ffffff" points="385.818,77.3261 518.534,77.3261 385.818,35.1458"/>
<polygon fill="#ffffff" points="518.534,77.3261 518.534,35.1458 385.818,35.1458"/>
<polyline fill="none" stroke="#000000" stroke-width="0.5" stroke-dasharray="16,0" points="74.88,384.48 521.28,384.48"/>
<polyline fill="none" stroke="#000000" stroke-width="0.5" stroke-dasharray="16,0" points="74.88,32.4 521.28,32.4"/>
<polyline fill="none" stroke="#000000" stroke-width="0.5" stroke-dasharray="16,0" points="74.88,384.48 74.88,32.4"/>
<polyline fill="none" stroke="#000000" stroke-width="0.5" stroke-dasharray="16,0" points="521.28,384.48 521.28,32.4"/>
<polyline fill="none" stroke="#000000" stroke-width="0.5" stroke-dasharray="16,0" points="74.88,384.48 74.88,380.015"/>
<polyline fill="none" stroke="#000000" stroke-width="0.5" stroke-dasharray="16,0" points="74.88,32.4 74.88,36.8651"/>
<polyline fill="none" stroke="#000000" stroke-width="0.5" stroke-dasharray="16,0" points="134.4,384.48 134.4,380.015"/>
<polyline fill="none" stroke="#000000" stroke-width="0.5" stroke-dasharray="16,0" points="134.4,32.4 134.4,36.8651"/>
<polyline fill="none" stroke="#000000" stroke-width="0.5" stroke-dasharray="16,0" points="193.92,384.48 193.92,380.015"/>
<polyline fill="none" stroke="#000000" stroke-width="0.5" stroke-dasharray="16,0" points="193.92,32.4 193.92,36.8651"/>
<polyline fill="none" stroke="#000000" stroke-width="0.5" stroke-dasharray="16,0" points="253.44,384.48 253.44,380.015"/>
<polyline fill="none" stroke="#000000" stroke-width="0.5" stroke-dasharray="16,0" points="253.44,32.4 253.44,36.8651"/>
<polyline fill="none" stroke="#000000" stroke-width="0.5" stroke-dasharray="16,0" points="312.96,384.48 312.96,380.015"/>
<polyline fill="none" stroke="#000000" stroke-width="0.5" stroke-dasharray="16,0" points="312.96,32.4 312.96,36.8651"/>
<polyline fill="none" stroke="#000000" stroke-width="0.5" stroke-dasharray="16,0" points="372.48,384.48 372.48,380.015"/>
<polyline fill="none" stroke="#000000" stroke-width="0.5" stroke-dasharray="16,0" points="372.48,32.4 372.48,36.8651"/>
<polyline fill="none" stroke="#000000" stroke-width="0.5" stroke-dasharray="16,0" points="432,384.48 432,380.015"/>
<polyline fill="none" stroke="#000000" stroke-width="0.5" stroke-dasharray="16,0" points="432,32.4 432,36.8651"/>
<polyline fill="none" stroke="#000000" stroke-width="0.5" stroke-dasharray="16,0" points="491.52,384.48 491.52,380.015"/>
<polyline fill="none" stroke="#000000" stroke-width="0.5" stroke-dasharray="16,0" points="491.52,32.4 491.52,36.8651"/>
<text fill="#000000" x="74.88" y="389.481" font-size="10" text-anchor="middle" baseline-shift="-10" font-family="Helvetica">0</text>
<text fill="#000000" x="134.4" y="389.481" font-size="10" text-anchor="middle" baseline-shift="-10" font-family="Helvetica">200</text>
<text fill="#000000" x="193.92" y="389.481" font-size="10" text-anchor="middle" baseline-shift="-10" font-family="Helvetica">400</text>
<text fill="#000000" x="253.44" y="389.481" font-size="10" text-anchor="middle" baseline-shift="-10" font-family="Helvetica">600</text>
<text fill="#000000" x="312.96" y="389.481" font-size="10" text-anchor="middle" baseline-shift="-10" font-family="Helvetica">800</text>
<text fill="#000000" x="372.48" y="389.481" font-size="10" text-anchor="middle" baseline-shift="-10" font-family="Helvetica">1000</text>
<text fill="#000000" x="432" y="389.481" font-size="10" text-anchor="middle" baseline-shift="-10" font-family="Helvetica">1200</text>
<text fill="#000000" x="491.52" y="389.481" font-size="10" text-anchor="middle" baseline-shift="-10" font-family="Helvetica">1400</text>
<polyline fill="none" stroke="#000000" stroke-width="0.5" stroke-dasharray="16,0" points="74.88,384.48 79.348,384.48"/>
<polyline fill="none" stroke="#000000" stroke-width="0.5" stroke-dasharray="16,0" points="521.28,384.48 516.812,384.48"/>
<polyline fill="none" stroke="#000000" stroke-width="0.5" stroke-dasharray="16,0" points="74.88,314.064 79.348,314.064"/>
<polyline fill="none" stroke="#000000" stroke-width="0.5" stroke-dasharray="16,0" points="521.28,314.064 516.812,314.064"/>
<polyline fill="none" stroke="#000000" stroke-width="0.5" stroke-dasharray="16,0" points="74.88,243.648 79.348,243.648"/>
<polyline fill="none" stroke="#000000" stroke-width="0.5" stroke-dasharray="16,0" points="521.28,243.648 516.812,243.648"/>
<polyline fill="none" stroke="#000000" stroke-width="0.5" stroke-dasharray="16,0" points="74.88,173.232 79.348,173.232"/>
<polyline fill="none" stroke="#000000" stroke-width="0.5" stroke-dasharray="16,0" points="521.28,173.232 516.812,173.232"/>
<polyline fill="none" stroke="#000000" stroke-width="0.5" stroke-dasharray="16,0" points="74.88,102.816 79.348,102.816"/>
<polyline fill="none" stroke="#000000" stroke-width="0.5" stroke-dasharray="16,0" points="521.28,102.816 516.812,102.816"/>
<polyline fill="none" stroke="#000000" stroke-width="0.5" stroke-dasharray="16,0" points="74.88,32.4 79.348,32.4"/>
<polyline fill="none" stroke="#000000" stroke-width="0.5" stroke-dasharray="16,0" points="521.28,32.4 516.812,32.4"/>
<text fill="#000000" x="69.8755" y="384.48" font-size="10" text-anchor="end" baseline-shift="-5" font-family="Helvetica">0</text>
<text fill="#000000" x="69.8755" y="314.064" font-size="10" text-anchor="end" baseline-shift="-5" font-family="Helvetica">10</text>
<text fill="#000000" x="69.8755" y="243.648" font-size="10" text-anchor="end" baseline-shift="-5" font-family="Helvetica">20</text>
<text fill="#000000" x="69.8755" y="173.232" font-size="10" text-anchor="end" baseline-shift="-5" font-family="Helvetica">30</text>
<text fill="#000000" x="69.8755" y="102.816" font-size="10" text-anchor="end" baseline-shift="-5" font-family="Helvetica">40</text>
<text fill="#000000" x="69.8755" y="32.4" font-size="10" text-anchor="end" baseline-shift="-5" font-family="Helvetica">50</text>
<text fill="#000000" x="298.08" y="400.481" font-size="12" text-anchor="middle" baseline-shift="-12" font-family="Helvetica">x (No. of rounds)</text>
<text fill="#000000" x="53.8755" y="208.44" font-size="12" transform="rotate(-90, 53.8755, 208.44)" text-anchor="middle" baseline-shift="0" font-family="Helvetica">y (Residual energy)</text>
<polyline fill="none" stroke="#0000ff" stroke-width="0.5" stroke-dasharray="0,4,4,4,4,0" points="74.88,384.48 75.1776,32.4 75.4752,33.3419 75.7728,35.8556 76.0704,36.4371 76.368,38.2316 76.6656,38.7982 76.9632,39.7437 77.2608,40.4679 77.5584,41.0942 77.856,42.0082 78.1536,42.8369 78.4512,43.4551 78.7488,45.029 79.0464,45.6921 79.344,46.9354 79.6416,47.6701 79.9392,48.347 80.2368,49.2805 80.5344,49.9678 80.832,51.4735 81.1296,52.4845 81.4272,53.2903 81.7248,54.1783 82.0224,54.8452 82.32,55.7643 82.6176,56.3631 82.9152,57.7785 83.2128,58.6729 83.5104,59.7892 83.808,60.5801 84.1056,61.4876 84.4032,62.2751 84.7008,63.1177 84.9984,63.7761 85.296,66.0898 85.5936,66.8514 85.8912,68.2299 86.1888,69.3202 86.4864,70.1432 86.784,70.9508 87.0816,71.9559 87.3792,72.7811 87.6768,73.3368 87.9744,73.8919 88.272,74.5551 88.5696,75.3011 88.8672,76.6507 89.1648,77.3712 89.4624,79.0795 89.76,79.8698 90.0576,81.1943 90.3552,81.9504 90.6528,82.5452 90.9504,85.0034 91.248,85.5849 91.5456,86.7157 91.8432,87.366 92.1408,88.1057 92.4384,88.7054 92.736,89.5676 93.0336,90.1936 93.3312,90.7841 93.6288,92.5102 93.9264,93.7024 94.224,94.8778 94.5216,95.6482 94.8192,96.2595 95.1168,97.495 95.4144,98.4308 95.712,99.1364 96.0096,100.814 96.3072,101.613 96.6048,102.857 96.9024,103.999 97.2,105.49 97.4976,106.074 97.7952,106.976 98.0928,108.093 98.3904,108.945 98.688,109.556 98.9856,110.58 99.2832,112.141 99.5808,112.81 99.8784,113.506 100.176,114.351 100.474,115.034 100.771,115.589 101.069,116.339 101.366,117.285 101.664,117.895 101.962,119.049 102.259,119.786 102.557,120.457 102.854,121.255 103.152,121.931 103.45,122.518 103.747,123.333 104.045,124.639 104.342,125.393 104.64,126.201 104.938,127.134 105.235,127.974 105.533,129.178 105.83,129.793 106.128,130.37 106.426,130.996 106.723,132.856 107.021,133.622 107.318,134.345 107.616,135.818 107.914,137.611 108.211,138.65 108.509,139.338 108.806,140.033 109.104,141.011 109.402,142.016 109.699,142.785 109.997,143.379 110.294,145.566 110.592,146.376 110.89,148.234 111.187,149.046 111.485,149.844 111.782,150.651 112.08,151.333 112.378,152.499 112.675,153.139 112.973,153.688 113.27,154.281 113.568,155.178 113.866,156.13 114.163,157.323 114.461,158.054 114.758,158.716 115.056,159.53 115.354,160.122 115.651,162.016 115.949,163.697 116.246,164.354 116.544,165.076 116.842,165.786 117.139,166.377 117.437,167.019 117.734,167.661 118.032,168.294 118.33,170.073 118.627,170.682 118.925,171.836 119.222,172.926 119.52,173.598 119.818,174.33 120.115,174.955 120.413,175.724 120.71,176.929 121.008,178.573 121.306,179.421 121.603,180.18 121.901,180.94 122.198,182.921 122.496,183.493 122.794,184.222 123.091,184.997 123.389,185.585 123.686,187.486 123.984,188.094 124.282,188.695 124.579,189.769 124.877,191.89 125.174,192.608 125.472,193.766 125.77,194.943 126.067,195.763 126.365,197.114 126.662,197.719 126.96,198.628 127.258,199.486 127.555,200.084 127.853,200.991 128.15,201.783 128.448,203.584 128.746,205.126 129.043,205.788 129.341,206.693 129.638,207.687 129.936,208.428 130.234,209.072 130.531,209.68 130.829,210.37 131.126,211.228 131.424,212.369 131.722,213.193 132.019,213.935 132.317,214.562 132.614,215.387 132.912,216.27 133.21,218.252 133.507,218.9 133.805,220.628 134.102,221.664 134.4,222.891 134.698,224.031 134.995,225.296 135.293,225.941 135.59,228.125 135.888,228.829 136.186,229.599 136.483,230.323 136.781,231.081 137.078,231.918 137.376,233.544 137.674,234.482 137.971,235.098 138.269,235.698 138.566,237.394 138.864,238.295 139.162,240.917 139.459,241.482 139.757,242.465 140.054,243.17 140.352,244.85 140.65,245.743 140.947,246.69 141.245,247.875 141.542,248.665 141.84,249.307 142.138,251.179 142.435,251.71 142.733,252.709 143.03,254.439 143.328,255.088 143.626,256.037 143.923,257.006 144.221,257.604 144.518,258.34 144.816,259.062 145.114,259.72 145.411,260.498 145.709,261.521 146.006,262.34 146.304,263.088 146.602,263.728 146.899,264.519 147.197,265.333 147.494,265.888 147.792,266.822 148.09,267.468 148.387,268.085 148.685,268.752 148.982,269.861 149.28,271.293 149.578,272.115 149.875,272.636 150.173,273.712 150.47,274.321 150.768,275.094 151.066,276.056 151.363,276.915 151.661,277.705 151.958,278.305 152.256,279.174 152.554,279.997 152.851,280.577 153.149,281.733 153.446,282.656 153.744,283.584 154.042,284.784 154.339,285.941 154.637,286.656 154.934,287.225 155.232,287.773 155.53,288.633 155.827,289.255 156.125,290.022 156.422,290.597 156.72,291.117 157.018,292.319 157.315,292.912 157.613,293.883 157.91,294.96 158.208,295.738 158.506,296.455 158.803,297.08 159.101,297.961 159.398,299.326 159.696,299.994 159.994,300.736 160.291,301.648 160.589,302.192 160.886,303.304 161.184,304.347 161.482,305.248 161.779,306.411 162.077,306.966 162.374,307.747 162.672,308.83 162.97,309.349 163.267,310.293 163.565,311.059 163.862,311.602 164.16,312.703 164.458,313.2 164.755,313.994 165.053,314.8 165.35,315.399 165.648,315.908 165.946,316.731 166.243,317.318 166.541,318.106 166.838,318.942 167.136,319.82 167.434,320.494 167.731,321.13 168.029,321.668 168.326,322.791 168.624,323.528 168.922,324.05 169.219,324.986 169.517,325.858 169.814,326.951 170.112,327.722 170.41,328.25 170.707,328.757 171.005,329.539 171.302,330.435 171.6,331.086 171.898,331.727 172.195,332.729 172.493,333.171 172.79,334.36 173.088,334.878 173.386,335.516 173.683,336.189 173.981,336.848 174.278,337.443 174.576,337.915 174.874,338.622 175.171,339.21 175.469,339.861 175.766,340.414 176.064,340.842 176.362,341.618 176.659,342.176 176.957,343.066 177.254,343.595 177.552,344.097 177.85,344.527 178.147,345.136 178.445,345.612 178.742,346.175 179.04,346.769 179.338,347.3 179.635,347.813 179.933,348.277 180.23,348.956 180.528,349.556 180.826,350.368 181.123,351.199 181.421,351.756 181.718,352.226 182.016,352.937 182.314,353.404 182.611,354.142 182.909,354.665 183.206,355.033 183.504,355.561 183.802,356.213 184.099,356.65 184.397,357.098 184.694,357.507 184.992,358.197 185.29,358.703 185.587,359.064 185.885,359.556 186.182,360.038 186.48,360.406 186.778,361.07 187.075,361.458 187.373,361.905 187.67,362.336 187.968,362.724 188.266,363.184 188.563,363.622 188.861,364.043 189.158,364.646 189.456,365.123 189.754,365.837 190.051,366.281 190.349,366.613 190.646,367.076 190.944,367.422 191.242,367.769 191.539,368.374 191.837,368.734 192.134,369.149 192.432,369.834 192.73,370.199 193.027,370.583 193.325,370.923 193.622,371.289 193.92,371.655 194.218,371.972 194.515,372.301 194.813,372.841 195.11,373.287 195.408,373.795 195.706,374.138 196.003,374.48 196.301,374.767 196.598,375.072 196.896,375.444 197.194,375.818 197.491,376.118 197.789,376.452 198.086,376.923 198.384,377.481 198.682,377.865 198.979,378.166 199.277,378.568 199.574,378.88 199.872,379.224 200.17,379.67 200.467,380.096 200.765,380.371 201.062,380.984 201.36,381.355 201.658,381.675 201.955,381.969 202.253,382.492 202.55,382.814 202.848,383.189 203.146,383.46 203.443,383.935 203.741,384.368 204.038,384.683 204.206,384.832"/>
<polyline fill="none" stroke="#007f00" stroke-width="0.5" stroke-dasharray="0,4,4,4,4,0" points="74.88,384.48 75.1776,32.4 75.4752,33.2364 75.7728,35.6299 76.0704,36.1797 76.368,37.68 76.6656,38.2151 76.9632,38.8976 77.2608,39.5478 77.5584,40.1425 77.856,41.1354 78.1536,41.858 78.4512,42.4219 78.7488,43.9324 79.0464,44.5609 79.344,45.7609 79.6416,46.4395 79.9392,47.0842 80.2368,47.6806 80.5344,48.3259 80.832,49.5598 81.1296,50.5169 81.4272,51.2753 81.7248,52.0787 82.0224,52.6639 82.32,54.2162 82.6176,54.7547 82.9152,55.9681 83.2128,56.7724 83.5104,57.7689 83.808,58.6746 84.1056,59.5833 84.4032,60.3393 84.7008,60.8092 84.9984,61.4233 85.296,63.4432 85.5936,64.0814 85.8912,65.332 86.1888,66.3325 86.4864,67.0837 86.784,67.8413 87.0816,68.758 87.3792,69.5066 87.6768,70.0233 87.9744,70.5224 88.272,71.1445 88.5696,71.8498 88.8672,73.0684 89.1648,73.7376 89.4624,75.3152 89.76,75.9753 90.0576,77.1755 90.3552,77.878 90.6528,78.4232 90.9504,80.5639 91.248,81.1064 91.5456,82.1603 91.8432,82.7681 92.1408,83.4111 92.4384,83.9481 92.736,85.4322 93.0336,86.0042 93.3312,86.5599 93.6288,88.2027 93.9264,89.2992 94.224,90.2394 94.5216,90.9772 94.8192,91.5529 95.1168,92.6818 95.4144,93.4192 95.712,94.0649 96.0096,95.3855 96.3072,96.0481 96.6048,96.7224 96.9024,97.8257 97.2,99.2203 97.4976,99.7554 97.7952,100.593 98.0928,101.633 98.3904,102.369 98.688,102.897 98.9856,103.707 99.2832,105.182 99.5808,105.808 99.8784,106.448 100.176,107.238 100.474,107.859 100.771,108.377 101.069,109.022 101.366,109.648 101.664,110.196 101.962,111.275 102.259,111.974 102.557,112.609 102.854,113.267 103.152,114.125 103.45,114.652 103.747,115.41 104.045,116.615 104.342,117.319 104.64,117.877 104.938,118.442 105.235,119.134 105.533,120.326 105.83,120.889 106.128,121.417 106.426,121.97 106.723,123.701 107.021,124.42 107.318,125.074 107.616,126.357 107.914,127.87 108.211,128.814 108.509,129.451 108.806,130.091 109.104,131.027 109.402,131.875 109.699,132.596 109.997,133.161 110.294,135.151 110.592,135.791 110.89,136.942 111.187,137.938 111.485,138.783 111.782,139.451 112.08,140.049 112.378,141.124 112.675,141.716 112.973,142.217 113.27,142.739 113.568,143.534 113.866,144.301 114.163,145.297 114.461,145.993 114.758,146.611 115.056,147.143 115.354,147.668 115.651,149.133 115.949,150.736 116.246,151.369 116.544,152.042 116.842,152.658 117.139,153.185 117.437,154.299 117.734,154.903 118.032,155.481 118.33,157.153 118.627,157.724 118.925,158.788 119.222,159.633 119.52,160.267 119.818,160.917 120.115,161.497 120.413,162.071 120.71,163.203 121.008,164.504 121.306,165.261 121.603,165.883 121.901,166.556 122.198,168.416 122.496,168.953 122.794,169.643 123.091,170.445 123.389,170.97 123.686,172.764 123.984,173.309 124.282,173.839 124.579,174.731 124.877,176.719 125.174,177.361 125.472,178.414 125.77,179.334 126.067,180.04 126.365,181.255 126.662,181.785 126.96,182.64 127.258,183.643 127.555,184.145 127.853,184.769 128.15,185.52 128.448,187.152 128.746,188.381 129.043,188.964 129.341,189.815 129.638,190.484 129.936,191.155 130.234,191.76 130.531,192.315 130.829,192.886 131.126,193.651 131.424,194.692 131.722,195.457 132.019,196.155 132.317,196.739 132.614,197.264 132.912,197.998 133.21,199.821 133.507,200.398 133.805,201.996 134.102,202.889 134.4,204.044 134.698,205.035 134.995,206.023 135.293,206.631 135.59,208.539 135.888,209.142 136.186,209.689 136.483,210.374 136.781,211 137.078,211.8 137.376,213.261 137.674,214.152 137.971,214.705 138.269,215.253 138.566,216.726 138.864,217.533 139.162,218.339 139.459,218.875 139.757,219.642 140.054,220.272 140.352,221.568 140.65,222.385 140.947,223.171 141.245,224.196 141.542,224.9 141.84,225.498 142.138,227.175 142.435,227.641 142.733,228.464 143.03,229.779 143.328,230.314 143.626,231.162 143.923,232.065 144.221,232.554 144.518,233.241 144.816,233.992 145.114,234.52 145.411,235.184 145.709,236.743 146.006,237.304 146.304,238.012 146.602,239.462 146.899,240.089 147.197,240.838 147.494,241.353 147.792,242.264 148.09,242.784 148.387,243.364 148.685,243.941 148.982,245.076 149.28,246.414 149.578,247.15 149.875,247.624 150.173,249.02 150.47,249.572 150.768,250.27 151.066,251.186 151.363,251.949 151.661,252.792 151.958,253.358 152.256,254.175 152.554,254.899 152.851,255.425 153.149,256.56 153.446,257.66 153.744,258.491 154.042,259.533 154.339,260.495 154.637,261.114 154.934,261.618 155.232,262.082 155.53,262.574 155.827,263.093 156.125,263.805 156.422,264.286 156.72,264.744 157.018,265.778 157.315,266.304 157.613,267.155 157.91,268.011 158.208,268.665 158.506,269.31 158.803,269.872 159.101,270.528 159.398,271.796 159.696,272.392 159.994,273.16 160.291,273.839 160.589,274.327 160.886,275.401 161.184,276.353 161.482,277.471 161.779,278.522 162.077,278.974 162.374,279.533 162.672,280.085 162.97,280.554 163.267,281.546 163.565,282.273 163.862,282.716 164.16,283.655 164.458,284.104 164.755,284.64 165.053,285.348 165.35,285.877 165.648,286.327 165.946,287.159 166.243,287.675 166.541,288.393 166.838,289.106 167.136,289.984 167.434,290.53 167.731,291.593 168.029,292.069 168.326,293.109 168.624,293.588 168.922,294.043 169.219,294.68 169.517,295.474 169.814,296.333 170.112,297.012 170.41,297.532 170.707,297.973 171.005,298.435 171.302,299.179 171.6,299.78 171.898,300.382 172.195,301.187 172.493,301.589 172.79,302.315 173.088,302.769 173.386,303.418 173.683,303.958 173.981,304.608 174.278,305.226 174.576,305.664 174.874,306.304 175.171,306.941 175.469,307.512 175.766,308.112 176.064,308.51 176.362,309.061 176.659,309.644 176.957,310.472 177.254,310.917 177.552,311.446 177.85,311.874 178.147,312.419 178.445,313.069 178.742,313.54 179.04,314.174 179.338,314.684 179.635,315.145 179.933,315.58 180.23,315.999 180.528,316.557 180.826,317.371 181.123,318.253 181.421,318.865 181.718,319.287 182.016,320.184 182.314,320.599 182.611,321.424 182.909,321.837 183.206,322.217 183.504,322.785 183.802,323.52 184.099,324.011 184.397,324.489 184.694,324.932 184.992,325.871 185.29,326.331 185.587,326.737 185.885,327.138 186.182,327.834 186.48,328.25 186.778,329.044 187.075,329.484 187.373,330.1 187.67,330.81 187.968,331.205 188.266,331.782 188.563,332.485 188.861,332.896 189.158,333.672 189.456,334.117 189.754,334.91 190.051,335.368 190.349,335.731 190.646,336.158 190.944,336.515 191.242,336.847 191.539,337.551 191.837,337.872 192.134,338.339 192.432,338.868 192.73,339.329 193.027,339.742 193.325,340.17 193.622,340.489 193.92,341.092 194.218,341.413 194.515,341.757 194.813,342.089 195.11,342.474 195.408,343.067 195.706,343.378 196.003,343.698 196.301,343.999 196.598,344.345 196.896,344.839 197.194,345.238 197.491,345.539 197.789,345.829 198.086,346.448 198.384,346.76 198.682,347.134 198.979,347.476 199.277,347.948 199.574,348.222 199.872,348.661 200.17,348.954 200.467,349.266 200.765,349.525 201.062,349.818 201.36,350.117 201.658,350.404 201.955,350.667 202.253,351.26 202.55,351.525 202.848,351.863 203.146,352.113 203.443,352.444 203.741,352.8 204.038,353.063 204.336,353.307 204.634,353.695 204.931,353.983 205.229,354.263 205.526,354.533 205.824,354.763 206.122,354.986 206.419,355.225 206.717,355.493 207.014,355.773 207.312,356.021 207.61,356.278 207.907,356.498 208.205,356.741 208.502,357.021 208.8,357.292 209.098,357.527 209.395,357.741 209.693,358.054 209.99,358.311 210.288,358.543 210.586,358.793 210.883,359.07 211.181,359.284 211.478,359.483 211.776,359.678 212.074,359.873 212.371,360.123 212.669,360.342 212.966,360.553 213.264,360.816 213.562,361.025 213.859,361.233 214.157,361.451 214.454,361.71 214.752,361.938 215.05,362.157 215.347,362.401 215.645,362.678 215.942,362.852 216.24,363.047 216.538,363.226 216.835,363.657 217.133,363.831 217.43,364.034 217.728,364.12 218.026,364.203 218.323,364.415 218.621,364.621 218.918,364.772 219.216,364.917 219.514,365.065 219.811,365.207 220.109,365.351 220.406,365.479 220.704,365.61 221.002,365.76 221.299,365.886 221.597,366.029 221.894,366.15 222.192,366.279 222.49,366.406 222.787,366.526 223.085,366.643 223.382,366.768 223.68,367.048 223.978,367.164 224.275,367.262 224.573,367.367 224.87,367.472 225.168,367.575 225.466,367.661 225.763,367.753 226.061,367.838 226.358,367.9 226.656,367.972 226.954,368.042 227.251,368.107 227.549,368.18 227.846,368.222 228.144,368.232 228.442,368.274 228.739,368.39 229.037,368.436 229.334,368.493 229.632,368.536 229.93,368.544 230.227,368.593 230.525,368.631 230.822,368.682 231.12,368.715 231.418,368.768 231.715,368.81 232.013,368.841 232.31,368.882 232.608,368.923 232.906,368.95 233.203,368.991 233.501,369.022 233.798,369.061 234.096,369.102 234.394,369.105 234.691,369.137 234.989,369.177 235.286,369.211 235.584,369.214 235.882,369.217 236.179,369.256 236.477,369.259 236.774,369.288 237.072,369.32 237.37,369.323 237.667,369.362 237.965,369.398 238.262,369.422 238.56,369.454 238.858,369.496 239.155,369.528 239.453,369.574 239.75,369.605 240.048,369.637 240.346,369.64 240.643,369.67 240.941,369.673 241.238,369.698 241.536,369.701 241.834,369.733 242.131,369.763 242.429,369.812 242.726,369.815 243.024,369.846 243.322,369.849 243.619,369.893 243.917,369.922 244.214,369.925 244.512,369.954 244.81,369.983 245.107,370.017 245.405,370.02 245.702,370.023 246,370.026 246.298,370.057 246.595,370.084 246.893,370.111 247.19,370.114 247.488,370.15 247.786,370.183 248.083,370.213 248.381,370.252 248.678,370.28 248.976,370.308 249.274,370.311 249.571,370.334 249.869,370.337 250.166,370.34 250.464,370.343 250.762,370.346 251.059,370.383 251.357,370.386 251.654,370.416 251.952,370.439 252.25,370.439 252.547,370.457 252.845,370.478 253.142,370.494 253.44,370.515 253.738,370.536 254.035,370.553 254.333,370.573 254.63,370.592 254.928,370.592 255.226,370.613 255.523,370.613 255.821,370.632 256.118,370.632 256.416,370.632 256.714,370.632 257.011,370.648 257.309,370.648 257.606,370.648 257.904,370.666 258.202,370.666 258.499,370.666 258.797,370.685 259.094,370.704 259.392,370.725 259.69,370.745 259.987,370.764 260.285,370.785 260.582,370.806 260.88,370.824 261.178,370.824 261.475,370.843 261.773,370.864 262.07,370.864 262.368,370.864 262.666,370.885 262.963,370.906 263.261,370.924 263.558,370.943 263.856,370.964 264.154,370.964 264.451,370.964 264.749,370.985 265.046,371.003 265.344,371.003 265.642,371.024 265.939,371.043 266.237,371.043 266.534,371.061 266.832,371.082 267.13,371.103 267.427,371.124 267.725,371.124 268.022,371.145 268.32,371.166 268.618,371.187 268.915,371.187 269.213,371.206 269.51,371.224 269.808,371.245 270.106,371.266 270.403,371.266 270.701,371.285 270.998,371.285 271.296,371.305 271.594,371.305 271.891,371.326 272.189,371.347 272.486,371.347 272.784,371.347 273.082,371.368 273.379,371.387 273.677,371.405 273.974,371.424 274.272,371.445 274.57,371.445 274.867,371.466 275.165,371.487 275.462,371.501 275.76,371.501 276.058,371.501 276.355,371.519 276.653,371.54 276.95,371.54 277.248,371.561 277.546,371.561 277.843,371.577 278.141,371.598 278.438,371.598 278.736,371.619 279.034,371.638 279.331,371.638 279.629,371.656 279.926,371.656 280.224,371.677 280.522,371.696 280.819,371.717 281.117,371.738 281.414,371.738 281.712,371.756 282.01,371.756 282.307,371.756 282.605,371.775 282.902,371.775 283.2,371.793 283.498,371.812 283.795,371.831 284.093,371.831 284.39,371.852 284.688,371.872 284.986,371.872 285.283,371.893 285.581,371.91 285.878,371.91 286.176,371.91 286.474,371.91 286.771,371.91 287.069,371.931 287.366,371.949 287.664,371.97 287.962,371.991 288.259,372.012 288.557,372.012 288.854,372.03 289.152,372.049 289.45,372.068 289.747,372.089 290.045,372.107 290.342,372.107 290.64,372.128 290.938,372.149 291.235,372.17 291.533,372.191 291.83,372.191 292.128,372.212 292.426,372.233 292.723,372.247 293.021,372.247 293.318,372.267 293.616,372.288 293.914,372.288 294.211,372.309 294.509,372.33 294.806,372.33 295.104,372.351 295.402,372.372 295.699,372.372 295.997,372.372 296.294,372.391 296.592,372.412 296.89,372.432 297.187,372.453 297.485,372.474 297.782,372.495 298.08,372.514 298.378,372.535 298.675,372.535 298.973,372.553 299.27,372.553 299.568,372.574 299.866,372.595 300.163,372.616 300.461,372.637 300.758,372.637 301.056,372.653 301.354,372.674 301.651,372.69 301.949,372.69 302.246,372.711 302.544,372.711 302.842,372.711 303.139,372.73 303.437,372.73 303.734,372.749 304.032,372.769 304.33,372.79 304.627,372.79 304.925,372.809 305.222,372.828 305.52,372.828 305.818,372.828 306.115,372.828 306.413,372.848 306.71,372.865 307.008,372.886 307.306,372.904 307.603,372.923 307.901,372.923 308.198,372.923 308.496,372.923 308.794,372.944 309.091,372.944 309.389,372.965 309.686,372.979 309.984,372.979 310.282,372.979 310.579,372.997 310.877,373.018 311.174,373.039 311.472,373.039 311.77,373.06 312.067,373.081 312.365,373.102 312.662,373.118 312.96,373.118 313.258,373.139 313.555,373.16 313.853,373.181 314.15,373.181 314.448,373.202 314.746,373.22 315.043,373.22 315.341,373.241 315.638,373.262 315.936,373.281 316.234,373.281 316.531,373.281 316.829,373.281 317.126,373.281 317.424,373.302 317.722,373.32 318.019,373.341 318.317,373.36 318.614,373.376 318.912,373.397 319.21,373.397 319.507,373.397 319.805,373.418 320.102,373.439 320.4,373.46 320.698,373.478 320.995,373.497 321.293,373.497 321.59,373.515 321.888,373.536 322.186,373.536 322.483,373.557 322.781,373.578 323.078,373.599 323.376,373.62 323.674,373.62 323.971,373.641 324.269,373.662 324.566,373.678 324.864,373.699 325.162,373.699 325.459,373.699 325.757,373.72 326.054,373.736 326.352,373.755 326.65,373.776 326.947,373.794 327.245,373.794 327.542,373.815 327.84,373.815 328.138,373.829 328.435,373.829 328.733,373.829 329.03,373.848 329.328,373.869 329.626,373.889 329.923,373.889 330.221,373.91 330.518,373.931 330.816,373.931 331.114,373.948 331.411,373.968 331.709,373.987 332.006,373.987 332.304,373.987 332.602,374.003 332.899,374.003 333.197,374.003 333.494,374.024 333.792,374.024 334.09,374.024 334.387,374.045 334.685,374.066 334.982,374.066 335.28,374.082 335.578,374.082 335.875,374.101 336.173,374.12 336.47,374.14 336.768,374.14 337.066,374.161 337.363,374.161 337.661,374.175 337.958,374.175 338.256,374.194 338.554,374.21 338.851,374.229 339.149,374.229 339.446,374.245 339.744,374.245 340.042,374.261 340.339,374.261 340.637,374.261 340.934,374.28 341.232,374.28 341.53,374.28 341.827,374.294 342.125,374.308 342.422,374.308 342.72,374.308 343.018,374.308 343.315,374.326 343.613,374.345 343.91,374.363 344.208,374.382 344.506,374.401 344.803,374.401 345.101,374.417 345.398,374.417 345.696,374.433 345.994,374.433 346.291,374.452 346.589,374.452 346.886,374.47 347.184,374.489 347.482,374.489 347.779,374.505 348.077,374.505 348.374,374.519 348.672,374.538 348.97,374.538 349.267,374.556 349.565,374.575 349.862,374.589 350.16,374.607 350.458,374.624 350.755,374.624 351.053,374.624 351.35,374.624 351.648,374.642 351.946,374.642 352.243,374.642 352.541,374.642 352.838,374.659 353.136,374.677 353.434,374.677 353.731,374.693 354.029,374.712 354.326,374.731 354.624,374.747 354.922,374.763 355.219,374.763 355.517,374.763 355.814,374.763 356.112,374.782 356.41,374.793 356.707,374.793 357.005,374.812 357.302,374.831 357.6,374.831 357.898,374.831 358.195,374.849 358.493,374.849 358.79,374.849 359.088,374.865 359.386,374.865 359.683,374.884 359.981,374.9 360.278,374.917 360.576,374.935 360.874,374.935 361.171,374.954 361.469,374.954 361.766,374.954 362.064,374.968 362.362,374.986 362.659,374.986 362.957,375.003 363.254,375.021 363.552,375.04 363.85,375.056 364.147,375.075 364.445,375.093 364.742,375.093 365.04,375.112 365.338,375.112 365.635,375.112 365.933,375.128 366.23,375.144 366.528,375.144 366.826,375.163 367.123,375.163 367.421,375.179 367.718,375.198 368.016,375.216 368.314,375.216 368.611,375.233 368.909,375.251 369.206,375.251 369.504,375.27 369.802,375.27 370.099,375.288 370.397,375.307 370.694,375.323 370.992,375.339 371.29,375.356 371.587,375.356 371.885,375.356 372.182,375.356 372.48,375.374 372.778,375.393 373.075,375.411 373.373,375.411 373.67,375.43 373.968,375.43 374.266,375.449 374.563,375.467 374.861,375.486 375.158,375.504 375.456,375.521 375.754,375.521 376.051,375.539 376.349,375.556 376.646,375.572 376.944,375.586 377.242,375.586 377.539,375.586 377.837,375.6 378.134,375.616 378.432,375.632 378.73,375.632 379.027,375.632 379.325,375.648 379.622,375.662 379.92,375.662 380.218,375.679 380.515,375.695 380.813,375.709 381.11,375.725 381.408,375.725 381.706,375.741 382.003,375.741 382.301,375.741 382.598,375.753 382.896,375.769 383.194,375.783 383.491,375.783 383.789,375.783 384.086,375.8 384.384,375.8 384.682,375.8 384.979,375.816 385.277,375.816 385.574,375.83 385.872,375.83 386.17,375.839 386.467,375.839 386.765,375.839 387.062,375.855 387.36,375.855 387.658,375.869 387.955,375.869 388.253,375.881 388.55,375.897 388.848,375.897 389.146,375.913 389.443,375.913 389.741,375.93 390.038,375.93 390.336,375.93 390.634,375.946 390.931,375.96 391.229,375.96 391.526,375.96 391.824,375.971 392.122,375.971 392.419,375.971 392.717,375.971 393.014,375.988 393.312,376.004 393.61,376.004 393.907,376.004 394.205,376.02 394.502,376.037 394.8,376.037 395.098,376.053 395.395,376.069 395.693,376.085 395.99,376.102 396.288,376.116 396.586,376.132 396.883,376.148 397.181,376.148 397.478,376.148 397.776,376.164 398.074,376.181 398.371,376.197 398.669,376.197 398.966,376.211 399.264,376.227 399.562,376.227 399.859,376.243 400.157,376.26 400.454,376.274 400.752,376.274 401.05,376.274 401.347,376.29 401.645,376.29 401.942,376.306 402.24,376.32 402.538,376.334 402.835,376.334 403.133,376.35 403.43,376.364 403.728,376.364 404.026,376.364 404.323,376.38 404.621,376.38 404.918,376.38 405.216,376.394 405.514,376.411 405.811,376.427 406.109,376.441 406.406,376.441 406.704,376.441 407.002,376.441 407.299,376.455 407.597,376.471 407.894,376.471 408.192,376.487 408.49,376.487 408.787,376.501 409.085,376.501 409.382,376.501 409.68,376.501 409.978,376.501 410.275,376.515 410.573,376.532 410.87,376.548 411.168,376.562 411.466,376.578 411.763,376.592 412.061,376.592 412.358,376.592 412.656,376.608 412.954,376.624 413.251,376.624 413.549,376.638 413.846,376.655 414.144,376.655 414.442,376.655 414.739,376.669 415.037,376.669 415.334,376.683 415.632,376.683 415.93,376.683 416.227,376.683 416.525,376.697 416.822,376.71 417.12,376.71 417.418,376.727 417.715,376.743 418.013,376.743 418.31,376.759 418.608,376.776 418.906,376.792 419.203,376.808 419.501,376.808 419.798,376.824 420.096,376.841 420.394,376.841 420.691,376.852 420.989,376.852 421.286,376.868 421.584,376.885 421.882,376.901 422.179,376.901 422.477,376.917 422.774,376.917 423.072,376.934 423.37,376.95 423.667,376.964 423.965,376.964 424.262,376.98 424.56,376.98 424.858,376.98 425.155,376.994 425.453,377.01 425.75,377.026 426.048,377.026 426.346,377.043 426.643,377.059 426.941,377.075 427.238,377.089 427.536,377.089 427.834,377.089 428.131,377.105 428.429,377.122 428.726,377.122 429.024,377.138 429.322,377.138 429.619,377.154 429.917,377.154 430.214,377.171 430.512,377.171 430.81,377.187 431.107,377.201 431.405,377.217 431.702,377.233 432,377.25 432.298,377.266 432.595,377.28 432.893,377.28 433.19,377.28 433.488,377.28 433.786,377.294 434.083,377.294 434.381,377.31 434.678,377.326 434.976,377.343 435.274,377.343 435.571,377.359 435.869,377.375 436.166,377.375 436.464,377.389 436.762,377.403 437.059,377.403 437.357,377.417 437.654,377.417 437.952,377.417 438.25,377.433 438.547,377.449 438.845,377.463 439.142,377.48 439.44,377.48 439.738,377.48 440.035,377.48 440.333,377.494 440.63,377.51 440.928,377.51 441.226,377.526 441.523,377.526 441.821,377.526 442.118,377.526 442.416,377.526 442.714,377.54 443.011,377.556 443.309,377.556 443.606,377.57 443.904,377.584 444.202,377.6 444.499,377.617 444.797,377.617 445.094,377.633 445.392,377.649 445.69,377.666 445.987,377.679 446.285,377.679 446.582,377.696 446.88,377.696 447.178,377.712 447.475,377.712 447.773,377.728 448.07,377.728 448.368,377.745 448.666,377.745 448.963,377.756 449.261,377.756 449.558,377.77 449.856,377.77 450.154,377.786 450.451,377.803 450.749,377.819 451.046,377.819 451.344,377.819 451.642,377.835 451.939,377.849 452.237,377.865 452.534,377.865 452.832,377.882 453.13,377.898 453.427,377.898 453.725,377.914 454.022,377.928 454.32,377.928 454.618,377.928 454.915,377.942 455.213,377.956 455.51,377.956 455.808,377.956 456.106,377.972 456.403,377.989 456.701,378.005 456.998,378.016 457.296,378.016 457.594,378.033 457.891,378.033 458.189,378.033 458.486,378.049 458.784,378.049 459.082,378.065 459.379,378.079 459.677,378.079 459.974,378.095 460.272,378.095 460.57,378.112 460.867,378.128 461.165,378.128 461.462,378.142 461.76,378.142 462.058,378.142 462.355,378.142 462.653,378.158 462.95,378.158 463.248,378.158 463.546,378.174 463.843,378.191 464.141,378.191 464.438,378.205 464.736,378.216 465.034,378.216 465.331,378.232 465.629,378.249 465.926,378.26 466.224,378.26 466.522,378.26 466.819,378.274 467.117,378.288 467.414,378.302 467.712,378.316 468.01,378.316 468.307,378.33 468.605,378.339 468.902,378.339 469.2,378.353 469.498,378.367 469.795,378.367 470.093,378.381 470.39,378.381 470.688,378.381 470.986,378.381 471.283,378.393 471.581,378.407 471.878,378.418 472.176,378.418 472.474,378.418 472.771,378.418 473.069,378.418 473.366,378.432 473.664,378.446 473.962,378.446 474.259,378.456 474.557,378.47 474.854,378.483 475.152,378.483 475.45,378.497 475.747,378.497 476.045,378.511 476.342,378.511 476.64,378.511 476.938,378.511 477.235,378.518 477.533,378.518 477.83,378.518 478.128,378.518 478.426,378.518 478.723,378.532 479.021,378.546 479.318,378.56 479.616,378.56 479.914,378.572 480.211,378.572 480.509,378.586 480.806,378.6 481.104,378.6 481.402,378.614 481.699,378.614 481.997,378.614 482.294,378.628 482.592,378.641 482.89,378.653 483.187,378.653 483.485,378.653 483.782,378.662 484.08,378.676 484.378,378.69 484.675,378.69 484.973,378.69 485.27,378.69 485.568,378.69 485.866,378.704 486.163,378.718 486.461,378.718 486.758,378.732 487.056,378.732 487.354,378.741 487.651,378.741 487.949,378.741 488.246,378.741 488.544,378.755 488.842,378.755 489.139,378.769 489.437,378.769 489.734,378.783 490.032,378.797 490.33,378.811 490.627,378.811 490.925,378.825 491.222,378.839 491.52,378.853 491.818,378.867 492.115,378.881 492.413,378.895 492.71,378.909 493.008,378.909 493.306,378.909 493.603,378.909 493.901,378.909 494.198,378.918 494.496,378.918 494.794,378.918 495.091,378.918 495.389,378.932 495.686,378.944 495.984,378.958 496.282,378.958 496.579,378.969 496.877,378.969 497.174,378.969 497.472,378.983 497.77,378.983 498.067,378.997 498.365,379.011 498.662,379.011 498.96,379.011 499.258,379.011 499.555,379.023 499.853,379.023 500.15,379.023 500.448,379.032 500.746,379.046 501.043,379.06 501.341,379.06 501.638,379.074 501.936,379.085 502.234,379.085 502.531,379.099 502.829,379.113 503.126,379.113 503.424,379.113 503.722,379.127 504.019,379.141 504.317,379.141 504.614,379.141 504.912,379.141 505.21,379.141 505.507,379.153 505.805,379.153 506.102,379.153 506.4,379.162 506.698,379.162 506.995,379.176 507.293,379.188 507.59,379.188 507.888,379.188 508.186,379.188 508.483,379.199 508.781,379.211 509.078,379.211 509.376,379.211 509.674,379.225 509.971,379.239 510.269,379.253 510.566,379.253 510.864,379.253 511.162,379.267 511.459,379.267 511.757,379.281 512.054,379.294 512.352,379.308 512.65,379.322 512.947,379.322 513.245,379.336 513.542,379.336 513.84,379.35 514.138,379.362 514.435,379.362 514.733,379.362 515.03,379.362 515.328,379.373 515.626,379.387 515.923,379.387 516.221,379.399 516.518,379.399 516.816,379.399 517.114,379.413 517.411,379.413 517.709,379.413 518.006,379.427 518.304,379.439 518.602,379.452 518.899,379.452 519.197,379.452 519.494,379.452 519.792,379.466 520.09,379.48 520.387,379.494 520.685,379.508 520.982,379.508 521.28,379.52"/>
<polyline fill="none" stroke="#ff0000" stroke-width="0.5" points="74.88,32.7184 75.1776,33.0462 75.4752,33.369 75.7728,33.7246 76.0704,34.0507 76.368,34.3701 76.6656,34.6899 76.9632,35.0243 77.2608,35.3566 77.5584,35.6865 77.856,35.9919 78.1536,36.3383 78.4512,36.6519 78.7488,37.0145 79.0464,37.3314 79.344,37.692 79.6416,38.0205 79.9392,38.3302 80.2368,38.6555 80.5344,38.9719 80.832,39.3129 81.1296,39.6273 81.4272,39.9405 81.7248,40.2787 82.0224,40.6025 82.32,40.913 82.6176,41.2332 82.9152,41.5929 83.2128,41.9639 83.5104,42.3014 83.808,42.6555 84.1056,42.9992 84.4032,43.3407 84.7008,43.6797 84.9984,43.9915 85.296,44.3125 85.5936,44.6478 85.8912,44.9752 86.1888,45.3168 86.4864,45.6526 86.784,46.0302 87.0816,46.3661 87.3792,46.6893 87.6768,47.0101 87.9744,47.3542 88.272,47.6759 88.5696,47.989 88.8672,48.3198 89.1648,48.6329 89.4624,48.9778 89.76,49.2982 90.0576,49.6121 90.3552,49.9735 90.6528,50.2809 90.9504,50.6015 91.248,50.9389 91.5456,51.2682 91.8432,51.6159 92.1408,51.9466 92.4384,52.2623 92.736,52.6788 93.0336,53.0114 93.3312,53.3426 93.6288,53.6591 93.9264,53.9981 94.224,54.317 94.5216,54.6646 94.8192,54.9995 95.1168,55.2958 95.4144,55.6144 95.712,55.9835 96.0096,56.2921 96.3072,56.6541 96.6048,56.961 96.9024,57.2972 97.2,57.6107 97.4976,57.9412 97.7952,58.2862 98.0928,58.6698 98.3904,59.001 98.688,59.3163 98.9856,59.6456 99.2832,59.977 99.5808,60.2765 99.8784,60.5888 100.176,60.9392 100.474,61.2847 100.771,61.6048 101.069,61.9393 101.366,62.2635 101.664,62.6389 101.962,62.9978 102.259,63.368 102.557,63.6992 102.854,64.0402 103.152,64.3525 103.45,64.6564 103.747,65.0184 104.045,65.3532 104.342,65.6793 104.64,66.0103 104.938,66.3846 105.235,66.6973 105.533,67.039 105.83,67.377 106.128,67.6882 106.426,67.9963 106.723,68.3397 107.021,68.6888 107.318,69.0037 107.616,69.3261 107.914,69.6588 108.211,69.9999 108.509,70.3142 108.806,70.648 109.104,71.0099 109.402,71.3525 109.699,71.6961 109.997,72.0527 110.294,72.3785 110.592,72.699 110.89,73.0272 111.187,73.3577 111.485,73.6842 111.782,74.0109 112.08,74.3294 112.378,74.6347 112.675,74.9435 112.973,75.2709 113.27,75.6087 113.568,75.9396 113.866,76.2449 114.163,76.5743 114.461,76.912 114.758,77.2394 115.056,77.5511 115.354,77.8669 115.651,78.2161 115.949,78.5498 116.246,78.8693 116.544,79.2083 116.842,79.5261 117.139,79.876 117.437,80.1925 117.734,80.5216 118.032,80.8499 118.33,81.1801 118.627,81.504 118.925,81.8303 119.222,82.1766 119.52,82.4986 119.818,82.8191 120.115,83.1633 120.413,83.4887 120.71,83.8053 121.008,84.1276 121.306,84.4687 121.603,84.8307 121.901,85.1858 122.198,85.5407 122.496,85.8459 122.794,86.1566 123.091,86.5067 123.389,86.8439 123.686,87.182 123.984,87.5057 124.282,87.8227 124.579,88.1618 124.877,88.4756 125.174,88.8467 125.472,89.1904 125.77,89.5135 126.067,89.8627 126.365,90.1855 126.662,90.518 126.96,90.8906 127.258,91.2136 127.555,91.5321 127.853,91.8755 128.15,92.2057 128.448,92.5169 128.746,92.8537 129.043,93.1786 129.341,93.5394 129.638,93.8984 129.936,94.2222 130.234,94.5417 130.531,94.8781 130.829,95.1898 131.126,95.5012 131.424,95.8199 131.722,96.1421 132.019,96.4917 132.317,96.8242 132.614,97.1406 132.912,97.4937 133.21,97.8287 133.507,98.1709 133.805,98.493 134.102,98.8362 134.4,99.1527 134.698,99.477 134.995,99.8246 135.293,100.189 135.59,100.517 135.888,100.833 136.186,101.174 136.483,101.499 136.781,101.847 137.078,102.17 137.376,102.485 137.674,102.818 137.971,103.159 138.269,103.503 138.566,103.811 138.864,104.148 139.162,104.485 139.459,104.819 139.757,105.142 140.054,105.473 140.352,105.799 140.65,106.109 140.947,106.435 141.245,106.764 141.542,107.075 141.84,107.406 142.138,107.727 142.435,108.096 142.733,108.407 143.03,108.765 143.328,109.085 143.626,109.416 143.923,109.766 144.221,110.09 144.518,110.423 144.816,110.747 145.114,111.078 145.411,111.401 145.709,111.753 146.006,112.074 146.304,112.381 146.602,112.701 146.899,113.036 147.197,113.369 147.494,113.677 147.792,114.051 148.09,114.381 148.387,114.715 148.685,115.022 148.982,115.347 149.28,115.686 149.578,116.046 149.875,116.372 150.173,116.686 150.47,117.006 150.768,117.376 151.066,117.688 151.363,118.016 151.661,118.326 151.958,118.653 152.256,118.996 152.554,119.3 152.851,119.633 153.149,119.965 153.446,120.298 153.744,120.625 154.042,120.976 154.339,121.303 154.637,121.642 154.934,121.987 155.232,122.331 155.53,122.663 155.827,122.984 156.125,123.302 156.422,123.623 156.72,123.955 157.018,124.26 157.315,124.58 157.613,124.916 157.91,125.248 158.208,125.581 158.506,125.924 158.803,126.245 159.101,126.577 159.398,126.901 159.696,127.247 159.994,127.58 160.291,127.924 160.589,128.251 160.886,128.579 161.184,128.913 161.482,129.246 161.779,129.593 162.077,129.958 162.374,130.283 162.672,130.597 162.97,130.943 163.267,131.307 163.565,131.639 163.862,131.971 164.16,132.352 164.458,132.671 164.755,133.007 165.053,133.339 165.35,133.664 165.648,133.983 165.946,134.298 166.243,134.668 166.541,134.973 166.838,135.297 167.136,135.656 167.434,135.989 167.731,136.333 168.029,136.671 168.326,136.987 168.624,137.314 168.922,137.687 169.219,138.016 169.517,138.324 169.814,138.654 170.112,138.972 170.41,139.326 170.707,139.639 171.005,139.988 171.302,140.317 171.6,140.626 171.898,140.96 172.195,141.303 172.493,141.627 172.79,141.944 173.088,142.259 173.386,142.593 173.683,142.907 173.981,143.237 174.278,143.575 174.576,143.915 174.874,144.247 175.171,144.569 175.469,144.901 175.766,145.222 176.064,145.544 176.362,145.889 176.659,146.214 176.957,146.549 177.254,146.857 177.552,147.225 177.85,147.542 178.147,147.886 178.445,148.19 178.742,148.524 179.04,148.866 179.338,149.191 179.635,149.494 179.933,149.827 180.23,150.16 180.528,150.497 180.826,150.827 181.123,151.135 181.421,151.444 181.718,151.772 182.016,152.093 182.314,152.429 182.611,152.762 182.909,153.073 183.206,153.387 183.504,153.723 183.802,154.07 184.099,154.411 184.397,154.747 184.694,155.065 184.992,155.389 185.29,155.707 185.587,156.031 185.885,156.386 186.182,156.714 186.48,157.051 186.778,157.398 187.075,157.712 187.373,158.055 187.67,158.383 187.968,158.695 188.266,159.03 188.563,159.343 188.861,159.687 189.158,160.023 189.456,160.409 189.754,160.745 190.051,161.059 190.349,161.382 190.646,161.715 190.944,162.074 191.242,162.384 191.539,162.704 191.837,163.026 192.134,163.341 192.432,163.674 192.73,164.003 193.027,164.323 193.325,164.643 193.622,165.001 193.92,165.319 194.218,165.648 194.515,165.969 194.813,166.31 195.11,166.614 195.408,166.944 195.706,167.265 196.003,167.562 196.301,167.895 196.598,168.235 196.896,168.542 197.194,168.883 197.491,169.214 197.789,169.526 198.086,169.847 198.384,170.182 198.682,170.531 198.979,170.879 199.277,171.203 199.574,171.518 199.872,171.863 200.17,172.213 200.467,172.542 200.765,172.894 201.062,173.211 201.36,173.547 201.658,173.879 201.955,174.204 202.253,174.534 202.55,174.861 202.848,175.197 203.146,175.529 203.443,175.853 203.741,176.189 204.038,176.516 204.336,176.854 204.634,177.158 204.931,177.48 205.229,177.854 205.526,178.177 205.824,178.527 206.122,178.871 206.419,179.204 206.717,179.541 207.014,179.866 207.312,180.213 207.61,180.551 207.907,180.878 208.205,181.208 208.502,181.547 208.8,181.895 209.098,182.217 209.395,182.572 209.693,182.887 209.99,183.233 210.288,183.565 210.586,183.897 210.883,184.209 211.181,184.535 211.478,184.877 211.776,185.218 212.074,185.527 212.371,185.859 212.669,186.172 212.966,186.481 213.264,186.795 213.562,187.135 213.859,187.489 214.157,187.821 214.454,188.17 214.752,188.51 215.05,188.854 215.347,189.165 215.645,189.51 215.942,189.82 216.24,190.162 216.538,190.461 216.835,190.8 217.133,191.132 217.43,191.448 217.728,191.767 218.026,192.101 218.323,192.432 218.621,192.754 218.918,193.091 219.216,193.432 219.514,193.8 219.811,194.144 220.109,194.467 220.406,194.806 220.704,195.134 221.002,195.455 221.299,195.786 221.597,196.127 221.894,196.483 222.192,196.819 222.49,197.15 222.787,197.474 223.085,197.815 223.382,198.125 223.68,198.461 223.978,198.768 224.275,199.096 224.573,199.434 224.87,199.754 225.168,200.073 225.466,200.424 225.763,200.756 226.061,201.087 226.358,201.407 226.656,201.786 226.954,202.11 227.251,202.436 227.549,202.753 227.846,203.07 228.144,203.427 228.442,203.744 228.739,204.061 229.037,204.38 229.334,204.716 229.632,205.033 229.93,205.382 230.227,205.705 230.525,206.066 230.822,206.392 231.12,206.708 231.418,207.031 231.715,207.349 232.013,207.687 232.31,208.005 232.608,208.372 232.906,208.694 233.203,209.02 233.501,209.341 233.798,209.67 234.096,210.009 234.394,210.349 234.691,210.665 234.989,210.992 235.286,211.294 235.584,211.645 235.882,211.961 236.179,212.291 236.477,212.619 236.774,212.987 237.072,213.326 237.37,213.657 237.667,214.021 237.965,214.373 238.262,214.706 238.56,215.022 238.858,215.346 239.155,215.681 239.453,216.087 239.75,216.436 240.048,216.771 240.346,217.08 240.643,217.422 240.941,217.75 241.238,218.09 241.536,218.427 241.834,218.763 242.131,219.113 242.429,219.434 242.726,219.75 243.024,220.065 243.322,220.416 243.619,220.756 243.917,221.091 244.214,221.411 244.512,221.733 244.81,222.042 245.107,222.37 245.405,222.685 245.702,223.03 246,223.369 246.298,223.697 246.595,224.011 246.893,224.355 247.19,224.702 247.488,225.033 247.786,225.35 248.083,225.71 248.381,226.027 248.678,226.365 248.976,226.675 249.274,226.981 249.571,227.298 249.869,227.657 250.166,228.022 250.464,228.365 250.762,228.695 251.059,229.018 251.357,229.358 251.654,229.673 251.952,230.02 252.25,230.347 252.547,230.686 252.845,231.011 253.142,231.342 253.44,231.659 253.738,231.98 254.035,232.354 254.333,232.672 254.63,233.001 254.928,233.322 255.226,233.64 255.523,233.976 255.821,234.308 256.118,234.626 256.416,234.962 256.714,235.317 257.011,235.633 257.309,235.956 257.606,236.284 257.904,236.627 258.202,236.958 258.499,237.302 258.797,237.622 259.094,237.957 259.392,238.301 259.69,238.619 259.987,238.971 260.285,239.292 260.582,239.683 260.88,240.025 261.178,240.363 261.475,240.678 261.773,241.022 262.07,241.344 262.368,241.697 262.666,242.047 262.963,242.374 263.261,242.762 263.558,243.086 263.856,243.472 264.154,243.815 264.451,244.146 264.749,244.458 265.046,244.798 265.344,245.116 265.642,245.465 265.939,245.829 266.237,246.16 266.534,246.486 266.832,246.796 267.13,247.144 267.427,247.495 267.725,247.833 268.022,248.192 268.32,248.527 268.618,248.87 268.915,249.205 269.213,249.536 269.51,249.874 269.808,250.181 270.106,250.504 270.403,250.832 270.701,251.157 270.998,251.499 271.296,251.823 271.594,252.136 271.891,252.471 272.189,252.802 272.486,253.134 272.784,253.446 273.082,253.769 273.379,254.113 273.677,254.426 273.974,254.728 274.272,255.049 274.57,255.37 274.867,255.687 275.165,255.986 275.462,256.299 275.76,256.61 276.058,256.915 276.355,257.26 276.653,257.666 276.95,257.974 277.248,258.301 277.546,258.621 277.843,258.953 278.141,259.286 278.438,259.628 278.736,259.979 279.034,260.295 279.331,260.617 279.629,260.932 279.926,261.233 280.224,261.548 280.522,261.858 280.819,262.164 281.117,262.507 281.414,262.805 281.712,263.121 282.01,263.489 282.307,263.827 282.605,264.143 282.902,264.503 283.2,264.892 283.498,265.198 283.795,265.513 284.093,265.832 284.39,266.152 284.688,266.476 284.986,266.798 285.283,267.112 285.581,267.434 285.878,267.755 286.176,268.087 286.474,268.417 286.771,268.729 287.069,269.059 287.366,269.385 287.664,269.69 287.962,270.015 288.259,270.324 288.557,270.679 288.854,270.983 289.152,271.274 289.45,271.601 289.747,271.921 290.045,272.263 290.342,272.63 290.64,272.924 290.938,273.244 291.235,273.581 291.533,273.885 291.83,274.22 292.128,274.576 292.426,274.877 292.723,275.21 293.021,275.529 293.318,275.832 293.616,276.157 293.914,276.473 294.211,276.811 294.509,277.136 294.806,277.48 295.104,277.811 295.402,278.117 295.699,278.417 295.997,278.753 296.294,279.068 296.592,279.388 296.89,279.699 297.187,280.049 297.485,280.375 297.782,280.7 298.08,281.016 298.378,281.365 298.675,281.704 298.973,282.022 299.27,282.345 299.568,282.687 299.866,283.012 300.163,283.309 300.461,283.624 300.758,283.978 301.056,284.29 301.354,284.613 301.651,284.948 301.949,285.271 302.246,285.632 302.544,285.954 302.842,286.258 303.139,286.564 303.437,286.871 303.734,287.198 304.032,287.525 304.33,287.835 304.627,288.156 304.925,288.484 305.222,288.803 305.52,289.113 305.818,289.43 306.115,289.739 306.413,290.049 306.71,290.381 307.008,290.716 307.306,291.033 307.603,291.344 307.901,291.68 308.198,292.02 308.496,292.346 308.794,292.67 309.091,292.974 309.389,293.299 309.686,293.604 309.984,293.943 310.282,294.25 310.579,294.559 310.877,294.879 311.174,295.174 311.472,295.496 311.77,295.818 312.067,296.151 312.365,296.449 312.662,296.762 312.96,297.068 313.258,297.369 313.555,297.691 313.853,297.995 314.15,298.337 314.448,298.656 314.746,298.968 315.043,299.287 315.341,299.598 315.638,299.914 315.936,300.221 316.234,300.532 316.531,300.836 316.829,301.135 317.126,301.466 317.424,301.782 317.722,302.116 318.019,302.431 318.317,302.743 318.614,303.044 318.912,303.361 319.21,303.659 319.507,303.958 319.805,304.28 320.102,304.599 320.4,304.94 320.698,305.243 320.995,305.545 321.293,305.847 321.59,306.159 321.888,306.474 322.186,306.782 322.483,307.093 322.781,307.4 323.078,307.711 323.376,308.026 323.674,308.314 323.971,308.617 324.269,308.935 324.566,309.234 324.864,309.531 325.162,309.841 325.459,310.182 325.757,310.472 326.054,310.77 326.352,311.14 326.65,311.483 326.947,311.785 327.245,312.099 327.542,312.41 327.84,312.705 328.138,313.047 328.435,313.32 328.733,313.64 329.03,313.937 329.328,314.225 329.626,314.51 329.923,314.809 330.221,315.098 330.518,315.407 330.816,315.712 331.114,316.005 331.411,316.301 331.709,316.596 332.006,316.887 332.304,317.203 332.602,317.495 332.899,317.79 333.197,318.087 333.494,318.364 333.792,318.65 334.09,318.94 334.387,319.273 334.685,319.582 334.982,319.879 335.28,320.16 335.578,320.464 335.875,320.759 336.173,321.067 336.47,321.375 336.768,321.672 337.066,321.965 337.363,322.253 337.661,322.534 337.958,322.824 338.256,323.119 338.554,323.402 338.851,323.707 339.149,324.016 339.446,324.316 339.744,324.616 340.042,324.922 340.339,325.209 340.637,325.504 340.934,325.794 341.232,326.091 341.53,326.381 341.827,326.674 342.125,326.97 342.422,327.273 342.72,327.604 343.018,327.909 343.315,328.2 343.613,328.528 343.91,328.818 344.208,329.112 344.506,329.402 344.803,329.672 345.101,329.96 345.398,330.249 345.696,330.539 345.994,330.822 346.291,331.094 346.589,331.374 346.886,331.665 347.184,331.963 347.482,332.295 347.779,332.579 348.077,332.859 348.374,333.179 348.672,333.45 348.97,333.742 349.267,334.05 349.565,334.323 349.862,334.597 350.16,334.889 350.458,335.175 350.755,335.449 351.053,335.728 351.35,336.04 351.648,336.322 351.946,336.612 352.243,336.906 352.541,337.168 352.838,337.449 353.136,337.721 353.434,337.998 353.731,338.32 354.029,338.599 354.326,338.867 354.624,339.136 354.922,339.413 355.219,339.702 355.517,339.986 355.814,340.254 356.112,340.521 356.41,340.773 356.707,341.034 357.005,341.34 357.302,341.603 357.6,341.866 357.898,342.12 358.195,342.382 358.493,342.631 358.79,342.892 359.088,343.167 359.386,343.45 359.683,343.701 359.981,343.978 360.278,344.242 360.576,344.495 360.874,344.758 361.171,345.027 361.469,345.3 361.766,345.549 362.064,345.827 362.362,346.073 362.659,346.315 362.957,346.557 363.254,346.822 363.552,347.075 363.85,347.319 364.147,347.61 364.445,347.844 364.742,348.099 365.04,348.345 365.338,348.585 365.635,348.833 365.933,349.078 366.23,349.322 366.528,349.57 366.826,349.814 367.123,350.04 367.421,350.269 367.718,350.512 368.016,350.759 368.314,351.012 368.611,351.237 368.909,351.487 369.206,351.719 369.504,351.942 369.802,352.169 370.099,352.411 370.397,352.634 370.694,352.858 370.992,353.081 371.29,353.323 371.587,353.559 371.885,353.796 372.182,354.043 372.48,354.289 372.778,354.526 373.075,354.746 373.373,354.975 373.67,355.21 373.968,355.439 374.266,355.664 374.563,355.902 374.861,356.134 375.158,356.378 375.456,356.615 375.754,356.842 376.051,357.065 376.349,357.285 376.646,357.506 376.944,357.727 377.242,357.934 377.539,358.137 377.837,358.365 378.134,358.58 378.432,358.779 378.73,358.991 379.027,359.178 379.325,359.391 379.622,359.583 379.92,359.779 380.218,359.979 380.515,360.19 380.813,360.398 381.11,360.587 381.408,360.756 381.706,360.941 382.003,361.136 382.301,361.322 382.598,361.515 382.896,361.715 383.194,361.901 383.491,362.1 383.789,362.267 384.086,362.457 384.384,362.653 384.682,362.851 384.979,363.036 385.277,363.23 385.574,363.425 385.872,363.608 386.17,363.803 386.467,363.991 386.765,364.176 387.062,364.358 387.36,364.546 387.658,364.728 387.955,364.918 388.253,365.107 388.55,365.294 388.848,365.491 389.146,365.661 389.443,365.83 389.741,366.021 390.038,366.186 390.336,366.372 390.634,366.542 390.931,366.705 391.229,366.88 391.526,367.045 391.824,367.193 392.122,367.353 392.419,367.511 392.717,367.655 393.014,367.817 393.312,367.95 393.61,368.1 393.907,368.244 394.205,368.391 394.502,368.543 394.8,368.696 395.098,368.85 395.395,369.005 395.693,369.136 395.99,369.276 396.288,369.398 396.586,369.54 396.883,369.693 397.181,369.827 397.478,369.981 397.776,370.124 398.074,370.261 398.371,370.388 398.669,370.53 398.966,370.675 399.264,370.788 399.562,370.914 399.859,371.05 400.157,371.189 400.454,371.309 400.752,371.438 401.05,371.57 401.347,371.698 401.645,371.824 401.942,371.938 402.24,372.074 402.538,372.206 402.835,372.33 403.133,372.449 403.43,372.548 403.728,372.669 404.026,372.768 404.323,372.866 404.621,372.973 404.918,373.069 405.216,373.162 405.514,373.273 405.811,373.367 406.109,373.484 406.406,373.597 406.704,373.701 407.002,373.802 407.299,373.912 407.597,374.024 407.894,374.128 408.192,374.221 408.49,374.318 408.787,374.422 409.085,374.506 409.382,374.604 409.68,374.702 409.978,374.812 410.275,374.918 410.573,375.008 410.87,375.1 411.168,375.208 411.466,375.317 411.763,375.421 412.061,375.53 412.358,375.608 412.656,375.713 412.954,375.789 413.251,375.874 413.549,375.938 413.846,376.019 414.144,376.088 414.442,376.171 414.739,376.25 415.037,376.324 415.334,376.406 415.632,376.473 415.93,376.551 416.227,376.627 416.525,376.694 416.822,376.749 417.12,376.818 417.418,376.885 417.715,376.946 418.013,377.024 418.31,377.093 418.608,377.158 418.906,377.226 419.203,377.302 419.501,377.377 419.798,377.442 420.096,377.504 420.394,377.566 420.691,377.642 420.989,377.707 421.286,377.773 421.584,377.841 421.882,377.899 422.179,377.947 422.477,378.012 422.774,378.074 423.072,378.129 423.37,378.188 423.667,378.243 423.965,378.294 424.262,378.363 424.56,378.425 424.858,378.492 425.155,378.54 425.453,378.601 425.75,378.672 426.048,378.728 426.346,378.777 426.643,378.841 426.941,378.899 427.238,378.944 427.536,379.008 427.834,379.06 428.131,379.111 428.429,379.176 428.726,379.226 429.024,379.276 429.322,379.332 429.619,379.383 429.917,379.432 430.214,379.486 430.512,379.536 430.81,379.588 431.107,379.634 431.405,379.689 431.702,379.748 432,379.786 432.298,379.824 432.595,379.874 432.893,379.91 433.19,379.963 433.488,380.006 433.786,380.047 434.083,380.095 434.381,380.128 434.678,380.174 434.976,380.217 435.274,380.262 435.571,380.298 435.869,380.331 436.166,380.371 436.464,380.403 436.762,380.444 437.059,380.491 437.357,380.535 437.654,380.579 437.952,380.617 438.25,380.661 438.547,380.702 438.845,380.75 439.142,380.796 439.44,380.828 439.738,380.872 440.035,380.904 440.333,380.936 440.63,380.965 440.928,380.996 441.226,381.028 441.523,381.063 441.821,381.089 442.118,381.124 442.416,381.157 442.714,381.185 443.011,381.219 443.309,381.243 443.606,381.273 443.904,381.297 444.202,381.322 444.499,381.347 444.797,381.375 445.094,381.398 445.392,381.431 445.69,381.465 445.987,381.487 446.285,381.516 446.582,381.544 446.88,381.569 447.178,381.595 447.475,381.62 447.773,381.649 448.07,381.683 448.368,381.709 448.666,381.733 448.963,381.755 449.261,381.781 449.558,381.815 449.856,381.85 450.154,381.878 450.451,381.9 450.749,381.931 451.046,381.952 451.344,381.981 451.642,382.002 451.939,382.034 452.237,382.056 452.534,382.075 452.832,382.104 453.13,382.129 453.427,382.149 453.725,382.179 454.022,382.204 454.32,382.223 454.618,382.243 454.915,382.274 455.213,382.294 455.51,382.316 455.808,382.343 456.106,382.365 456.403,382.385 456.701,382.41 456.998,382.433 457.296,382.453 457.594,382.481 457.891,382.501 458.189,382.519 458.486,382.542 458.784,382.565 459.082,382.587 459.379,382.609 459.677,382.632 459.974,382.652 460.272,382.669 460.57,382.688 460.867,382.708 461.165,382.725 461.462,382.747 461.76,382.762 462.058,382.782 462.355,382.796 462.653,382.814 462.95,382.828 463.248,382.844 463.546,382.858 463.843,382.878 464.141,382.891 464.438,382.905 464.736,382.918 465.034,382.937 465.331,382.95 465.629,382.964 465.926,382.977 466.224,382.993 466.522,383.009 466.819,383.024 467.117,383.043 467.414,383.056 467.712,383.071 468.01,383.088 468.307,383.101 468.605,383.117 468.902,383.135 469.2,383.148 469.498,383.167 469.795,383.182 470.093,383.195 470.39,383.21 470.688,383.226 470.986,383.239 471.283,383.253 471.581,383.269 471.878,383.283 472.176,383.301 472.474,383.321 472.771,383.338 473.069,383.351 473.366,383.366 473.664,383.38 473.962,383.392 474.259,383.402 474.557,383.416 474.854,383.426 475.152,383.437 475.45,383.452 475.747,383.464 476.045,383.476 476.342,383.488 476.64,383.498 476.938,383.51 477.235,383.522 477.533,383.532 477.83,383.543 478.128,383.553 478.426,383.563 478.723,383.577 479.021,383.589 479.318,383.6 479.616,383.608 479.914,383.617 480.211,383.628 480.509,383.636 480.806,383.644 481.104,383.651 481.402,383.662 481.699,383.669 481.997,383.677 482.294,383.685 482.592,383.693 482.89,383.7 483.187,383.707 483.485,383.715 483.782,383.723 484.08,383.731 484.378,383.741 484.675,383.749 484.973,383.756 485.27,383.763 485.568,383.771 485.866,383.778 486.163,383.785 486.461,383.794 486.758,383.801 487.056,383.809 487.354,383.816 487.651,383.823 487.949,383.831 488.246,383.84 488.544,383.847 488.842,383.854 489.139,383.861 489.437,383.869 489.734,383.876 490.032,383.883 490.33,383.894 490.627,383.903 490.925,383.91 491.222,383.917 491.52,383.925 491.818,383.932 492.115,383.939 492.413,383.95 492.71,383.957 493.008,383.965 493.306,383.972 493.603,383.979 493.901,383.986 494.198,383.994 494.496,384.001 494.794,384.008 495.091,384.013 495.389,384.018 495.686,384.022 495.984,384.027 496.282,384.031 496.579,384.035 496.877,384.04 497.174,384.044 497.472,384.048 497.77,384.053 498.067,384.057 498.365,384.061 498.662,384.065 498.96,384.071 499.258,384.076 499.555,384.08 499.853,384.084 500.15,384.089 500.448,384.093 500.746,384.099 501.043,384.103 501.341,384.107 501.638,384.112 501.936,384.116 502.234,384.12 502.531,384.125 502.829,384.129 503.126,384.133 503.424,384.138 503.722,384.142 504.019,384.146 504.317,384.15 504.614,384.156 504.912,384.161 505.21,384.165 505.507,384.169 505.805,384.174 506.102,384.178 506.4,384.182 506.698,384.187 506.995,384.191 507.293,384.195 507.59,384.2 507.888,384.206 508.186,384.21 508.483,384.214 508.781,384.219 509.078,384.223 509.376,384.227 509.674,384.231 509.971,384.236 510.269,384.24 510.566,384.246 510.864,384.25 511.162,384.255 511.459,384.259 511.757,384.263 512.054,384.268 512.352,384.272 512.65,384.276 512.947,384.28 513.245,384.285 513.542,384.289 513.84,384.294 514.138,384.298 514.435,384.302 514.733,384.306 515.03,384.311 515.328,384.315 515.626,384.321 515.923,384.326 516.221,384.33 516.518,384.334 516.816,384.338 517.114,384.341 517.411,384.343 517.709,384.346 518.006,384.349 518.304,384.352 518.602,384.355 518.899,384.358 519.197,384.361 519.494,384.364 519.792,384.367 520.09,384.369 520.387,384.372 520.685,384.375 520.982,384.378 521.28,384.381"/>
<polyline fill="none" stroke="#000000" stroke-width="0.5" stroke-dasharray="16,0" points="385.818,77.3261 518.534,77.3261"/>
<polyline fill="none" stroke="#000000" stroke-width="0.5" stroke-dasharray="16,0" points="385.818,35.1458 518.534,35.1458"/>
<polyline fill="none" stroke="#000000" stroke-width="0.5" stroke-dasharray="16,0" points="385.818,77.3261 385.818,35.1458"/>
<polyline fill="none" stroke="#000000" stroke-width="0.5" stroke-dasharray="16,0" points="518.534,77.3261 518.534,35.1458"/>
<text fill="#000000" x="411.903" y="42.1758" font-size="10" text-anchor="start" baseline-shift="-5" font-family="Helvetica">With sinkhole attack</text>
<text fill="#000000" x="411.903" y="56.236" font-size="10" text-anchor="start" baseline-shift="-5" font-family="Helvetica">With blackhole attack</text>
<text fill="#000000" x="411.903" y="70.2961" font-size="10" text-anchor="start" baseline-shift="-5" font-family="Helvetica">Without attack</text>
<polyline fill="none" stroke="#0000ff" stroke-width="0.5" stroke-dasharray="0,4,4,4,4,0" points="388.563,42.1758 409.157,42.1758"/>
<polyline fill="none" stroke="#007f00" stroke-width="0.5" stroke-dasharray="0,4,4,4,4,0" points="388.563,56.236 409.157,56.236"/>
<polyline fill="none" stroke="#ff0000" stroke-width="0.5" points="388.563,70.296 409.157,70.296"/>
<text fill="#000000" x="298.08" y="22.4" font-size="12" text-anchor="middle" baseline-shift="0" font-family="Helvetica">Energy left in the network</text>
</g>
</svg>
