<?xml version="1.0" encoding="UTF-8" standalone="no"?>
<svg xmlns="http://www.w3.org/2000/svg"
     xmlns:xlink="http://www.w3.org/1999/xlink"
     width="576px" height="433px" viewBox="0 0 576 433">
<title>glps_renderer figure</title>
<desc>
Creator: GL2PS 1.3.8, (C) 1999-2012 C. Geuzaine
For: Octave
CreationDate: Sun May 19 00:50:28 2019
</desc>
<defs>
</defs>
<g shape-rendering="crispEdges">
<polygon fill="#ffffff" points="74.88,384.48 521.28,384.48 74.88,32.4"/>
<polygon fill="#ffffff" points="521.28,384.48 521.28,32.4 74.88,32.4"/>
<polygon fill="#ffffff" points="388.903,77.3261 518.534,77.3261 388.903,35.1458"/>
<polygon fill="#ffffff" points="518.534,77.3261 518.534,35.1458 388.903,35.1458"/>
<polyline fill="none" stroke="#000000" stroke-width="0.5" stroke-dasharray="16,0" points="74.88,384.48 521.28,384.48"/>
<polyline fill="none" stroke="#000000" stroke-width="0.5" stroke-dasharray="16,0" points="74.88,32.4 521.28,32.4"/>
<polyline fill="none" stroke="#000000" stroke-width="0.5" stroke-dasharray="16,0" points="74.88,384.48 74.88,32.4"/>
<polyline fill="none" stroke="#000000" stroke-width="0.5" stroke-dasharray="16,0" points="521.28,384.48 521.28,32.4"/>
<polyline fill="none" stroke="#000000" stroke-width="0.5" stroke-dasharray="16,0" points="74.88,384.48 74.88,380.015"/>
<polyline fill="none" stroke="#000000" stroke-width="0.5" stroke-dasharray="16,0" points="74.88,32.4 74.88,36.8651"/>
<polyline fill="none" stroke="#000000" stroke-width="0.5" stroke-dasharray="16,0" points="134.4,384.48 134.4,380.015"/>
<polyline fill="none" stroke="#000000" stroke-width="0.5" stroke-dasharray="16,0" points="134.4,32.4 134.4,36.8651"/>
<polyline fill="none" stroke="#000000" stroke-width="0.5" stroke-dasharray="16,0" points="193.92,384.48 193.92,380.015"/>
<polyline fill="none" stroke="#000000" stroke-width="0.5" stroke-dasharray="16,0" points="193.92,32.4 193.92,36.8651"/>
<polyline fill="none" stroke="#000000" stroke-width="0.5" stroke-dasharray="16,0" points="253.44,384.48 253.44,380.015"/>
<polyline fill="none" stroke="#000000" stroke-width="0.5" stroke-dasharray="16,0" points="253.44,32.4 253.44,36.8651"/>
<polyline fill="none" stroke="#000000" stroke-width="0.5" stroke-dasharray="16,0" points="312.96,384.48 312.96,380.015"/>
<polyline fill="none" stroke="#000000" stroke-width="0.5" stroke-dasharray="16,0" points="312.96,32.4 312.96,36.8651"/>
<polyline fill="none" stroke="#000000" stroke-width="0.5" stroke-dasharray="16,0" points="372.48,384.48 372.48,380.015"/>
<polyline fill="none" stroke="#000000" stroke-width="0.5" stroke-dasharray="16,0" points="372.48,32.4 372.48,36.8651"/>
<polyline fill="none" stroke="#000000" stroke-width="0.5" stroke-dasharray="16,0" points="432,384.48 432,380.015"/>
<polyline fill="none" stroke="#000000" stroke-width="0.5" stroke-dasharray="16,0" points="432,32.4 432,36.8651"/>
<polyline fill="none" stroke="#000000" stroke-width="0.5" stroke-dasharray="16,0" points="491.52,384.48 491.52,380.015"/>
<polyline fill="none" stroke="#000000" stroke-width="0.5" stroke-dasharray="16,0" points="491.52,32.4 491.52,36.8651"/>
<text fill="#000000" x="74.88" y="389.481" font-size="10" text-anchor="middle" baseline-shift="-10" font-family="Helvetica">0</text>
<text fill="#000000" x="134.4" y="389.481" font-size="10" text-anchor="middle" baseline-shift="-10" font-family="Helvetica">200</text>
<text fill="#000000" x="193.92" y="389.481" font-size="10" text-anchor="middle" baseline-shift="-10" font-family="Helvetica">400</text>
<text fill="#000000" x="253.44" y="389.481" font-size="10" text-anchor="middle" baseline-shift="-10" font-family="Helvetica">600</text>
<text fill="#000000" x="312.96" y="389.481" font-size="10" text-anchor="middle" baseline-shift="-10" font-family="Helvetica">800</text>
<text fill="#000000" x="372.48" y="389.481" font-size="10" text-anchor="middle" baseline-shift="-10" font-family="Helvetica">1000</text>
<text fill="#000000" x="432" y="389.481" font-size="10" text-anchor="middle" baseline-shift="-10" font-family="Helvetica">1200</text>
<text fill="#000000" x="491.52" y="389.481" font-size="10" text-anchor="middle" baseline-shift="-10" font-family="Helvetica">1400</text>
<polyline fill="none" stroke="#000000" stroke-width="0.5" stroke-dasharray="16,0" points="74.88,384.48 79.348,384.48"/>
<polyline fill="none" stroke="#000000" stroke-width="0.5" stroke-dasharray="16,0" points="521.28,384.48 516.812,384.48"/>
<polyline fill="none" stroke="#000000" stroke-width="0.5" stroke-dasharray="16,0" points="74.88,314.064 79.348,314.064"/>
<polyline fill="none" stroke="#000000" stroke-width="0.5" stroke-dasharray="16,0" points="521.28,314.064 516.812,314.064"/>
<polyline fill="none" stroke="#000000" stroke-width="0.5" stroke-dasharray="16,0" points="74.88,243.648 79.348,243.648"/>
<polyline fill="none" stroke="#000000" stroke-width="0.5" stroke-dasharray="16,0" points="521.28,243.648 516.812,243.648"/>
<polyline fill="none" stroke="#000000" stroke-width="0.5" stroke-dasharray="16,0" points="74.88,173.232 79.348,173.232"/>
<polyline fill="none" stroke="#000000" stroke-width="0.5" stroke-dasharray="16,0" points="521.28,173.232 516.812,173.232"/>
<polyline fill="none" stroke="#000000" stroke-width="0.5" stroke-dasharray="16,0" points="74.88,102.816 79.348,102.816"/>
<polyline fill="none" stroke="#000000" stroke-width="0.5" stroke-dasharray="16,0" points="521.28,102.816 516.812,102.816"/>
<polyline fill="none" stroke="#000000" stroke-width="0.5" stroke-dasharray="16,0" points="74.88,32.4 79.348,32.4"/>
<polyline fill="none" stroke="#000000" stroke-width="0.5" stroke-dasharray="16,0" points="521.28,32.4 516.812,32.4"/>
<text fill="#000000" x="69.8755" y="384.48" font-size="10" text-anchor="end" baseline-shift="-5" font-family="Helvetica">0</text>
<text fill="#000000" x="69.8755" y="314.064" font-size="10" text-anchor="end" baseline-shift="-5" font-family="Helvetica">20</text>
<text fill="#000000" x="69.8755" y="243.648" font-size="10" text-anchor="end" baseline-shift="-5" font-family="Helvetica">40</text>
<text fill="#000000" x="69.8755" y="173.232" font-size="10" text-anchor="end" baseline-shift="-5" font-family="Helvetica">60</text>
<text fill="#000000" x="69.8755" y="102.816" font-size="10" text-anchor="end" baseline-shift="-5" font-family="Helvetica">80</text>
<text fill="#000000" x="69.8755" y="32.4" font-size="10" text-anchor="end" baseline-shift="-5" font-family="Helvetica">100</text>
<text fill="#000000" x="298.08" y="400.481" font-size="12" text-anchor="middle" baseline-shift="-12" font-family="Helvetica">x( No. of rounds)</text>
<text fill="#000000" x="47.8755" y="208.44" font-size="12" transform="rotate(-90, 47.8755, 208.44)" text-anchor="middle" baseline-shift="0" font-family="Helvetica">y (Alive nodes)</text>
<polyline fill="none" stroke="#0000ff" stroke-width="0.5" stroke-dasharray="0,4,4,4,4,0" points="74.88,384.48 75.1776,32.4 75.4752,32.4 75.7728,32.4 76.0704,32.4 76.368,32.4 76.6656,32.4 76.9632,32.4 77.2608,32.4 77.5584,32.4 77.856,32.4 78.1536,32.4 78.4512,32.4 78.7488,32.4 79.0464,32.4 79.344,32.4 79.6416,32.4 79.9392,32.4 80.2368,32.4 80.5344,32.4 80.832,32.4 81.1296,32.4 81.4272,32.4 81.7248,32.4 82.0224,32.4 82.32,32.4 82.6176,32.4 82.9152,32.4 83.2128,32.4 83.5104,32.4 83.808,32.4 84.1056,32.4 84.4032,32.4 84.7008,32.4 84.9984,32.4 85.296,32.4 85.5936,32.4 85.8912,32.4 86.1888,32.4 86.4864,32.4 86.784,32.4 87.0816,32.4 87.3792,32.4 87.6768,32.4 87.9744,32.4 88.272,32.4 88.5696,32.4 88.8672,32.4 89.1648,32.4 89.4624,32.4 89.76,32.4 90.0576,32.4 90.3552,32.4 90.6528,32.4 90.9504,32.4 91.248,32.4 91.5456,32.4 91.8432,32.4 92.1408,32.4 92.4384,32.4 92.736,32.4 93.0336,32.4 93.3312,32.4 93.6288,32.4 93.9264,32.4 94.224,32.4 94.5216,32.4 94.8192,32.4 95.1168,32.4 95.4144,32.4 95.712,32.4 96.0096,32.4 96.3072,32.4 96.6048,32.4 96.9024,32.4 97.2,32.4 97.4976,32.4 97.7952,32.4 98.0928,32.4 98.3904,32.4 98.688,32.4 98.9856,32.4 99.2832,32.4 99.5808,32.4 99.8784,32.4 100.176,32.4 100.474,32.4 100.771,32.4 101.069,32.4 101.366,32.4 101.664,32.4 101.962,32.4 102.259,32.4 102.557,32.4 102.854,32.4 103.152,32.4 103.45,32.4 103.747,32.4 104.045,32.4 104.342,32.4 104.64,32.4 104.938,32.4 105.235,32.4 105.533,32.4 105.83,32.4 106.128,32.4 106.426,32.4 106.723,32.4 107.021,32.4 107.318,32.4 107.616,32.4 107.914,32.4 108.211,32.4 108.509,32.4 108.806,32.4 109.104,32.4 109.402,32.4 109.699,32.4 109.997,32.4 110.294,32.4 110.592,32.4 110.89,32.4 111.187,32.4 111.485,32.4 111.782,32.4 112.08,32.4 112.378,32.4 112.675,32.4 112.973,32.4 113.27,32.4 113.568,32.4 113.866,32.4 114.163,32.4 114.461,32.4 114.758,32.4 115.056,32.4 115.354,32.4 115.651,32.4 115.949,32.4 116.246,32.4 116.544,32.4 116.842,32.4 117.139,32.4 117.437,32.4 117.734,32.4 118.032,32.4 118.33,32.4 118.627,32.4 118.925,32.4 119.222,32.4 119.52,32.4 119.818,32.4 120.115,32.4 120.413,32.4 120.71,32.4 121.008,32.4 121.306,32.4 121.603,32.4 121.901,32.4 122.198,32.4 122.496,32.4 122.794,32.4 123.091,32.4 123.389,32.4 123.686,32.4 123.984,32.4 124.282,32.4 124.579,32.4 124.877,32.4 125.174,32.4 125.472,32.4 125.77,32.4 126.067,32.4 126.365,32.4 126.662,32.4 126.96,32.4 127.258,32.4 127.555,32.4 127.853,32.4 128.15,32.4 128.448,32.4 128.746,32.4 129.043,32.4 129.341,32.4 129.638,32.4 129.936,32.4 130.234,32.4 130.531,32.4 130.829,32.4 131.126,32.4 131.424,32.4 131.722,32.4 132.019,32.4 132.317,32.4 132.614,32.4 132.912,32.4 133.21,32.4 133.507,32.4 133.805,32.4 134.102,32.4 134.4,32.4 134.698,32.4 134.995,32.4 135.293,32.4 135.59,32.4 135.888,32.4 136.186,32.4 136.483,32.4 136.781,32.4 137.078,32.4 137.376,32.4 137.674,32.4 137.971,32.4 138.269,32.4 138.566,32.4 138.864,32.4 139.162,32.4 139.459,32.4 139.757,32.4 140.054,32.4 140.352,32.4 140.65,32.4 140.947,32.4 141.245,32.4 141.542,32.4 141.84,32.4 142.138,32.4 142.435,32.4 142.733,32.4 143.03,32.4 143.328,32.4 143.626,32.4 143.923,35.9208 144.221,35.9208 144.518,35.9208 144.816,35.9208 145.114,39.4416 145.411,42.9624 145.709,42.9624 146.006,42.9624 146.304,42.9624 146.602,42.9624 146.899,42.9624 147.197,42.9624 147.494,42.9624 147.792,42.9624 148.09,42.9624 148.387,42.9624 148.685,42.9624 148.982,42.9624 149.28,42.9624 149.578,42.9624 149.875,46.4832 150.173,46.4832 150.47,46.4832 150.768,46.4832 151.066,46.4832 151.363,46.4832 151.661,46.4832 151.958,46.4832 152.256,46.4832 152.554,46.4832 152.851,46.4832 153.149,46.4832 153.446,46.4832 153.744,46.4832 154.042,46.4832 154.339,46.4832 154.637,46.4832 154.934,46.4832 155.232,46.4832 155.53,46.4832 155.827,46.4832 156.125,46.4832 156.422,46.4832 156.72,46.4832 157.018,50.004 157.315,50.004 157.613,53.5248 157.91,53.5248 158.208,53.5248 158.506,53.5248 158.803,53.5248 159.101,53.5248 159.398,53.5248 159.696,53.5248 159.994,53.5248 160.291,57.0456 160.589,60.5664 160.886,60.5664 161.184,60.5664 161.482,60.5664 161.779,60.5664 162.077,60.5664 162.374,60.5664 162.672,60.5664 162.97,60.5664 163.267,60.5664 163.565,60.5664 163.862,60.5664 164.16,60.5664 164.458,60.5664 164.755,60.5664 165.053,60.5664 165.35,64.0872 165.648,64.0872 165.946,67.608 166.243,67.608 166.541,67.608 166.838,67.608 167.136,67.608 167.434,67.608 167.731,67.608 168.029,67.608 168.326,71.1288 168.624,71.1288 168.922,71.1288 169.219,71.1288 169.517,71.1288 169.814,78.1704 170.112,78.1704 170.41,78.1704 170.707,78.1704 171.005,78.1704 171.302,78.1704 171.6,78.1704 171.898,78.1704 172.195,78.1704 172.493,81.6912 172.79,88.7328 173.088,88.7328 173.386,88.7328 173.683,92.2536 173.981,92.2536 174.278,95.7744 174.576,95.7744 174.874,95.7744 175.171,95.7744 175.469,95.7744 175.766,95.7744 176.064,95.7744 176.362,95.7744 176.659,95.7744 176.957,99.2952 177.254,99.2952 177.552,99.2952 177.85,99.2952 178.147,99.2952 178.445,102.816 178.742,102.816 179.04,102.816 179.338,102.816 179.635,102.816 179.933,102.816 180.23,102.816 180.528,102.816 180.826,106.337 181.123,106.337 181.421,109.858 181.718,113.378 182.016,113.378 182.314,116.899 182.611,120.42 182.909,123.941 183.206,123.941 183.504,130.982 183.802,134.503 184.099,134.503 184.397,134.503 184.694,134.503 184.992,134.503 185.29,134.503 185.587,134.503 185.885,138.024 186.182,138.024 186.48,138.024 186.778,138.024 187.075,145.066 187.373,145.066 187.67,145.066 187.968,145.066 188.266,148.586 188.563,148.586 188.861,148.586 189.158,148.586 189.456,155.628 189.754,155.628 190.051,155.628 190.349,155.628 190.646,159.149 190.944,159.149 191.242,159.149 191.539,162.67 191.837,162.67 192.134,162.67 192.432,166.19 192.73,169.711 193.027,169.711 193.325,169.711 193.622,169.711 193.92,169.711 194.218,173.232 194.515,173.232 194.813,173.232 195.11,173.232 195.408,176.753 195.706,176.753 196.003,176.753 196.301,176.753 196.598,176.753 196.896,176.753 197.194,180.274 197.491,180.274 197.789,180.274 198.086,180.274 198.384,180.274 198.682,180.274 198.979,180.274 199.277,180.274 199.574,180.274 199.872,180.274 200.17,180.274 200.467,180.274 200.765,180.274 201.062,180.274 201.36,180.274 201.658,180.274 201.955,183.794 202.253,183.794 202.55,183.794 202.848,183.794 203.146,183.794 203.443,187.315 203.741,187.315 204.038,190.836 204.336,190.836 204.634,190.836 204.931,190.836 205.229,190.836 205.526,190.836 205.824,190.836 206.122,190.836 206.419,190.836 206.717,190.836 207.014,190.836 207.312,197.878 207.61,197.878 207.907,197.878 208.205,197.878 208.502,197.878 208.8,197.878 209.098,197.878 209.395,197.878 209.693,197.878 209.99,197.878 210.288,197.878 210.586,197.878 210.883,197.878 211.181,197.878 211.478,197.878 211.776,197.878 212.074,197.878 212.371,197.878 212.669,197.878 212.966,197.878 213.264,201.398 213.562,201.398 213.859,201.398 214.157,201.398 214.454,201.398 214.752,201.398 215.05,201.398 215.347,204.919 215.645,208.44 215.942,208.44 216.24,208.44 216.538,211.961 216.835,211.961 217.133,211.961 217.43,215.482 217.728,219.002 218.026,222.523 218.323,226.044 218.621,226.044 218.918,229.565 219.216,229.565 219.514,229.565 219.811,233.086 220.109,233.086 220.406,233.086 220.704,233.086 221.002,236.606 221.299,236.606 221.597,236.606 221.894,236.606 222.192,236.606 222.49,236.606 222.787,236.606 223.085,240.127 223.382,243.648 223.68,247.169 223.978,254.21 224.275,254.21 224.573,257.731 224.87,261.252 225.168,261.252 225.466,264.773 225.763,264.773 226.061,264.773 226.358,264.773 226.656,264.773 226.954,264.773 227.251,264.773 227.549,264.773 227.846,264.773 228.144,264.773 228.442,264.773 228.739,264.773 229.037,264.773 229.334,264.773 229.632,264.773 229.93,268.294 230.227,268.294 230.525,268.294 230.822,268.294 231.12,268.294 231.418,268.294 231.715,268.294 232.013,271.814 232.31,271.814 232.608,271.814 232.906,271.814 233.203,271.814 233.501,271.814 233.798,271.814 234.096,271.814 234.394,271.814 234.691,271.814 234.989,271.814 235.286,271.814 235.584,271.814 235.882,271.814 236.179,271.814 236.477,271.814 236.774,271.814 237.072,275.335 237.37,275.335 237.667,275.335 237.965,275.335 238.262,275.335 238.56,275.335 238.858,275.335 239.155,275.335 239.453,275.335 239.75,275.335 240.048,278.856 240.346,278.856 240.643,278.856 240.941,278.856 241.238,282.377 241.536,282.377 241.834,285.898 242.131,285.898 242.429,285.898 242.726,285.898 243.024,285.898 243.322,289.418 243.619,289.418 243.917,292.939 244.214,292.939 244.512,292.939 244.81,292.939 245.107,292.939 245.405,292.939 245.702,296.46 246,299.981 246.298,299.981 246.595,303.502 246.893,303.502 247.19,303.502 247.488,303.502 247.786,303.502 248.083,307.022 248.381,310.543 248.678,310.543 248.976,310.543 249.274,317.585 249.571,317.585 249.869,317.585 250.166,321.106 250.464,321.106 250.762,321.106 251.059,324.626 251.357,338.71 251.654,342.23 251.952,342.23 252.25,342.23 252.547,345.751 252.845,345.751 253.142,352.793 253.44,352.793 253.738,356.314 254.035,356.314 254.333,356.314 254.63,356.314 254.928,356.314 255.226,359.834 255.523,359.834 255.821,359.834 256.118,359.834 256.416,363.355 256.714,363.355 257.011,366.876 257.309,366.876 257.606,366.876 257.904,370.397 258.202,373.918 258.499,373.918 258.797,373.918 259.094,373.918 259.392,373.918 259.69,373.918 259.987,377.438 260.285,377.438 260.582,377.438 260.88,377.438 261.178,377.438 261.475,377.438 261.773,377.438 262.07,377.438 262.368,377.438 262.666,380.959 262.963,380.959 263.261,380.959 263.558,380.959 263.856,380.959 264.154,380.959 264.451,380.959 264.749,380.959 265.046,380.959 265.344,380.959 265.642,380.959 265.939,380.959 266.237,380.959 266.534,380.959 266.832,380.959 267.13,380.959 267.427,380.959 267.725,380.959 268.022,380.959 268.32,380.959 268.618,380.959 268.915,380.959 269.213,380.959 269.51,380.959 269.808,380.959 270.106,380.959 270.403,380.959 270.701,380.959 270.998,380.959 271.296,380.959 271.594,380.959 271.891,380.959 272.189,380.959 272.486,380.959 272.784,380.959 273.082,380.959 273.379,380.959 273.677,380.959 273.974,380.959 274.272,380.959 274.57,380.959 274.867,380.959 275.165,380.959 275.462,380.959 275.76,380.959 276.058,380.959 276.355,380.959 276.653,380.959 276.95,380.959 277.248,380.959 277.546,380.959 277.843,380.959 278.141,380.959 278.438,380.959 278.736,380.959 279.034,380.959 279.331,380.959 279.629,380.959 279.926,380.959 280.224,380.959 280.522,380.959 280.819,380.959 281.117,380.959 281.414,380.959 281.712,380.959 282.01,380.959 282.307,380.959 282.605,380.959 282.902,380.959 283.2,380.959 283.498,380.959 283.795,380.959 284.093,380.959 284.39,380.959 284.688,380.959 284.986,380.959 285.283,380.959 285.581,380.959 285.878,380.959 286.176,380.959 286.474,380.959 286.771,380.959 287.069,380.959 287.366,380.959 287.664,384.48 287.962,384.48 288.259,384.48 288.557,384.48 288.854,384.48 289.152,384.48 289.45,384.48 289.747,384.48 290.045,384.48 290.342,384.48 290.64,384.48 290.938,384.48 291.235,384.48 291.533,384.48 291.83,384.48 292.128,384.48 292.426,384.48 292.723,384.48 293.021,384.48 293.318,384.48 293.616,384.48 293.914,384.48 294.211,384.48 294.509,384.48 294.806,384.48 295.104,384.48 295.402,384.48 295.699,384.48 295.997,384.48 296.294,384.48 296.592,384.48 296.89,384.48 297.187,384.48 297.485,384.48 297.782,384.48 298.08,384.48 298.378,384.48 298.675,384.48 298.973,384.48 299.27,384.48 299.568,384.48 299.866,384.48 300.163,384.48 300.461,384.48 300.758,384.48 301.056,384.48 301.354,384.48 301.651,384.48 301.949,384.48 302.246,384.48 302.544,384.48 302.842,384.48 303.139,384.48 303.437,384.48 303.734,384.48 304.032,384.48 304.33,384.48 304.627,384.48 304.925,384.48 305.222,384.48 305.52,384.48 305.818,384.48 306.115,384.48 306.413,384.48 306.71,384.48 307.008,384.48 307.306,384.48 307.603,384.48 307.901,384.48 308.198,384.48 308.496,384.48 308.794,384.48 309.091,384.48 309.389,384.48 309.686,384.48 309.984,384.48 310.282,384.48 310.579,384.48 310.877,384.48 311.174,384.48 311.472,384.48 311.77,384.48 312.067,384.48 312.365,384.48 312.662,384.48 312.96,384.48 313.258,384.48 313.555,384.48 313.853,384.48 314.15,384.48 314.448,384.48 314.746,384.48 315.043,384.48 315.341,384.48 315.638,384.48 315.936,384.48 316.234,384.48 316.531,384.48 316.829,384.48 317.126,384.48 317.424,384.48 317.722,384.48 318.019,384.48 318.317,384.48 318.614,384.48 318.912,384.48 319.21,384.48 319.507,384.48 319.805,384.48 320.102,384.48 320.4,384.48 320.698,384.48 320.995,384.48 321.293,384.48 321.59,384.48 321.888,384.48 322.186,384.48 322.483,384.48 322.781,384.48 323.078,384.48 323.376,384.48 323.674,384.48 323.971,384.48 324.269,384.48 324.566,384.48 324.864,384.48 325.162,384.48 325.459,384.48 325.757,384.48 326.054,384.48 326.352,384.48 326.65,384.48 326.947,384.48 327.245,384.48 327.542,384.48 327.84,384.48 328.138,384.48 328.435,384.48 328.733,384.48 329.03,384.48 329.328,384.48 329.626,384.48 329.923,384.48 330.221,384.48 330.518,384.48 330.816,384.48 331.114,384.48 331.411,384.48 331.709,384.48 332.006,384.48 332.304,384.48 332.602,384.48 332.899,384.48 333.197,384.48 333.494,384.48 333.792,384.48 334.09,384.48 334.387,384.48 334.685,384.48 334.982,384.48 335.28,384.48 335.578,384.48 335.875,384.48 336.173,384.48 336.47,384.48 336.768,384.48 337.066,384.48 337.363,384.48 337.661,384.48 337.958,384.48 338.256,384.48 338.554,384.48 338.851,384.48 339.149,384.48 339.446,384.48 339.744,384.48 340.042,384.48 340.339,384.48 340.637,384.48 340.934,384.48 341.232,384.48 341.53,384.48 341.827,384.48 342.125,384.48 342.422,384.48 342.72,384.48 343.018,384.48 343.315,384.48 343.613,384.48 343.91,384.48 344.208,384.48 344.506,384.48 344.803,384.48 345.101,384.48 345.398,384.48 345.696,384.48 345.994,384.48 346.291,384.48 346.589,384.48 346.886,384.48 347.184,384.48 347.482,384.48 347.779,384.48 348.077,384.48 348.374,384.48 348.672,384.48 348.97,384.48 349.267,384.48 349.565,384.48 349.862,384.48 350.16,384.48 350.458,384.48 350.755,384.48 351.053,384.48 351.35,384.48 351.648,384.48 351.946,384.48 352.243,384.48 352.541,384.48 352.838,384.48 353.136,384.48 353.434,384.48 353.731,384.48 354.029,384.48 354.326,384.48 354.624,384.48 354.922,384.48 355.219,384.48 355.517,384.48 355.814,384.48 356.112,384.48 356.41,384.48 356.707,384.48 357.005,384.48 357.302,384.48 357.6,384.48 357.898,384.48 358.195,384.48 358.493,384.48 358.79,384.48 359.088,384.48 359.386,384.48 359.683,384.48 359.981,384.48 360.278,384.48 360.576,384.48 360.874,384.48 361.171,384.48 361.469,384.48 361.766,384.48 362.064,384.48 362.362,384.48 362.659,384.48 362.957,384.48 363.254,384.48 363.552,384.48 363.85,384.48 364.147,384.48 364.445,384.48 364.742,384.48 365.04,384.48 365.338,384.48 365.635,384.48 365.933,384.48 366.23,384.48 366.528,384.48 366.826,384.48 367.123,384.48 367.421,384.48 367.718,384.48 368.016,384.48 368.314,384.48 368.611,384.48 368.909,384.48 369.206,384.48 369.504,384.48 369.802,384.48 370.099,384.48 370.397,384.48 370.694,384.48 370.992,384.48 371.29,384.48 371.587,384.48 371.885,384.48 372.182,384.48 372.48,384.48 372.778,384.48 373.075,384.48 373.373,384.48 373.67,384.48 373.968,384.48 374.266,384.48 374.563,384.48 374.861,384.48 375.158,384.48 375.456,384.48 375.754,384.48 376.051,384.48 376.349,384.48 376.646,384.48 376.944,384.48 377.242,384.48 377.539,384.48 377.837,384.48 378.134,384.48 378.432,384.48 378.73,384.48 379.027,384.48 379.325,384.48 379.622,384.48 379.92,384.48 380.218,384.48 380.515,384.48 380.813,384.48 381.11,384.48 381.408,384.48 381.706,384.48 382.003,384.48 382.301,384.48 382.598,384.48 382.896,384.48 383.194,384.48 383.491,384.48 383.789,384.48 384.086,384.48 384.384,384.48 384.682,384.48 384.979,384.48 385.277,384.48 385.574,384.48 385.872,384.48 386.17,384.48 386.467,384.48 386.765,384.48 387.062,384.48 387.36,384.48 387.658,384.48 387.955,384.48 388.253,384.48 388.55,384.48 388.848,384.48 389.146,384.48 389.443,384.48 389.741,384.48 390.038,384.48 390.336,384.48 390.634,384.48 390.931,384.48 391.229,384.48 391.526,384.48 391.824,384.48 392.122,384.48 392.419,384.48 392.717,384.48 393.014,384.48 393.312,384.48 393.61,384.48 393.907,384.48 394.205,384.48 394.502,384.48 394.8,384.48 395.098,384.48 395.395,384.48 395.693,384.48 395.99,384.48 396.288,384.48 396.586,384.48 396.883,384.48 397.181,384.48 397.478,384.48 397.776,384.48 398.074,384.48 398.371,384.48 398.669,384.48 398.966,384.48 399.264,384.48 399.562,384.48 399.859,384.48 400.157,384.48 400.454,384.48 400.752,384.48 401.05,384.48 401.347,384.48 401.645,384.48 401.942,384.48 402.24,384.48 402.538,384.48 402.835,384.48 403.133,384.48 403.43,384.48 403.728,384.48 404.026,384.48 404.323,384.48 404.621,384.48 404.918,384.48 405.216,384.48 405.514,384.48 405.811,384.48 406.109,384.48 406.406,384.48 406.704,384.48 407.002,384.48 407.299,384.48 407.597,384.48 407.894,384.48 408.192,384.48 408.49,384.48 408.787,384.48 409.085,384.48 409.382,384.48 409.68,384.48 409.978,384.48 410.275,384.48 410.573,384.48 410.87,384.48 411.168,384.48 411.466,384.48 411.763,384.48 412.061,384.48 412.358,384.48 412.656,384.48 412.954,384.48 413.251,384.48 413.549,384.48 413.846,384.48 414.144,384.48 414.442,384.48 414.739,384.48 415.037,384.48 415.334,384.48 415.632,384.48 415.93,384.48 416.227,384.48 416.525,384.48 416.822,384.48 417.12,384.48 417.418,384.48 417.715,384.48 418.013,384.48 418.31,384.48 418.608,384.48 418.906,384.48 419.203,384.48 419.501,384.48 419.798,384.48 420.096,384.48 420.394,384.48 420.691,384.48 420.989,384.48 421.286,384.48 421.584,384.48 421.882,384.48 422.179,384.48 422.477,384.48 422.774,384.48 423.072,384.48 423.37,384.48 423.667,384.48 423.965,384.48 424.262,384.48 424.56,384.48 424.858,384.48 425.155,384.48 425.453,384.48 425.75,384.48 426.048,384.48 426.346,384.48 426.643,384.48 426.941,384.48 427.238,384.48 427.536,384.48 427.834,384.48 428.131,384.48 428.429,384.48 428.726,384.48 429.024,384.48 429.322,384.48 429.619,384.48 429.917,384.48 430.214,384.48 430.512,384.48 430.81,384.48 431.107,384.48 431.405,384.48 431.702,384.48 432,384.48 432.298,384.48 432.595,384.48 432.893,384.48 433.19,384.48 433.488,384.48 433.786,384.48 434.083,384.48 434.381,384.48 434.678,384.48 434.976,384.48 435.274,384.48 435.571,384.48 435.869,384.48 436.166,384.48 436.464,384.48 436.762,384.48 437.059,384.48 437.357,384.48 437.654,384.48 437.952,384.48 438.25,384.48 438.547,384.48 438.845,384.48 439.142,384.48 439.44,384.48 439.738,384.48 440.035,384.48 440.333,384.48 440.63,384.48 440.928,384.48 441.226,384.48 441.523,384.48 441.821,384.48 442.118,384.48 442.416,384.48 442.714,384.48 443.011,384.48 443.309,384.48 443.606,384.48 443.904,384.48 444.202,384.48 444.499,384.48 444.797,384.48 445.094,384.48 445.392,384.48 445.69,384.48 445.987,384.48 446.285,384.48 446.582,384.48 446.88,384.48 447.178,384.48 447.475,384.48 447.773,384.48 448.07,384.48 448.368,384.48 448.666,384.48 448.963,384.48 449.261,384.48 449.558,384.48 449.856,384.48 450.154,384.48 450.451,384.48 450.749,384.48 451.046,384.48 451.344,384.48 451.642,384.48 451.939,384.48 452.237,384.48 452.534,384.48 452.832,384.48 453.13,384.48 453.427,384.48 453.725,384.48 454.022,384.48 454.32,384.48 454.618,384.48 454.915,384.48 455.213,384.48 455.51,384.48 455.808,384.48 456.106,384.48 456.403,384.48 456.701,384.48 456.998,384.48 457.296,384.48 457.594,384.48 457.891,384.48 458.189,384.48 458.486,384.48 458.784,384.48 459.082,384.48 459.379,384.48 459.677,384.48 459.974,384.48 460.272,384.48 460.57,384.48 460.867,384.48 461.165,384.48 461.462,384.48 461.76,384.48 462.058,384.48 462.355,384.48 462.653,384.48 462.95,384.48 463.248,384.48 463.546,384.48 463.843,384.48 464.141,384.48 464.438,384.48 464.736,384.48 465.034,384.48 465.331,384.48 465.629,384.48 465.926,384.48 466.224,384.48 466.522,384.48 466.819,384.48 467.117,384.48 467.414,384.48 467.712,384.48 468.01,384.48 468.307,384.48 468.605,384.48 468.902,384.48 469.2,384.48 469.498,384.48 469.795,384.48 470.093,384.48 470.39,384.48 470.688,384.48 470.986,384.48 471.283,384.48 471.581,384.48 471.878,384.48 472.176,384.48 472.474,384.48 472.771,384.48 473.069,384.48 473.366,384.48 473.664,384.48 473.962,384.48 474.259,384.48 474.557,384.48 474.854,384.48 475.152,384.48 475.45,384.48 475.747,384.48 476.045,384.48 476.342,384.48 476.64,384.48 476.938,384.48 477.235,384.48 477.533,384.48 477.83,384.48 478.128,384.48 478.426,384.48 478.723,384.48 479.021,384.48 479.318,384.48 479.616,384.48 479.914,384.48 480.211,384.48 480.509,384.48 480.806,384.48 481.104,384.48 481.402,384.48 481.699,384.48 481.997,384.48 482.294,384.48 482.592,384.48 482.89,384.48 483.187,384.48 483.485,384.48 483.782,384.48 484.08,384.48 484.378,384.48 484.675,384.48 484.973,384.48 485.27,384.48 485.568,384.48 485.866,384.48 486.163,384.48 486.461,384.48 486.758,384.48 487.056,384.48 487.354,384.48 487.651,384.48 487.949,384.48 488.246,384.48 488.544,384.48 488.842,384.48 489.139,384.48 489.437,384.48 489.734,384.48 490.032,384.48 490.33,384.48 490.627,384.48 490.925,384.48 491.222,384.48 491.52,384.48 491.818,384.48 492.115,384.48 492.413,384.48 492.71,384.48 493.008,384.48 493.306,384.48 493.603,384.48 493.901,384.48 494.198,384.48 494.496,384.48 494.794,384.48 495.091,384.48 495.389,384.48 495.686,384.48 495.984,384.48 496.282,384.48 496.579,384.48 496.877,384.48 497.174,384.48 497.472,384.48 497.77,384.48 498.067,384.48 498.365,384.48 498.662,384.48 498.96,384.48 499.258,384.48 499.555,384.48 499.853,384.48 500.15,384.48 500.448,384.48 500.746,384.48 501.043,384.48 501.341,384.48 501.638,384.48 501.936,384.48 502.234,384.48 502.531,384.48 502.829,384.48 503.126,384.48 503.424,384.48 503.722,384.48 504.019,384.48 504.317,384.48 504.614,384.48 504.912,384.48 505.21,384.48 505.507,384.48 505.805,384.48 506.102,384.48 506.4,384.48 506.698,384.48 506.995,384.48 507.293,384.48 507.59,384.48 507.888,384.48 508.186,384.48 508.483,384.48 508.781,384.48 509.078,384.48 509.376,384.48 509.674,384.48 509.971,384.48 510.269,384.48 510.566,384.48 510.864,384.48 511.162,384.48 511.459,384.48 511.757,384.48 512.054,384.48 512.352,384.48 512.65,384.48 512.947,384.48 513.245,384.48 513.542,384.48 513.84,384.48 514.138,384.48 514.435,384.48 514.733,384.48 515.03,384.48 515.328,384.48 515.626,384.48 515.923,384.48 516.221,384.48 516.518,384.48 516.816,384.48 517.114,384.48 517.411,384.48 517.709,384.48 518.006,384.48 518.304,384.48 518.602,384.48 518.899,384.48 519.197,384.48 519.494,384.48 519.792,384.48 520.09,384.48 520.387,384.48 520.685,384.48 520.982,384.48 521.28,384.48"/>
<polyline fill="none" stroke="#007f00" stroke-width="0.5" stroke-dasharray="0,4,4,4,4,0" points="74.88,384.48 75.1776,32.4 75.4752,32.4 75.7728,32.4 76.0704,32.4 76.368,32.4 76.6656,32.4 76.9632,32.4 77.2608,32.4 77.5584,32.4 77.856,32.4 78.1536,32.4 78.4512,32.4 78.7488,32.4 79.0464,32.4 79.344,32.4 79.6416,32.4 79.9392,32.4 80.2368,32.4 80.5344,32.4 80.832,32.4 81.1296,32.4 81.4272,32.4 81.7248,32.4 82.0224,32.4 82.32,32.4 82.6176,32.4 82.9152,32.4 83.2128,32.4 83.5104,32.4 83.808,32.4 84.1056,32.4 84.4032,32.4 84.7008,32.4 84.9984,32.4 85.296,32.4 85.5936,32.4 85.8912,32.4 86.1888,32.4 86.4864,32.4 86.784,32.4 87.0816,32.4 87.3792,32.4 87.6768,32.4 87.9744,32.4 88.272,32.4 88.5696,32.4 88.8672,32.4 89.1648,32.4 89.4624,32.4 89.76,32.4 90.0576,32.4 90.3552,32.4 90.6528,32.4 90.9504,32.4 91.248,32.4 91.5456,32.4 91.8432,32.4 92.1408,32.4 92.4384,32.4 92.736,32.4 93.0336,32.4 93.3312,32.4 93.6288,32.4 93.9264,32.4 94.224,32.4 94.5216,32.4 94.8192,32.4 95.1168,32.4 95.4144,32.4 95.712,32.4 96.0096,32.4 96.3072,32.4 96.6048,32.4 96.9024,32.4 97.2,32.4 97.4976,32.4 97.7952,32.4 98.0928,32.4 98.3904,32.4 98.688,32.4 98.9856,32.4 99.2832,32.4 99.5808,32.4 99.8784,32.4 100.176,32.4 100.474,32.4 100.771,32.4 101.069,32.4 101.366,32.4 101.664,32.4 101.962,32.4 102.259,32.4 102.557,32.4 102.854,32.4 103.152,32.4 103.45,32.4 103.747,32.4 104.045,32.4 104.342,32.4 104.64,32.4 104.938,32.4 105.235,32.4 105.533,32.4 105.83,32.4 106.128,32.4 106.426,32.4 106.723,32.4 107.021,32.4 107.318,32.4 107.616,32.4 107.914,32.4 108.211,32.4 108.509,32.4 108.806,32.4 109.104,32.4 109.402,32.4 109.699,32.4 109.997,32.4 110.294,32.4 110.592,32.4 110.89,32.4 111.187,32.4 111.485,32.4 111.782,32.4 112.08,32.4 112.378,32.4 112.675,32.4 112.973,32.4 113.27,32.4 113.568,32.4 113.866,32.4 114.163,32.4 114.461,32.4 114.758,32.4 115.056,32.4 115.354,32.4 115.651,32.4 115.949,32.4 116.246,32.4 116.544,32.4 116.842,32.4 117.139,32.4 117.437,32.4 117.734,32.4 118.032,32.4 118.33,32.4 118.627,32.4 118.925,32.4 119.222,32.4 119.52,32.4 119.818,32.4 120.115,32.4 120.413,32.4 120.71,32.4 121.008,32.4 121.306,32.4 121.603,32.4 121.901,32.4 122.198,32.4 122.496,32.4 122.794,32.4 123.091,32.4 123.389,32.4 123.686,32.4 123.984,32.4 124.282,32.4 124.579,32.4 124.877,32.4 125.174,32.4 125.472,32.4 125.77,32.4 126.067,32.4 126.365,32.4 126.662,32.4 126.96,32.4 127.258,32.4 127.555,32.4 127.853,32.4 128.15,32.4 128.448,32.4 128.746,32.4 129.043,32.4 129.341,32.4 129.638,32.4 129.936,32.4 130.234,32.4 130.531,32.4 130.829,32.4 131.126,32.4 131.424,32.4 131.722,32.4 132.019,32.4 132.317,32.4 132.614,32.4 132.912,32.4 133.21,32.4 133.507,32.4 133.805,32.4 134.102,32.4 134.4,32.4 134.698,32.4 134.995,32.4 135.293,32.4 135.59,32.4 135.888,32.4 136.186,32.4 136.483,32.4 136.781,32.4 137.078,32.4 137.376,32.4 137.674,35.9208 137.971,35.9208 138.269,35.9208 138.566,35.9208 138.864,35.9208 139.162,35.9208 139.459,35.9208 139.757,35.9208 140.054,35.9208 140.352,35.9208 140.65,35.9208 140.947,35.9208 141.245,39.4416 141.542,39.4416 141.84,39.4416 142.138,39.4416 142.435,39.4416 142.733,42.9624 143.03,42.9624 143.328,42.9624 143.626,42.9624 143.923,42.9624 144.221,42.9624 144.518,42.9624 144.816,42.9624 145.114,42.9624 145.411,42.9624 145.709,42.9624 146.006,42.9624 146.304,42.9624 146.602,42.9624 146.899,42.9624 147.197,42.9624 147.494,42.9624 147.792,42.9624 148.09,42.9624 148.387,42.9624 148.685,42.9624 148.982,42.9624 149.28,42.9624 149.578,42.9624 149.875,42.9624 150.173,42.9624 150.47,42.9624 150.768,42.9624 151.066,42.9624 151.363,42.9624 151.661,42.9624 151.958,42.9624 152.256,42.9624 152.554,42.9624 152.851,42.9624 153.149,42.9624 153.446,46.4832 153.744,46.4832 154.042,53.5248 154.339,53.5248 154.637,53.5248 154.934,53.5248 155.232,53.5248 155.53,53.5248 155.827,53.5248 156.125,53.5248 156.422,53.5248 156.72,53.5248 157.018,53.5248 157.315,53.5248 157.613,57.0456 157.91,57.0456 158.208,57.0456 158.506,57.0456 158.803,57.0456 159.101,57.0456 159.398,57.0456 159.696,57.0456 159.994,57.0456 160.291,57.0456 160.589,60.5664 160.886,60.5664 161.184,60.5664 161.482,60.5664 161.779,60.5664 162.077,60.5664 162.374,60.5664 162.672,60.5664 162.97,60.5664 163.267,60.5664 163.565,60.5664 163.862,60.5664 164.16,64.0872 164.458,64.0872 164.755,67.608 165.053,67.608 165.35,71.1288 165.648,71.1288 165.946,71.1288 166.243,71.1288 166.541,71.1288 166.838,71.1288 167.136,71.1288 167.434,71.1288 167.731,71.1288 168.029,71.1288 168.326,74.6496 168.624,74.6496 168.922,74.6496 169.219,74.6496 169.517,78.1704 169.814,78.1704 170.112,78.1704 170.41,78.1704 170.707,78.1704 171.005,78.1704 171.302,78.1704 171.6,78.1704 171.898,78.1704 172.195,81.6912 172.493,81.6912 172.79,81.6912 173.088,81.6912 173.386,81.6912 173.683,81.6912 173.981,81.6912 174.278,81.6912 174.576,81.6912 174.874,81.6912 175.171,81.6912 175.469,81.6912 175.766,81.6912 176.064,81.6912 176.362,81.6912 176.659,81.6912 176.957,81.6912 177.254,81.6912 177.552,81.6912 177.85,81.6912 178.147,81.6912 178.445,81.6912 178.742,81.6912 179.04,81.6912 179.338,81.6912 179.635,81.6912 179.933,81.6912 180.23,81.6912 180.528,81.6912 180.826,85.212 181.123,88.7328 181.421,88.7328 181.718,88.7328 182.016,88.7328 182.314,88.7328 182.611,88.7328 182.909,92.2536 183.206,92.2536 183.504,92.2536 183.802,92.2536 184.099,92.2536 184.397,92.2536 184.694,92.2536 184.992,92.2536 185.29,92.2536 185.587,92.2536 185.885,92.2536 186.182,92.2536 186.48,92.2536 186.778,92.2536 187.075,95.7744 187.373,95.7744 187.67,99.2952 187.968,99.2952 188.266,106.337 188.563,109.858 188.861,109.858 189.158,109.858 189.456,113.378 189.754,113.378 190.051,116.899 190.349,120.42 190.646,120.42 190.944,123.941 191.242,130.982 191.539,130.982 191.837,130.982 192.134,130.982 192.432,130.982 192.73,134.503 193.027,134.503 193.325,134.503 193.622,134.503 193.92,138.024 194.218,145.066 194.515,145.066 194.813,145.066 195.11,145.066 195.408,145.066 195.706,145.066 196.003,145.066 196.301,145.066 196.598,145.066 196.896,145.066 197.194,145.066 197.491,145.066 197.789,145.066 198.086,152.107 198.384,152.107 198.682,152.107 198.979,155.628 199.277,159.149 199.574,162.67 199.872,166.19 200.17,166.19 200.467,166.19 200.765,166.19 201.062,166.19 201.36,166.19 201.658,166.19 201.955,166.19 202.253,173.232 202.55,173.232 202.848,173.232 203.146,173.232 203.443,173.232 203.741,176.753 204.038,176.753 204.336,180.274 204.634,187.315 204.931,187.315 205.229,187.315 205.526,187.315 205.824,187.315 206.122,187.315 206.419,187.315 206.717,194.357 207.014,194.357 207.312,194.357 207.61,194.357 207.907,194.357 208.205,194.357 208.502,197.878 208.8,197.878 209.098,201.398 209.395,201.398 209.693,201.398 209.99,201.398 210.288,201.398 210.586,201.398 210.883,208.44 211.181,208.44 211.478,208.44 211.776,208.44 212.074,208.44 212.371,208.44 212.669,208.44 212.966,208.44 213.264,208.44 213.562,208.44 213.859,208.44 214.157,208.44 214.454,211.961 214.752,211.961 215.05,211.961 215.347,215.482 215.645,222.523 215.942,222.523 216.24,222.523 216.538,226.044 216.835,229.565 217.133,229.565 217.43,229.565 217.728,233.086 218.026,233.086 218.323,236.606 218.621,243.648 218.918,247.169 219.216,247.169 219.514,250.69 219.811,254.21 220.109,257.731 220.406,261.252 220.704,261.252 221.002,261.252 221.299,261.252 221.597,264.773 221.894,264.773 222.192,264.773 222.49,268.294 222.787,278.856 223.085,282.377 223.382,285.898 223.68,285.898 223.978,285.898 224.275,289.418 224.573,292.939 224.87,292.939 225.168,296.46 225.466,299.981 225.763,303.502 226.061,310.543 226.358,310.543 226.656,314.064 226.954,314.064 227.251,321.106 227.549,328.147 227.846,328.147 228.144,328.147 228.442,328.147 228.739,328.147 229.037,328.147 229.334,328.147 229.632,331.668 229.93,331.668 230.227,335.189 230.525,335.189 230.822,335.189 231.12,335.189 231.418,338.71 231.715,338.71 232.013,338.71 232.31,338.71 232.608,338.71 232.906,338.71 233.203,338.71 233.501,338.71 233.798,338.71 234.096,338.71 234.394,338.71 234.691,338.71 234.989,338.71 235.286,338.71 235.584,338.71 235.882,338.71 236.179,338.71 236.477,338.71 236.774,338.71 237.072,338.71 237.37,338.71 237.667,338.71 237.965,338.71 238.262,338.71 238.56,338.71 238.858,338.71 239.155,338.71 239.453,338.71 239.75,338.71 240.048,338.71 240.346,338.71 240.643,338.71 240.941,338.71 241.238,338.71 241.536,338.71 241.834,338.71 242.131,338.71 242.429,338.71 242.726,338.71 243.024,338.71 243.322,338.71 243.619,338.71 243.917,338.71 244.214,338.71 244.512,342.23 244.81,342.23 245.107,342.23 245.405,342.23 245.702,342.23 246,342.23 246.298,342.23 246.595,342.23 246.893,342.23 247.19,342.23 247.488,342.23 247.786,342.23 248.083,342.23 248.381,342.23 248.678,342.23 248.976,342.23 249.274,342.23 249.571,342.23 249.869,342.23 250.166,342.23 250.464,342.23 250.762,342.23 251.059,342.23 251.357,342.23 251.654,345.751 251.952,349.272 252.25,349.272 252.547,349.272 252.845,349.272 253.142,349.272 253.44,349.272 253.738,349.272 254.035,349.272 254.333,349.272 254.63,349.272 254.928,349.272 255.226,349.272 255.523,349.272 255.821,349.272 256.118,349.272 256.416,349.272 256.714,349.272 257.011,349.272 257.309,349.272 257.606,349.272 257.904,349.272 258.202,349.272 258.499,349.272 258.797,349.272 259.094,349.272 259.392,349.272 259.69,349.272 259.987,349.272 260.285,349.272 260.582,349.272 260.88,349.272 261.178,349.272 261.475,349.272 261.773,349.272 262.07,349.272 262.368,349.272 262.666,349.272 262.963,349.272 263.261,349.272 263.558,349.272 263.856,349.272 264.154,349.272 264.451,349.272 264.749,349.272 265.046,349.272 265.344,349.272 265.642,349.272 265.939,349.272 266.237,349.272 266.534,349.272 266.832,349.272 267.13,349.272 267.427,349.272 267.725,349.272 268.022,349.272 268.32,349.272 268.618,349.272 268.915,349.272 269.213,349.272 269.51,349.272 269.808,349.272 270.106,349.272 270.403,349.272 270.701,349.272 270.998,349.272 271.296,349.272 271.594,349.272 271.891,349.272 272.189,349.272 272.486,349.272 272.784,349.272 273.082,349.272 273.379,349.272 273.677,349.272 273.974,349.272 274.272,349.272 274.57,349.272 274.867,349.272 275.165,349.272 275.462,349.272 275.76,349.272 276.058,349.272 276.355,349.272 276.653,349.272 276.95,349.272 277.248,349.272 277.546,349.272 277.843,349.272 278.141,349.272 278.438,349.272 278.736,349.272 279.034,349.272 279.331,349.272 279.629,349.272 279.926,349.272 280.224,349.272 280.522,349.272 280.819,349.272 281.117,349.272 281.414,349.272 281.712,349.272 282.01,349.272 282.307,349.272 282.605,349.272 282.902,349.272 283.2,349.272 283.498,349.272 283.795,349.272 284.093,349.272 284.39,349.272 284.688,349.272 284.986,349.272 285.283,349.272 285.581,349.272 285.878,349.272 286.176,349.272 286.474,349.272 286.771,349.272 287.069,349.272 287.366,349.272 287.664,349.272 287.962,349.272 288.259,349.272 288.557,349.272 288.854,349.272 289.152,349.272 289.45,349.272 289.747,349.272 290.045,349.272 290.342,349.272 290.64,349.272 290.938,349.272 291.235,349.272 291.533,349.272 291.83,349.272 292.128,349.272 292.426,349.272 292.723,349.272 293.021,349.272 293.318,349.272 293.616,349.272 293.914,349.272 294.211,349.272 294.509,349.272 294.806,349.272 295.104,349.272 295.402,349.272 295.699,349.272 295.997,349.272 296.294,349.272 296.592,349.272 296.89,349.272 297.187,349.272 297.485,349.272 297.782,349.272 298.08,349.272 298.378,349.272 298.675,349.272 298.973,349.272 299.27,349.272 299.568,349.272 299.866,349.272 300.163,349.272 300.461,349.272 300.758,349.272 301.056,349.272 301.354,349.272 301.651,349.272 301.949,349.272 302.246,349.272 302.544,349.272 302.842,349.272 303.139,349.272 303.437,349.272 303.734,349.272 304.032,349.272 304.33,349.272 304.627,349.272 304.925,349.272 305.222,349.272 305.52,349.272 305.818,349.272 306.115,349.272 306.413,349.272 306.71,349.272 307.008,349.272 307.306,349.272 307.603,349.272 307.901,349.272 308.198,349.272 308.496,349.272 308.794,349.272 309.091,349.272 309.389,349.272 309.686,349.272 309.984,349.272 310.282,349.272 310.579,349.272 310.877,349.272 311.174,349.272 311.472,349.272 311.77,349.272 312.067,349.272 312.365,349.272 312.662,349.272 312.96,349.272 313.258,349.272 313.555,349.272 313.853,349.272 314.15,349.272 314.448,349.272 314.746,349.272 315.043,349.272 315.341,349.272 315.638,349.272 315.936,349.272 316.234,349.272 316.531,349.272 316.829,349.272 317.126,349.272 317.424,349.272 317.722,349.272 318.019,349.272 318.317,349.272 318.614,349.272 318.912,349.272 319.21,349.272 319.507,349.272 319.805,349.272 320.102,349.272 320.4,349.272 320.698,349.272 320.995,349.272 321.293,349.272 321.59,349.272 321.888,349.272 322.186,349.272 322.483,349.272 322.781,349.272 323.078,349.272 323.376,349.272 323.674,349.272 323.971,349.272 324.269,349.272 324.566,349.272 324.864,349.272 325.162,349.272 325.459,349.272 325.757,349.272 326.054,349.272 326.352,349.272 326.65,349.272 326.947,349.272 327.245,349.272 327.542,349.272 327.84,349.272 328.138,349.272 328.435,349.272 328.733,349.272 329.03,349.272 329.328,349.272 329.626,349.272 329.923,349.272 330.221,349.272 330.518,349.272 330.816,349.272 331.114,349.272 331.411,349.272 331.709,349.272 332.006,349.272 332.304,349.272 332.602,349.272 332.899,349.272 333.197,349.272 333.494,349.272 333.792,349.272 334.09,349.272 334.387,349.272 334.685,349.272 334.982,349.272 335.28,349.272 335.578,349.272 335.875,349.272 336.173,349.272 336.47,349.272 336.768,349.272 337.066,352.793 337.363,352.793 337.661,352.793 337.958,352.793 338.256,352.793 338.554,352.793 338.851,352.793 339.149,352.793 339.446,352.793 339.744,352.793 340.042,352.793 340.339,352.793 340.637,352.793 340.934,352.793 341.232,352.793 341.53,352.793 341.827,352.793 342.125,352.793 342.422,352.793 342.72,352.793 343.018,352.793 343.315,352.793 343.613,352.793 343.91,352.793 344.208,352.793 344.506,352.793 344.803,352.793 345.101,352.793 345.398,352.793 345.696,352.793 345.994,352.793 346.291,352.793 346.589,352.793 346.886,352.793 347.184,352.793 347.482,352.793 347.779,352.793 348.077,352.793 348.374,352.793 348.672,352.793 348.97,352.793 349.267,352.793 349.565,352.793 349.862,352.793 350.16,352.793 350.458,352.793 350.755,352.793 351.053,352.793 351.35,352.793 351.648,352.793 351.946,352.793 352.243,352.793 352.541,352.793 352.838,352.793 353.136,352.793 353.434,352.793 353.731,352.793 354.029,352.793 354.326,352.793 354.624,352.793 354.922,352.793 355.219,352.793 355.517,352.793 355.814,352.793 356.112,352.793 356.41,352.793 356.707,352.793 357.005,352.793 357.302,352.793 357.6,352.793 357.898,352.793 358.195,352.793 358.493,352.793 358.79,352.793 359.088,352.793 359.386,352.793 359.683,352.793 359.981,352.793 360.278,352.793 360.576,352.793 360.874,352.793 361.171,352.793 361.469,352.793 361.766,352.793 362.064,352.793 362.362,352.793 362.659,352.793 362.957,352.793 363.254,352.793 363.552,352.793 363.85,352.793 364.147,352.793 364.445,352.793 364.742,352.793 365.04,352.793 365.338,352.793 365.635,352.793 365.933,352.793 366.23,352.793 366.528,352.793 366.826,352.793 367.123,352.793 367.421,352.793 367.718,352.793 368.016,352.793 368.314,352.793 368.611,352.793 368.909,352.793 369.206,352.793 369.504,352.793 369.802,352.793 370.099,352.793 370.397,352.793 370.694,352.793 370.992,352.793 371.29,352.793 371.587,352.793 371.885,352.793 372.182,352.793 372.48,352.793 372.778,352.793 373.075,352.793 373.373,352.793 373.67,352.793 373.968,352.793 374.266,352.793 374.563,352.793 374.861,352.793 375.158,352.793 375.456,352.793 375.754,352.793 376.051,356.314 376.349,356.314 376.646,356.314 376.944,356.314 377.242,356.314 377.539,356.314 377.837,356.314 378.134,356.314 378.432,356.314 378.73,356.314 379.027,356.314 379.325,356.314 379.622,356.314 379.92,356.314 380.218,356.314 380.515,356.314 380.813,356.314 381.11,356.314 381.408,356.314 381.706,356.314 382.003,356.314 382.301,356.314 382.598,356.314 382.896,356.314 383.194,356.314 383.491,356.314 383.789,356.314 384.086,356.314 384.384,356.314 384.682,356.314 384.979,356.314 385.277,356.314 385.574,356.314 385.872,356.314 386.17,356.314 386.467,356.314 386.765,356.314 387.062,356.314 387.36,356.314 387.658,356.314 387.955,356.314 388.253,356.314 388.55,356.314 388.848,356.314 389.146,356.314 389.443,356.314 389.741,356.314 390.038,356.314 390.336,356.314 390.634,356.314 390.931,356.314 391.229,356.314 391.526,356.314 391.824,356.314 392.122,356.314 392.419,356.314 392.717,356.314 393.014,356.314 393.312,356.314 393.61,356.314 393.907,356.314 394.205,356.314 394.502,356.314 394.8,356.314 395.098,356.314 395.395,356.314 395.693,356.314 395.99,356.314 396.288,356.314 396.586,356.314 396.883,356.314 397.181,356.314 397.478,356.314 397.776,356.314 398.074,356.314 398.371,356.314 398.669,356.314 398.966,356.314 399.264,356.314 399.562,356.314 399.859,356.314 400.157,356.314 400.454,356.314 400.752,356.314 401.05,356.314 401.347,356.314 401.645,356.314 401.942,356.314 402.24,356.314 402.538,356.314 402.835,356.314 403.133,356.314 403.43,356.314 403.728,356.314 404.026,356.314 404.323,356.314 404.621,356.314 404.918,356.314 405.216,356.314 405.514,356.314 405.811,356.314 406.109,356.314 406.406,356.314 406.704,356.314 407.002,356.314 407.299,356.314 407.597,356.314 407.894,356.314 408.192,356.314 408.49,356.314 408.787,356.314 409.085,356.314 409.382,356.314 409.68,356.314 409.978,356.314 410.275,356.314 410.573,356.314 410.87,356.314 411.168,356.314 411.466,356.314 411.763,356.314 412.061,356.314 412.358,356.314 412.656,356.314 412.954,356.314 413.251,356.314 413.549,356.314 413.846,356.314 414.144,356.314 414.442,356.314 414.739,356.314 415.037,356.314 415.334,356.314 415.632,356.314 415.93,356.314 416.227,356.314 416.525,356.314 416.822,356.314 417.12,356.314 417.418,356.314 417.715,356.314 418.013,356.314 418.31,356.314 418.608,356.314 418.906,356.314 419.203,356.314 419.501,356.314 419.798,356.314 420.096,356.314 420.394,356.314 420.691,356.314 420.989,356.314 421.286,356.314 421.584,356.314 421.882,356.314 422.179,356.314 422.477,356.314 422.774,356.314 423.072,356.314 423.37,356.314 423.667,356.314 423.965,356.314 424.262,356.314 424.56,356.314 424.858,356.314 425.155,356.314 425.453,356.314 425.75,356.314 426.048,356.314 426.346,356.314 426.643,356.314 426.941,356.314 427.238,356.314 427.536,356.314 427.834,356.314 428.131,356.314 428.429,356.314 428.726,356.314 429.024,356.314 429.322,356.314 429.619,356.314 429.917,356.314 430.214,356.314 430.512,356.314 430.81,356.314 431.107,356.314 431.405,356.314 431.702,356.314 432,356.314 432.298,356.314 432.595,356.314 432.893,356.314 433.19,356.314 433.488,356.314 433.786,356.314 434.083,356.314 434.381,356.314 434.678,356.314 434.976,356.314 435.274,356.314 435.571,356.314 435.869,356.314 436.166,356.314 436.464,356.314 436.762,356.314 437.059,356.314 437.357,356.314 437.654,356.314 437.952,356.314 438.25,356.314 438.547,356.314 438.845,356.314 439.142,356.314 439.44,356.314 439.738,356.314 440.035,356.314 440.333,356.314 440.63,356.314 440.928,356.314 441.226,356.314 441.523,356.314 441.821,356.314 442.118,356.314 442.416,356.314 442.714,356.314 443.011,356.314 443.309,356.314 443.606,356.314 443.904,356.314 444.202,356.314 444.499,356.314 444.797,356.314 445.094,356.314 445.392,356.314 445.69,356.314 445.987,356.314 446.285,356.314 446.582,356.314 446.88,356.314 447.178,356.314 447.475,356.314 447.773,356.314 448.07,356.314 448.368,356.314 448.666,356.314 448.963,356.314 449.261,356.314 449.558,356.314 449.856,356.314 450.154,356.314 450.451,356.314 450.749,356.314 451.046,356.314 451.344,356.314 451.642,356.314 451.939,356.314 452.237,356.314 452.534,356.314 452.832,356.314 453.13,356.314 453.427,356.314 453.725,356.314 454.022,356.314 454.32,356.314 454.618,356.314 454.915,356.314 455.213,356.314 455.51,356.314 455.808,356.314 456.106,356.314 456.403,356.314 456.701,356.314 456.998,356.314 457.296,356.314 457.594,356.314 457.891,356.314 458.189,356.314 458.486,356.314 458.784,356.314 459.082,356.314 459.379,356.314 459.677,356.314 459.974,356.314 460.272,356.314 460.57,356.314 460.867,356.314 461.165,356.314 461.462,356.314 461.76,356.314 462.058,356.314 462.355,356.314 462.653,356.314 462.95,356.314 463.248,356.314 463.546,356.314 463.843,356.314 464.141,356.314 464.438,356.314 464.736,356.314 465.034,356.314 465.331,356.314 465.629,359.834 465.926,359.834 466.224,359.834 466.522,359.834 466.819,359.834 467.117,359.834 467.414,359.834 467.712,359.834 468.01,359.834 468.307,359.834 468.605,359.834 468.902,359.834 469.2,359.834 469.498,359.834 469.795,359.834 470.093,359.834 470.39,359.834 470.688,359.834 470.986,359.834 471.283,359.834 471.581,359.834 471.878,359.834 472.176,359.834 472.474,359.834 472.771,359.834 473.069,359.834 473.366,359.834 473.664,359.834 473.962,359.834 474.259,359.834 474.557,359.834 474.854,359.834 475.152,359.834 475.45,359.834 475.747,359.834 476.045,359.834 476.342,359.834 476.64,359.834 476.938,359.834 477.235,359.834 477.533,359.834 477.83,359.834 478.128,359.834 478.426,359.834 478.723,359.834 479.021,359.834 479.318,359.834 479.616,359.834 479.914,359.834 480.211,359.834 480.509,359.834 480.806,359.834 481.104,359.834 481.402,359.834 481.699,359.834 481.997,359.834 482.294,359.834 482.592,359.834 482.89,359.834 483.187,359.834 483.485,359.834 483.782,359.834 484.08,359.834 484.378,359.834 484.675,359.834 484.973,359.834 485.27,359.834 485.568,359.834 485.866,359.834 486.163,359.834 486.461,359.834 486.758,359.834 487.056,359.834 487.354,359.834 487.651,359.834 487.949,359.834 488.246,359.834 488.544,359.834 488.842,359.834 489.139,359.834 489.437,359.834 489.734,359.834 490.032,359.834 490.33,359.834 490.627,359.834 490.925,359.834 491.222,359.834 491.52,359.834 491.818,359.834 492.115,359.834 492.413,359.834 492.71,359.834 493.008,359.834 493.306,359.834 493.603,359.834 493.901,359.834 494.198,359.834 494.496,359.834 494.794,359.834 495.091,359.834 495.389,359.834 495.686,359.834 495.984,359.834 496.282,359.834 496.579,359.834 496.877,359.834 497.174,359.834 497.472,359.834 497.77,359.834 498.067,359.834 498.365,359.834 498.662,359.834 498.96,359.834 499.258,359.834 499.555,359.834 499.853,359.834 500.15,359.834 500.448,359.834 500.746,359.834 501.043,359.834 501.341,359.834 501.638,359.834 501.936,359.834 502.234,359.834 502.531,359.834 502.829,359.834 503.126,359.834 503.424,359.834 503.722,359.834 504.019,359.834 504.317,359.834 504.614,359.834 504.912,359.834 505.21,359.834 505.507,359.834 505.805,359.834 506.102,359.834 506.4,359.834 506.698,359.834 506.995,359.834 507.293,359.834 507.59,359.834 507.888,359.834 508.186,359.834 508.483,359.834 508.781,359.834 509.078,359.834 509.376,359.834 509.674,359.834 509.971,359.834 510.269,359.834 510.566,359.834 510.864,359.834 511.162,359.834 511.459,359.834 511.757,359.834 512.054,359.834 512.352,359.834 512.65,359.834 512.947,359.834 513.245,359.834 513.542,359.834 513.84,359.834 514.138,359.834 514.435,359.834 514.733,359.834 515.03,359.834 515.328,359.834 515.626,359.834 515.923,359.834 516.221,359.834 516.518,359.834 516.816,359.834 517.114,359.834 517.411,359.834 517.709,359.834 518.006,359.834 518.304,359.834 518.602,359.834 518.899,359.834 519.197,359.834 519.494,359.834 519.792,359.834 520.09,359.834 520.387,359.834 520.685,359.834 520.982,359.834 521.28,359.834"/>
<polyline fill="none" stroke="#ff0000" stroke-width="0.5" points="74.88,32.4 75.1776,32.4 75.4752,32.4 75.7728,32.4 76.0704,32.4 76.368,32.4 76.6656,32.4 76.9632,32.4 77.2608,32.4 77.5584,32.4 77.856,32.4 78.1536,32.4 78.4512,32.4 78.7488,32.4 79.0464,32.4 79.344,32.4 79.6416,32.4 79.9392,32.4 80.2368,32.4 80.5344,32.4 80.832,32.4 81.1296,32.4 81.4272,32.4 81.7248,32.4 82.0224,32.4 82.32,32.4 82.6176,32.4 82.9152,32.4 83.2128,32.4 83.5104,32.4 83.808,32.4 84.1056,32.4 84.4032,32.4 84.7008,32.4 84.9984,32.4 85.296,32.4 85.5936,32.4 85.8912,32.4 86.1888,32.4 86.4864,32.4 86.784,32.4 87.0816,32.4 87.3792,32.4 87.6768,32.4 87.9744,32.4 88.272,32.4 88.5696,32.4 88.8672,32.4 89.1648,32.4 89.4624,32.4 89.76,32.4 90.0576,32.4 90.3552,32.4 90.6528,32.4 90.9504,32.4 91.248,32.4 91.5456,32.4 91.8432,32.4 92.1408,32.4 92.4384,32.4 92.736,32.4 93.0336,32.4 93.3312,32.4 93.6288,32.4 93.9264,32.4 94.224,32.4 94.5216,32.4 94.8192,32.4 95.1168,32.4 95.4144,32.4 95.712,32.4 96.0096,32.4 96.3072,32.4 96.6048,32.4 96.9024,32.4 97.2,32.4 97.4976,32.4 97.7952,32.4 98.0928,32.4 98.3904,32.4 98.688,32.4 98.9856,32.4 99.2832,32.4 99.5808,32.4 99.8784,32.4 100.176,32.4 100.474,32.4 100.771,32.4 101.069,32.4 101.366,32.4 101.664,32.4 101.962,32.4 102.259,32.4 102.557,32.4 102.854,32.4 103.152,32.4 103.45,32.4 103.747,32.4 104.045,32.4 104.342,32.4 104.64,32.4 104.938,32.4 105.235,32.4 105.533,32.4 105.83,32.4 106.128,32.4 106.426,32.4 106.723,32.4 107.021,32.4 107.318,32.4 107.616,32.4 107.914,32.4 108.211,32.4 108.509,32.4 108.806,32.4 109.104,32.4 109.402,32.4 109.699,32.4 109.997,32.4 110.294,32.4 110.592,32.4 110.89,32.4 111.187,32.4 111.485,32.4 111.782,32.4 112.08,32.4 112.378,32.4 112.675,32.4 112.973,32.4 113.27,32.4 113.568,32.4 113.866,32.4 114.163,32.4 114.461,32.4 114.758,32.4 115.056,32.4 115.354,32.4 115.651,32.4 115.949,32.4 116.246,32.4 116.544,32.4 116.842,32.4 117.139,32.4 117.437,32.4 117.734,32.4 118.032,32.4 118.33,32.4 118.627,32.4 118.925,32.4 119.222,32.4 119.52,32.4 119.818,32.4 120.115,32.4 120.413,32.4 120.71,32.4 121.008,32.4 121.306,32.4 121.603,32.4 121.901,32.4 122.198,32.4 122.496,32.4 122.794,32.4 123.091,32.4 123.389,32.4 123.686,32.4 123.984,32.4 124.282,32.4 124.579,32.4 124.877,32.4 125.174,32.4 125.472,32.4 125.77,32.4 126.067,32.4 126.365,32.4 126.662,32.4 126.96,32.4 127.258,32.4 127.555,32.4 127.853,32.4 128.15,32.4 128.448,32.4 128.746,32.4 129.043,32.4 129.341,32.4 129.638,32.4 129.936,32.4 130.234,32.4 130.531,32.4 130.829,32.4 131.126,32.4 131.424,32.4 131.722,32.4 132.019,32.4 132.317,32.4 132.614,32.4 132.912,32.4 133.21,32.4 133.507,32.4 133.805,32.4 134.102,32.4 134.4,32.4 134.698,32.4 134.995,32.4 135.293,32.4 135.59,32.4 135.888,32.4 136.186,32.4 136.483,32.4 136.781,32.4 137.078,32.4 137.376,32.4 137.674,32.4 137.971,32.4 138.269,32.4 138.566,32.4 138.864,32.4 139.162,32.4 139.459,32.4 139.757,32.4 140.054,32.4 140.352,32.4 140.65,32.4 140.947,32.4 141.245,32.4 141.542,32.4 141.84,32.4 142.138,32.4 142.435,32.4 142.733,32.4 143.03,32.4 143.328,32.4 143.626,32.4 143.923,32.4 144.221,32.4 144.518,32.4 144.816,32.4 145.114,32.4 145.411,32.4 145.709,32.4 146.006,32.4 146.304,32.4 146.602,32.4 146.899,32.4 147.197,32.4 147.494,32.4 147.792,32.4 148.09,32.4 148.387,32.4 148.685,32.4 148.982,32.4 149.28,32.4 149.578,32.4 149.875,32.4 150.173,32.4 150.47,32.4 150.768,32.4 151.066,32.4 151.363,32.4 151.661,32.4 151.958,32.4 152.256,32.4 152.554,32.4 152.851,32.4 153.149,32.4 153.446,32.4 153.744,32.4 154.042,32.4 154.339,32.4 154.637,32.4 154.934,32.4 155.232,32.4 155.53,32.4 155.827,32.4 156.125,32.4 156.422,32.4 156.72,32.4 157.018,32.4 157.315,32.4 157.613,32.4 157.91,32.4 158.208,32.4 158.506,32.4 158.803,32.4 159.101,32.4 159.398,32.4 159.696,32.4 159.994,32.4 160.291,32.4 160.589,32.4 160.886,32.4 161.184,32.4 161.482,32.4 161.779,32.4 162.077,32.4 162.374,32.4 162.672,32.4 162.97,32.4 163.267,32.4 163.565,32.4 163.862,32.4 164.16,32.4 164.458,32.4 164.755,32.4 165.053,32.4 165.35,32.4 165.648,32.4 165.946,32.4 166.243,32.4 166.541,32.4 166.838,32.4 167.136,32.4 167.434,32.4 167.731,32.4 168.029,32.4 168.326,32.4 168.624,32.4 168.922,32.4 169.219,32.4 169.517,32.4 169.814,32.4 170.112,32.4 170.41,32.4 170.707,32.4 171.005,32.4 171.302,32.4 171.6,32.4 171.898,32.4 172.195,32.4 172.493,32.4 172.79,32.4 173.088,32.4 173.386,32.4 173.683,32.4 173.981,32.4 174.278,32.4 174.576,32.4 174.874,32.4 175.171,32.4 175.469,32.4 175.766,32.4 176.064,32.4 176.362,32.4 176.659,32.4 176.957,32.4 177.254,32.4 177.552,32.4 177.85,32.4 178.147,32.4 178.445,32.4 178.742,32.4 179.04,32.4 179.338,32.4 179.635,32.4 179.933,32.4 180.23,32.4 180.528,32.4 180.826,32.4 181.123,32.4 181.421,32.4 181.718,32.4 182.016,32.4 182.314,32.4 182.611,32.4 182.909,32.4 183.206,32.4 183.504,32.4 183.802,32.4 184.099,32.4 184.397,32.4 184.694,32.4 184.992,32.4 185.29,32.4 185.587,32.4 185.885,32.4 186.182,32.4 186.48,32.4 186.778,32.4 187.075,32.4 187.373,32.4 187.67,32.4 187.968,32.4 188.266,32.4 188.563,32.4 188.861,32.4 189.158,32.4 189.456,32.4 189.754,32.4 190.051,32.4 190.349,32.4 190.646,32.4 190.944,32.4 191.242,32.4 191.539,32.4 191.837,32.4 192.134,32.4 192.432,32.4 192.73,32.4 193.027,32.4 193.325,32.4 193.622,32.4 193.92,32.4 194.218,32.4 194.515,32.4 194.813,32.4 195.11,32.4 195.408,32.4 195.706,32.4 196.003,32.4 196.301,32.4 196.598,32.4 196.896,32.4 197.194,32.4 197.491,32.4 197.789,32.4 198.086,32.4 198.384,32.4 198.682,32.4 198.979,32.4 199.277,32.4 199.574,32.4 199.872,32.4 200.17,32.4 200.467,32.4 200.765,32.4 201.062,32.4 201.36,32.4 201.658,32.4 201.955,32.4 202.253,32.4 202.55,32.4 202.848,32.4 203.146,32.4 203.443,32.4 203.741,32.4 204.038,32.4 204.336,32.4 204.634,32.4 204.931,32.4 205.229,32.4 205.526,32.4 205.824,32.4 206.122,32.4 206.419,32.4 206.717,32.4 207.014,32.4 207.312,32.4 207.61,32.4 207.907,32.4 208.205,32.4 208.502,32.4 208.8,32.4 209.098,32.4 209.395,32.4 209.693,32.4 209.99,32.4 210.288,32.4 210.586,32.4 210.883,32.4 211.181,32.4 211.478,32.4 211.776,32.4 212.074,32.4 212.371,32.4 212.669,32.4 212.966,32.4 213.264,32.4 213.562,32.4 213.859,32.4 214.157,32.4 214.454,32.4 214.752,32.4 215.05,32.4 215.347,32.4 215.645,32.4 215.942,32.4 216.24,32.4 216.538,32.4 216.835,32.4 217.133,32.4 217.43,32.4 217.728,32.4 218.026,32.4 218.323,32.4 218.621,32.4 218.918,32.4 219.216,32.4 219.514,32.4 219.811,32.4 220.109,32.4 220.406,32.4 220.704,32.4 221.002,32.4 221.299,32.4 221.597,32.4 221.894,32.4 222.192,32.4 222.49,32.4 222.787,32.4 223.085,32.4 223.382,32.4 223.68,32.4 223.978,32.4 224.275,32.4 224.573,32.4 224.87,32.4 225.168,32.4 225.466,32.4 225.763,32.4 226.061,32.4 226.358,32.4 226.656,32.4 226.954,32.4 227.251,32.4 227.549,32.4 227.846,32.4 228.144,32.4 228.442,32.4 228.739,32.4 229.037,32.4 229.334,32.4 229.632,32.4 229.93,32.4 230.227,32.4 230.525,32.4 230.822,32.4 231.12,32.4 231.418,32.4 231.715,32.4 232.013,32.4 232.31,32.4 232.608,32.4 232.906,32.4 233.203,32.4 233.501,32.4 233.798,32.4 234.096,32.4 234.394,32.4 234.691,32.4 234.989,32.4 235.286,32.4 235.584,32.4 235.882,32.4 236.179,32.4 236.477,32.4 236.774,32.4 237.072,32.4 237.37,32.4 237.667,32.4 237.965,32.4 238.262,32.4 238.56,32.4 238.858,32.4 239.155,32.4 239.453,32.4 239.75,32.4 240.048,32.4 240.346,32.4 240.643,32.4 240.941,32.4 241.238,32.4 241.536,32.4 241.834,32.4 242.131,32.4 242.429,32.4 242.726,32.4 243.024,32.4 243.322,32.4 243.619,32.4 243.917,32.4 244.214,32.4 244.512,32.4 244.81,32.4 245.107,32.4 245.405,32.4 245.702,32.4 246,32.4 246.298,32.4 246.595,32.4 246.893,32.4 247.19,32.4 247.488,32.4 247.786,32.4 248.083,32.4 248.381,32.4 248.678,32.4 248.976,32.4 249.274,32.4 249.571,32.4 249.869,32.4 250.166,32.4 250.464,32.4 250.762,32.4 251.059,32.4 251.357,32.4 251.654,32.4 251.952,32.4 252.25,32.4 252.547,32.4 252.845,32.4 253.142,32.4 253.44,32.4 253.738,32.4 254.035,32.4 254.333,32.4 254.63,32.4 254.928,32.4 255.226,32.4 255.523,32.4 255.821,32.4 256.118,32.4 256.416,32.4 256.714,32.4 257.011,32.4 257.309,32.4 257.606,32.4 257.904,32.4 258.202,32.4 258.499,32.4 258.797,32.4 259.094,32.4 259.392,32.4 259.69,32.4 259.987,32.4 260.285,32.4 260.582,32.4 260.88,32.4 261.178,32.4 261.475,32.4 261.773,32.4 262.07,32.4 262.368,32.4 262.666,32.4 262.963,32.4 263.261,32.4 263.558,32.4 263.856,32.4 264.154,32.4 264.451,32.4 264.749,32.4 265.046,32.4 265.344,32.4 265.642,32.4 265.939,32.4 266.237,32.4 266.534,32.4 266.832,32.4 267.13,32.4 267.427,32.4 267.725,32.4 268.022,32.4 268.32,32.4 268.618,32.4 268.915,32.4 269.213,32.4 269.51,32.4 269.808,32.4 270.106,32.4 270.403,32.4 270.701,32.4 270.998,32.4 271.296,32.4 271.594,32.4 271.891,32.4 272.189,32.4 272.486,32.4 272.784,32.4 273.082,32.4 273.379,32.4 273.677,32.4 273.974,32.4 274.272,35.9208 274.57,35.9208 274.867,35.9208 275.165,35.9208 275.462,35.9208 275.76,35.9208 276.058,35.9208 276.355,35.9208 276.653,35.9208 276.95,35.9208 277.248,35.9208 277.546,35.9208 277.843,35.9208 278.141,35.9208 278.438,35.9208 278.736,35.9208 279.034,35.9208 279.331,35.9208 279.629,35.9208 279.926,35.9208 280.224,35.9208 280.522,35.9208 280.819,35.9208 281.117,35.9208 281.414,35.9208 281.712,35.9208 282.01,35.9208 282.307,35.9208 282.605,35.9208 282.902,35.9208 283.2,35.9208 283.498,35.9208 283.795,35.9208 284.093,35.9208 284.39,35.9208 284.688,35.9208 284.986,35.9208 285.283,35.9208 285.581,35.9208 285.878,35.9208 286.176,35.9208 286.474,35.9208 286.771,35.9208 287.069,35.9208 287.366,35.9208 287.664,35.9208 287.962,35.9208 288.259,35.9208 288.557,35.9208 288.854,35.9208 289.152,35.9208 289.45,35.9208 289.747,35.9208 290.045,35.9208 290.342,35.9208 290.64,35.9208 290.938,35.9208 291.235,35.9208 291.533,35.9208 291.83,35.9208 292.128,35.9208 292.426,35.9208 292.723,35.9208 293.021,35.9208 293.318,35.9208 293.616,35.9208 293.914,35.9208 294.211,35.9208 294.509,35.9208 294.806,35.9208 295.104,35.9208 295.402,35.9208 295.699,35.9208 295.997,35.9208 296.294,35.9208 296.592,35.9208 296.89,35.9208 297.187,35.9208 297.485,35.9208 297.782,35.9208 298.08,35.9208 298.378,35.9208 298.675,35.9208 298.973,35.9208 299.27,35.9208 299.568,35.9208 299.866,35.9208 300.163,35.9208 300.461,35.9208 300.758,35.9208 301.056,35.9208 301.354,35.9208 301.651,35.9208 301.949,35.9208 302.246,35.9208 302.544,35.9208 302.842,39.4416 303.139,39.4416 303.437,39.4416 303.734,39.4416 304.032,39.4416 304.33,39.4416 304.627,39.4416 304.925,39.4416 305.222,39.4416 305.52,39.4416 305.818,39.4416 306.115,39.4416 306.413,39.4416 306.71,39.4416 307.008,39.4416 307.306,39.4416 307.603,39.4416 307.901,39.4416 308.198,39.4416 308.496,39.4416 308.794,39.4416 309.091,39.4416 309.389,39.4416 309.686,39.4416 309.984,39.4416 310.282,39.4416 310.579,39.4416 310.877,39.4416 311.174,39.4416 311.472,39.4416 311.77,39.4416 312.067,42.9624 312.365,42.9624 312.662,42.9624 312.96,42.9624 313.258,42.9624 313.555,42.9624 313.853,42.9624 314.15,42.9624 314.448,42.9624 314.746,42.9624 315.043,42.9624 315.341,42.9624 315.638,42.9624 315.936,42.9624 316.234,42.9624 316.531,42.9624 316.829,42.9624 317.126,42.9624 317.424,42.9624 317.722,42.9624 318.019,42.9624 318.317,42.9624 318.614,42.9624 318.912,42.9624 319.21,42.9624 319.507,42.9624 319.805,42.9624 320.102,42.9624 320.4,42.9624 320.698,42.9624 320.995,42.9624 321.293,42.9624 321.59,46.4832 321.888,46.4832 322.186,46.4832 322.483,46.4832 322.781,46.4832 323.078,46.4832 323.376,46.4832 323.674,46.4832 323.971,46.4832 324.269,46.4832 324.566,46.4832 324.864,46.4832 325.162,46.4832 325.459,46.4832 325.757,46.4832 326.054,46.4832 326.352,46.4832 326.65,46.4832 326.947,46.4832 327.245,50.004 327.542,50.004 327.84,50.004 328.138,50.004 328.435,53.5248 328.733,53.5248 329.03,53.5248 329.328,53.5248 329.626,53.5248 329.923,53.5248 330.221,53.5248 330.518,57.0456 330.816,57.0456 331.114,57.0456 331.411,57.0456 331.709,57.0456 332.006,57.0456 332.304,57.0456 332.602,57.0456 332.899,57.0456 333.197,57.0456 333.494,57.0456 333.792,57.0456 334.09,57.0456 334.387,57.0456 334.685,57.0456 334.982,57.0456 335.28,57.0456 335.578,57.0456 335.875,57.0456 336.173,57.0456 336.47,57.0456 336.768,57.0456 337.066,57.0456 337.363,57.0456 337.661,57.0456 337.958,57.0456 338.256,57.0456 338.554,57.0456 338.851,57.0456 339.149,57.0456 339.446,57.0456 339.744,57.0456 340.042,57.0456 340.339,57.0456 340.637,57.0456 340.934,57.0456 341.232,57.0456 341.53,57.0456 341.827,57.0456 342.125,57.0456 342.422,57.0456 342.72,57.0456 343.018,57.0456 343.315,57.0456 343.613,57.0456 343.91,57.0456 344.208,60.5664 344.506,60.5664 344.803,60.5664 345.101,60.5664 345.398,60.5664 345.696,64.0872 345.994,64.0872 346.291,64.0872 346.589,64.0872 346.886,64.0872 347.184,64.0872 347.482,64.0872 347.779,64.0872 348.077,64.0872 348.374,67.608 348.672,67.608 348.97,67.608 349.267,67.608 349.565,67.608 349.862,67.608 350.16,67.608 350.458,67.608 350.755,71.1288 351.053,71.1288 351.35,74.6496 351.648,74.6496 351.946,74.6496 352.243,74.6496 352.541,74.6496 352.838,74.6496 353.136,74.6496 353.434,74.6496 353.731,74.6496 354.029,74.6496 354.326,74.6496 354.624,74.6496 354.922,74.6496 355.219,74.6496 355.517,78.1704 355.814,78.1704 356.112,78.1704 356.41,78.1704 356.707,81.6912 357.005,81.6912 357.302,81.6912 357.6,81.6912 357.898,81.6912 358.195,81.6912 358.493,85.212 358.79,85.212 359.088,85.212 359.386,88.7328 359.683,88.7328 359.981,88.7328 360.278,88.7328 360.576,88.7328 360.874,88.7328 361.171,88.7328 361.469,88.7328 361.766,88.7328 362.064,88.7328 362.362,95.7744 362.659,95.7744 362.957,95.7744 363.254,95.7744 363.552,95.7744 363.85,95.7744 364.147,95.7744 364.445,95.7744 364.742,95.7744 365.04,99.2952 365.338,102.816 365.635,102.816 365.933,106.337 366.23,106.337 366.528,106.337 366.826,106.337 367.123,106.337 367.421,106.337 367.718,106.337 368.016,106.337 368.314,109.858 368.611,109.858 368.909,109.858 369.206,109.858 369.504,109.858 369.802,109.858 370.099,109.858 370.397,113.378 370.694,113.378 370.992,113.378 371.29,113.378 371.587,113.378 371.885,113.378 372.182,116.899 372.48,116.899 372.778,116.899 373.075,116.899 373.373,116.899 373.67,116.899 373.968,116.899 374.266,116.899 374.563,116.899 374.861,116.899 375.158,116.899 375.456,120.42 375.754,120.42 376.051,123.941 376.349,123.941 376.646,123.941 376.944,123.941 377.242,123.941 377.539,127.462 377.837,134.503 378.134,134.503 378.432,134.503 378.73,141.545 379.027,145.066 379.325,145.066 379.622,148.586 379.92,148.586 380.218,148.586 380.515,148.586 380.813,152.107 381.11,152.107 381.408,152.107 381.706,155.628 382.003,155.628 382.301,159.149 382.598,159.149 382.896,159.149 383.194,159.149 383.491,159.149 383.789,159.149 384.086,159.149 384.384,159.149 384.682,159.149 384.979,159.149 385.277,159.149 385.574,159.149 385.872,162.67 386.17,162.67 386.467,166.19 386.765,166.19 387.062,166.19 387.36,166.19 387.658,166.19 387.955,166.19 388.253,166.19 388.55,166.19 388.848,166.19 389.146,166.19 389.443,166.19 389.741,169.711 390.038,176.753 390.336,176.753 390.634,176.753 390.931,180.274 391.229,183.794 391.526,183.794 391.824,183.794 392.122,187.315 392.419,187.315 392.717,187.315 393.014,187.315 393.312,190.836 393.61,194.357 393.907,194.357 394.205,197.878 394.502,197.878 394.8,197.878 395.098,201.398 395.395,201.398 395.693,204.919 395.99,204.919 396.288,208.44 396.586,208.44 396.883,208.44 397.181,208.44 397.478,208.44 397.776,211.961 398.074,211.961 398.371,211.961 398.669,211.961 398.966,211.961 399.264,211.961 399.562,211.961 399.859,215.482 400.157,215.482 400.454,215.482 400.752,215.482 401.05,215.482 401.347,219.002 401.645,219.002 401.942,219.002 402.24,222.523 402.538,226.044 402.835,226.044 403.133,226.044 403.43,229.565 403.728,240.127 404.026,240.127 404.323,243.648 404.621,243.648 404.918,243.648 405.216,243.648 405.514,243.648 405.811,243.648 406.109,243.648 406.406,243.648 406.704,243.648 407.002,243.648 407.299,243.648 407.597,243.648 407.894,243.648 408.192,243.648 408.49,247.169 408.787,247.169 409.085,247.169 409.382,250.69 409.68,250.69 409.978,250.69 410.275,250.69 410.573,250.69 410.87,250.69 411.168,250.69 411.466,250.69 411.763,250.69 412.061,254.21 412.358,261.252 412.656,261.252 412.954,261.252 413.251,261.252 413.549,264.773 413.846,268.294 414.144,271.814 414.442,271.814 414.739,271.814 415.037,271.814 415.334,275.335 415.632,278.856 415.93,278.856 416.227,278.856 416.525,278.856 416.822,282.377 417.12,282.377 417.418,282.377 417.715,282.377 418.013,282.377 418.31,282.377 418.608,282.377 418.906,282.377 419.203,282.377 419.501,282.377 419.798,285.898 420.096,285.898 420.394,285.898 420.691,285.898 420.989,285.898 421.286,285.898 421.584,285.898 421.882,285.898 422.179,285.898 422.477,289.418 422.774,289.418 423.072,289.418 423.37,289.418 423.667,289.418 423.965,289.418 424.262,289.418 424.56,289.418 424.858,289.418 425.155,289.418 425.453,289.418 425.75,289.418 426.048,289.418 426.346,292.939 426.643,292.939 426.941,292.939 427.238,292.939 427.536,299.981 427.834,299.981 428.131,299.981 428.429,299.981 428.726,299.981 429.024,299.981 429.322,299.981 429.619,303.502 429.917,303.502 430.214,307.022 430.512,307.022 430.81,307.022 431.107,307.022 431.405,307.022 431.702,307.022 432,307.022 432.298,307.022 432.595,307.022 432.893,310.543 433.19,314.064 433.488,314.064 433.786,314.064 434.083,314.064 434.381,317.585 434.678,317.585 434.976,317.585 435.274,317.585 435.571,317.585 435.869,317.585 436.166,317.585 436.464,317.585 436.762,317.585 437.059,317.585 437.357,317.585 437.654,317.585 437.952,317.585 438.25,317.585 438.547,317.585 438.845,317.585 439.142,317.585 439.44,317.585 439.738,317.585 440.035,321.106 440.333,324.626 440.63,328.147 440.928,328.147 441.226,328.147 441.523,328.147 441.821,328.147 442.118,328.147 442.416,328.147 442.714,331.668 443.011,331.668 443.309,331.668 443.606,331.668 443.904,331.668 444.202,331.668 444.499,331.668 444.797,335.189 445.094,335.189 445.392,335.189 445.69,335.189 445.987,335.189 446.285,335.189 446.582,335.189 446.88,335.189 447.178,335.189 447.475,335.189 447.773,335.189 448.07,335.189 448.368,335.189 448.666,335.189 448.963,335.189 449.261,335.189 449.558,335.189 449.856,335.189 450.154,335.189 450.451,335.189 450.749,335.189 451.046,335.189 451.344,338.71 451.642,338.71 451.939,338.71 452.237,338.71 452.534,338.71 452.832,338.71 453.13,338.71 453.427,338.71 453.725,338.71 454.022,338.71 454.32,338.71 454.618,338.71 454.915,338.71 455.213,338.71 455.51,338.71 455.808,338.71 456.106,338.71 456.403,338.71 456.701,338.71 456.998,338.71 457.296,338.71 457.594,338.71 457.891,338.71 458.189,342.23 458.486,342.23 458.784,342.23 459.082,342.23 459.379,342.23 459.677,345.751 459.974,345.751 460.272,345.751 460.57,345.751 460.867,345.751 461.165,345.751 461.462,345.751 461.76,349.272 462.058,349.272 462.355,352.793 462.653,352.793 462.95,352.793 463.248,352.793 463.546,352.793 463.843,352.793 464.141,352.793 464.438,352.793 464.736,352.793 465.034,352.793 465.331,352.793 465.629,352.793 465.926,352.793 466.224,352.793 466.522,352.793 466.819,352.793 467.117,352.793 467.414,352.793 467.712,352.793 468.01,352.793 468.307,352.793 468.605,352.793 468.902,352.793 469.2,352.793 469.498,352.793 469.795,352.793 470.093,352.793 470.39,352.793 470.688,352.793 470.986,352.793 471.283,352.793 471.581,352.793 471.878,352.793 472.176,352.793 472.474,352.793 472.771,352.793 473.069,352.793 473.366,352.793 473.664,352.793 473.962,356.314 474.259,359.834 474.557,359.834 474.854,359.834 475.152,359.834 475.45,359.834 475.747,359.834 476.045,359.834 476.342,359.834 476.64,359.834 476.938,359.834 477.235,359.834 477.533,359.834 477.83,359.834 478.128,359.834 478.426,359.834 478.723,359.834 479.021,363.355 479.318,363.355 479.616,363.355 479.914,363.355 480.211,363.355 480.509,363.355 480.806,363.355 481.104,366.876 481.402,366.876 481.699,366.876 481.997,366.876 482.294,366.876 482.592,366.876 482.89,366.876 483.187,366.876 483.485,366.876 483.782,366.876 484.08,366.876 484.378,366.876 484.675,366.876 484.973,366.876 485.27,366.876 485.568,366.876 485.866,366.876 486.163,366.876 486.461,366.876 486.758,366.876 487.056,366.876 487.354,366.876 487.651,366.876 487.949,366.876 488.246,366.876 488.544,366.876 488.842,366.876 489.139,366.876 489.437,366.876 489.734,366.876 490.032,366.876 490.33,366.876 490.627,366.876 490.925,366.876 491.222,366.876 491.52,366.876 491.818,366.876 492.115,366.876 492.413,366.876 492.71,366.876 493.008,366.876 493.306,366.876 493.603,366.876 493.901,366.876 494.198,366.876 494.496,366.876 494.794,366.876 495.091,370.397 495.389,373.918 495.686,373.918 495.984,373.918 496.282,373.918 496.579,373.918 496.877,373.918 497.174,373.918 497.472,373.918 497.77,373.918 498.067,373.918 498.365,373.918 498.662,373.918 498.96,373.918 499.258,373.918 499.555,373.918 499.853,373.918 500.15,373.918 500.448,373.918 500.746,373.918 501.043,373.918 501.341,373.918 501.638,373.918 501.936,373.918 502.234,373.918 502.531,373.918 502.829,373.918 503.126,373.918 503.424,373.918 503.722,373.918 504.019,373.918 504.317,373.918 504.614,373.918 504.912,373.918 505.21,373.918 505.507,373.918 505.805,373.918 506.102,373.918 506.4,373.918 506.698,373.918 506.995,373.918 507.293,373.918 507.59,373.918 507.888,373.918 508.186,373.918 508.483,373.918 508.781,373.918 509.078,373.918 509.376,373.918 509.674,373.918 509.971,373.918 510.269,373.918 510.566,373.918 510.864,373.918 511.162,373.918 511.459,373.918 511.757,373.918 512.054,373.918 512.352,373.918 512.65,373.918 512.947,373.918 513.245,373.918 513.542,373.918 513.84,373.918 514.138,373.918 514.435,373.918 514.733,373.918 515.03,373.918 515.328,373.918 515.626,373.918 515.923,373.918 516.221,373.918 516.518,373.918 516.816,373.918 517.114,377.438 517.411,377.438 517.709,377.438 518.006,377.438 518.304,377.438 518.602,377.438 518.899,377.438 519.197,377.438 519.494,377.438 519.792,377.438 520.09,377.438 520.387,377.438 520.685,377.438 520.982,377.438 521.28,377.438"/>
<polyline fill="none" stroke="#000000" stroke-width="0.5" stroke-dasharray="16,0" points="388.903,77.3261 518.534,77.3261"/>
<polyline fill="none" stroke="#000000" stroke-width="0.5" stroke-dasharray="16,0" points="388.903,35.1458 518.534,35.1458"/>
<polyline fill="none" stroke="#000000" stroke-width="0.5" stroke-dasharray="16,0" points="388.903,77.3261 388.903,35.1458"/>
<polyline fill="none" stroke="#000000" stroke-width="0.5" stroke-dasharray="16,0" points="518.534,77.3261 518.534,35.1458"/>
<text fill="#000000" x="414.988" y="42.1758" font-size="10" text-anchor="start" baseline-shift="-5" font-family="Helvetica">With sinkhole attack</text>
<text fill="#000000" x="414.988" y="56.236" font-size="10" text-anchor="start" baseline-shift="-5" font-family="Helvetica">Withblackhole attack</text>
<text fill="#000000" x="414.988" y="70.2961" font-size="10" text-anchor="start" baseline-shift="-5" font-family="Helvetica">Without Attack</text>
<polyline fill="none" stroke="#0000ff" stroke-width="0.5" stroke-dasharray="0,4,4,4,4,0" points="391.649,42.1758 412.243,42.1758"/>
<polyline fill="none" stroke="#007f00" stroke-width="0.5" stroke-dasharray="0,4,4,4,4,0" points="391.649,56.236 412.243,56.236"/>
<polyline fill="none" stroke="#ff0000" stroke-width="0.5" points="391.649,70.296 412.243,70.296"/>
<text fill="#000000" x="298.08" y="22.4" font-size="12" text-anchor="middle" baseline-shift="0" font-family="Helvetica">Nodes alive during rounds</text>
</g>
</svg>
